<?xml version="1.0" standalone="no"?>
<!DOCTYPE svg PUBLIC "-//W3C//DTD SVG 1.1//EN" "http://www.w3.org/Graphics/SVG/1.1/DTD/svg11.dtd" >
<svg>
<metadata>
Created by FontForge 20120731 at Sat Jul 19 05:35:56 2014
 By World Wide Web Server
(c) Copyright 1998, Neufville Digital. ALL RIGHTS RESERVED. This font is licensed, not sold, and may not be reproduced without the written consent of Neufville Digital. Parts (c) Visualogik Technology &#38; Design, 1998.The digitally encoded machine readable outline data for producing the typefaces licensed to you is copyrighted (c), 1998 by and the property of Visualogik, a subsidiary of VISINOVA bv.
</metadata>
<defs>
<font id="FuturaNDBook-Oblique" horiz-adv-x="1264" >
  <font-face 
    font-family="FuturaNDBook-Oblique"
    font-weight="400"
    font-style="oblique"
    font-stretch="normal"
    units-per-em="2048"
    panose-1="2 11 5 2 2 2 4 9 3 3"
    ascent="1552"
    descent="-496"
    x-height="935"
    cap-height="1544"
    bbox="-415 -578 2434 2076"
    underline-thickness="160"
    underline-position="-149"
    slope="-12"
    unicode-range="U+0020-FFE6"
  />
<missing-glyph horiz-adv-x="1024" 
d="M200 0v1544h624v-1544h-624zM781 43v1458h-538v-1458h538z" />
    <glyph glyph-name=".notdef" horiz-adv-x="1024" 
d="M200 0v1544h624v-1544h-624zM781 43v1458h-538v-1458h538z" />
    <glyph glyph-name="space" unicode=" " horiz-adv-x="632" 
 />
    <glyph glyph-name="exclam" unicode="!" horiz-adv-x="619" 
d="M366 90q0 -23 -8.5 -43t-23 -34.5t-34.5 -23t-43 -8.5t-43 8.5t-34.5 23.5t-23 35.5t-8.5 44.5q0 23 8.5 43t23.5 34.5t35 23t44 8.5q22 0 42 -8.5t34 -23.5t22.5 -35.5t8.5 -44.5zM518 1556l-147 -1204h-170l147 1204h170z" />
    <glyph glyph-name="quotedbl" unicode="&#x22;" horiz-adv-x="758" 
d="M323 923h-121l46 621h182zM653 923h-121l46 621h183z" />
    <glyph glyph-name="numbersign" unicode="#" 
d="M1257 1092l-17 -139h-246l-60 -324h238l-17 -139h-247l-92 -495l-143 19l88 476h-297l-92 -495l-144 19l89 476h-247l17 139h256l60 324h-247l17 139h256l85 464l144 -20l-82 -444h294l86 464l144 -20l-83 -444h240zM844 953h-294l-60 -324h296z" />
    <glyph glyph-name="dollar" unicode="$" 
d="M502 -19q-140 23 -230 96q-90 75 -157 223l135 79q91 -230 270 -252l76 623q-168 98 -236 191q-68 95 -68 225q0 170 108 278q109 109 297 127l23 191h120l-24 -199q190 -39 303 -236l-118 -98q-54 88 -96 126q-41 37 -108 57l-68 -555l30 -18q157 -95 222 -190t65 -232
q0 -188 -112 -303t-314 -138l-27 -223h-119zM618 926l60 492q-220 -55 -220 -247q0 -139 160 -245zM707 681l-68 -553q115 23 177.5 99.5t62.5 194.5q0 80 -38 136q-37 56 -134 123z" />
    <glyph glyph-name="percent" unicode="%" horiz-adv-x="1698" 
d="M738 1217q0 -189 -92 -320q-92 -129 -227 -129q-124 0 -197 96q-73 94 -73 256q0 187 93 315q94 129 229 129q119 0 192 -97q75 -98 75 -250zM622 1219q0 106 -42 171q-42 64 -112 64q-84 0 -144 -102q-59 -104 -59 -244q0 -103 42 -167q43 -63 112 -63q83 0 143 101
q60 100 60 240zM271 36l1134 1531l81 -61l-1135 -1528zM1607 428q0 -191 -92 -319t-227 -128q-122 0 -196 95q-74 98 -74 255q0 188 93 316q94 129 230 129q119 0 192 -97q74 -98 74 -251zM1492 431q0 54 -11 97t-31 73.5t-48.5 47t-64.5 16.5q-83 0 -143 -102
q-60 -101 -60 -243q0 -103 42 -167q43 -63 112 -63q83 0 143 101q61 100 61 240z" />
    <glyph glyph-name="ampersand" unicode="&#x26;" horiz-adv-x="1390" 
d="M1121 296l185 -296h-206l-114 186l-36 -28q-137 -104 -223 -142q-88 -38 -182 -38q-172 0 -297 125q-125 128 -125 299q0 134 89 247q45 57 123 124.5t193 146.5q-112 193 -112 322q0 140 93 232q95 92 239 92q140 0 231 -88q91 -87 91 -221q0 -106 -73 -194
q-72 -89 -236 -188l268 -438l215 183l111 -132zM675 1011q126 79 178 136q52 58 52 119q0 33 -11 61t-31.5 48t-48 31.5t-60.5 11.5q-69 0 -119 -53q-48 -53 -48 -129q0 -77 88 -225zM614 784q-189 -138 -253 -215q-65 -80 -65 -169q0 -108 74 -185q75 -76 179 -76
q69 0 143 38q35 19 86.5 55.5t118.5 91.5z" />
    <glyph glyph-name="quotesingle" unicode="'" horiz-adv-x="428" 
d="M323 923h-121l46 621h182z" />
    <glyph glyph-name="parenleft" unicode="(" horiz-adv-x="690" 
d="M296 -431q-111 357 -111 792q0 688 360 1338l135 -76q-331 -634 -331 -1273q0 -364 93 -724z" />
    <glyph glyph-name="parenright" unicode=")" horiz-adv-x="691" 
d="M421 1699q111 -359 111 -794q0 -685 -360 -1336l-134 76q330 634 330 1272q0 356 -92 724z" />
    <glyph glyph-name="asterisk" unicode="*" 
d="M671 1413l23 286l160 -20l-47 -283l279 67l31 -158l-284 -43l149 -245l-140 -77l-128 256l-187 -218l-117 110l204 201l-265 111l68 145z" />
    <glyph glyph-name="plus" unicode="+" 
d="M117 718v139h475v459h142v-459h475v-139h-475v-463h-142v463h-475z" />
    <glyph glyph-name="comma" unicode="," horiz-adv-x="632" 
d="M377 210l-320 -522l-105 58l287 540z" />
    <glyph glyph-name="hyphen" unicode="-" horiz-adv-x="418" 
d="M422 556l-18 -142h-417l17 142h418z" />
    <glyph glyph-name="period" unicode="." horiz-adv-x="632" 
d="M373 89q0 -45 -34 -76q-31 -31 -78 -31q-45 0 -75.5 31t-30.5 79q0 23 8 43t22.5 34.5t33.5 23t42 8.5q24 0 44.5 -8.5t35.5 -23.5t23.5 -35.5t8.5 -44.5z" />
    <glyph glyph-name="slash" unicode="/" horiz-adv-x="902" 
d="M-51 -356l899 2055l135 -53l-904 -2062z" />
    <glyph glyph-name="zero" unicode="0" 
d="M1211 880q0 -180 -59 -375q-58 -191 -150 -313q-166 -217 -400 -217q-218 0 -356 193t-138 499q0 372 179 638q178 265 432 265q218 0 354 -193q138 -194 138 -497zM1041 884q0 231 -90 380t-231 149q-146 0 -262 -155q-80 -107 -130 -275q-50 -170 -50 -326
q0 -229 91 -377q92 -149 231 -149q176 0 308 226q133 226 133 527z" />
    <glyph glyph-name="one" unicode="1" 
d="M859 1544l-189 -1544h-170l170 1387h-268l90 157h367z" />
    <glyph glyph-name="two" unicode="2" 
d="M1045 158l-20 -158h-979l625 661q88 94 144.5 161t82.5 110q52 85 52 191q0 131 -79 210q-78 80 -206 80q-144 0 -223.5 -90.5t-94.5 -269.5h-163q16 210 92 319q136 199 394 199q201 0 325 -124q125 -123 125 -321q0 -131 -60 -240q-58 -107 -227 -282l-428 -446h640z
" />
    <glyph glyph-name="three" unicode="3" 
d="M109 389h158q8 -128 79 -193t203 -65q139 0 227 91q90 91 90 232q0 261 -305 279l18 148q8 -1 16 -1h15h26q120 0 192 78q72 79 72 210q0 112 -68 178q-67 67 -181 67q-218 0 -246 -249h-156q24 167 84 248q118 159 334 159q182 0 292 -111q111 -110 111 -291
q0 -130 -70.5 -226t-200.5 -141q237 -104 237 -356q0 -206 -138 -339q-138 -132 -352 -132q-195 0 -316 114t-121 300z" />
    <glyph glyph-name="four" unicode="4" 
d="M919 286l-35 -286h-170l35 286h-736l1074 1368l-150 -1219h173l-18 -149h-173zM768 435l87 714l-549 -714h462z" />
    <glyph glyph-name="five" unicode="5" 
d="M1136 1544l-19 -157h-488l-130 -366q71 16 134 16q206 0 334 -138q128 -137 128 -360q0 -249 -159 -406q-161 -158 -408 -158q-170 0 -286 80q-114 80 -191 256l140 67q59 -132 138 -190q79 -57 204 -57q171 0 281 116q111 115 111 294q0 158 -95 256q-95 96 -255 96
q-74 0 -129 -16q-29 -8 -74.5 -24.5t-108.5 -42.5l255 734h618z" />
    <glyph glyph-name="six" unicode="6" 
d="M513 992q103 39 203 39q193 0 318 -135q126 -134 126 -341q0 -243 -162 -412q-161 -168 -394 -168q-217 0 -359 144q-143 146 -143 364q0 228 229 523l462 599l125 -102zM272 486q0 -155 95 -256q94 -99 244 -99q158 0 269 119q112 118 112 287q0 153 -93 251t-238 98
q-164 0 -276 -117q-113 -116 -113 -283z" />
    <glyph glyph-name="seven" unicode="7" 
d="M1309 1544l-1041 -1578l-139 87l880 1334h-794l19 157h1075z" />
    <glyph glyph-name="eight" unicode="8" 
d="M866 809q59 -33 101.5 -71t70.5 -83.5t41 -99.5t13 -119q0 -200 -137 -331q-136 -130 -346 -130q-203 0 -333 121q-131 122 -131 307q0 301 321 426q-198 129 -198 331q0 177 127 294t321 117q183 0 299 -111q116 -110 116 -284q0 -66 -15.5 -120.5t-47.5 -99t-82.5 -81
t-119.5 -66.5zM961 1167q0 107 -72 176q-70 70 -180 70q-114 0 -193 -78q-78 -77 -78 -190q0 -104 72 -177q72 -72 176 -72q116 0 195 79q80 80 80 192zM922 443q0 127 -81 207q-80 80 -207 80q-137 0 -228 -90t-91 -225q0 -125 82 -204q83 -80 211 -80q134 0 224 90t90 222
z" />
    <glyph glyph-name="nine" unicode="9" 
d="M787 550q-101 -42 -188 -42q-204 0 -331 132q-128 134 -128 343q0 241 164 414q165 173 396 173q212 0 355 -146t143 -363q0 -126 -52 -242q-26 -60 -70.5 -130.5t-107.5 -151.5l-458 -593l-126 99zM1028 1050q0 160 -94 260q-94 103 -239 103q-159 0 -272 -125
t-113 -301q0 -145 93 -241q95 -95 236 -95q162 0 275 116q114 117 114 283z" />
    <glyph glyph-name="colon" unicode=":" horiz-adv-x="632" 
d="M373 89q0 -45 -34 -76q-31 -31 -78 -31q-45 0 -75.5 31t-30.5 79q0 23 8 43t22.5 34.5t33.5 23t42 8.5q24 0 44.5 -8.5t35.5 -23.5t23.5 -35.5t8.5 -44.5zM468 866q0 -43 -33 -76q-35 -32 -78 -32q-44 0 -76 32q-31 31 -31 79q0 23 8 43t22.5 34.5t33.5 23t42 8.5
q24 0 44.5 -8.5t35.5 -23.5t23.5 -35.5t8.5 -44.5z" />
    <glyph glyph-name="semicolon" unicode=";" horiz-adv-x="632" 
d="M450 867q0 -44 -33 -77q-35 -32 -78 -32t-75 32q-31 31 -31 79q0 23 8 43t22.5 34.5t33.5 23t41 8.5q48 0 80 -31.5t32 -79.5zM377 210l-320 -522l-105 58l287 540z" />
    <glyph glyph-name="less" unicode="&#x3c;" 
d="M1162 1327v-173l-818 -374l818 -374v-173l-1004 472v151z" />
    <glyph glyph-name="equal" unicode="=" 
d="M117 857v139h1092v-139h-1092zM117 580v138h1092v-138h-1092z" />
    <glyph glyph-name="greater" unicode="&#x3e;" 
d="M158 233v173l817 374l-817 374v172l1003 -471v-151z" />
    <glyph glyph-name="question" unicode="?" horiz-adv-x="1048" 
d="M592 90q0 -45 -32 -77t-75 -32q-24 0 -44 8.5t-35 23t-23.5 34.5t-8.5 43q0 48 32 79.5t80 31.5q45 0 75.5 -31.5t30.5 -79.5zM733 656h165q-14 -161 -100 -246.5t-235 -85.5q-145 0 -241 90q-96 91 -96 228q0 132 82 217q82 87 269 155q135 48 187 97t52 130
q0 84 -59 140t-148 56q-212 0 -212 -279h-158q0 195 74 290q103 132 298 132q165 0 269 -95t104 -247q0 -130 -73 -212q-72 -83 -235 -141q-165 -58 -224 -111q-58 -52 -58 -139q0 -72 47 -119q48 -45 123 -45q157 0 169 185z" />
    <glyph glyph-name="at" unicode="@" horiz-adv-x="1668" 
d="M1292 1176l-63 -525q-4 -29 -5.5 -55.5t-1.5 -49.5q0 -79 67 -79q82 0 150 123q67 124 67 278q0 250 -169 409q-169 160 -432 160q-279 0 -469 -192q-190 -190 -190 -472q0 -166 70 -306q70 -141 196 -234q169 -123 423 -123q244 0 493 120l15 7l50 -131l-12 -6
q-263 -126 -542 -126q-309 0 -517 151q-152 110 -237 281q-85 170 -85 367q0 339 232 568q233 230 573 230q315 0 525 -198q210 -197 210 -492q0 -224 -111 -390t-261 -166q-125 0 -168 138q-126 -142 -283 -142q-168 0 -279 119q-110 122 -110 301q0 195 123 324
q124 130 309 130q169 0 272 -130l13 111h147zM1105 801q0 108 -65 179q-64 70 -167 70q-117 0 -196 -90q-79 -88 -79 -224q0 -118 64 -194t163 -76q112 0 196 100t84 235z" />
    <glyph glyph-name="A" unicode="A" horiz-adv-x="1428" 
d="M417 431l-225 -431h-187l859 1638l477 -1638h-176l-120 431h-628zM498 588h499l-175 632z" />
    <glyph glyph-name="B" unicode="B" horiz-adv-x="1217" 
d="M334 1544h276q187 0 279 -54q75 -45 120 -134t45 -194q0 -246 -224 -360q144 -39 211.5 -126.5t67.5 -234.5q0 -220 -167 -351q-114 -90 -374 -90h-424zM485 1387l-65 -527h119q128 0 181 19q57 20 102 80q65 86 65 200q0 119 -67 173.5t-215 54.5h-120zM402 710
l-68 -552h246q124 0 182 19q62 19 105 71q69 82 69 201q0 128 -83 197q-44 37 -102 51q-28 7 -72.5 10t-105.5 3h-171z" />
    <glyph glyph-name="C" unicode="C" horiz-adv-x="1490" 
d="M1467 1378l-23 -195q-89 110 -222 170q-134 60 -286 60q-269 0 -441 -193q-173 -194 -173 -492q0 -276 160 -436q161 -161 431 -161q250 0 431 157l-25 -208q-218 -110 -432 -110q-327 0 -533 212q-205 211 -205 550q0 365 222 604t560 239q297 0 536 -197z" />
    <glyph glyph-name="D" unicode="D" horiz-adv-x="1471" 
d="M334 1544h310q287 0 425 -78q148 -83 233 -255q85 -169 85 -381q0 -234 -100 -430t-271 -298q-101 -60 -208 -81t-305 -21h-359zM485 1387l-151 -1229h193q272 0 410 87q125 80 201 242q77 165 77 346q0 167 -66 301q-64 133 -175 194q-110 59 -320 59h-169z" />
    <glyph glyph-name="E" unicode="E" horiz-adv-x="1082" 
d="M1091 1544l-20 -157h-586l-58 -471h587l-20 -158h-587l-73 -600h587l-20 -158h-757l190 1544h757z" />
    <glyph glyph-name="F" unicode="F" horiz-adv-x="998" 
d="M1038 1544l-19 -157h-534l-58 -470h534l-19 -157h-534l-94 -760h-170l191 1544h703z" />
    <glyph glyph-name="G" unicode="G" horiz-adv-x="1725" 
d="M1004 738h631q-29 -279 -150 -457q-101 -149 -258 -230q-158 -81 -343 -81q-319 0 -529 214q-209 215 -209 541q0 184 74 364q74 176 200 292q215 194 520 194q423 0 659 -359l-119 -105q-186 302 -544 302q-268 0 -443 -195q-174 -194 -174 -493q0 -260 161 -427
t412 -167q212 0 357 118q144 117 194 332h-459z" />
    <glyph glyph-name="H" unicode="H" horiz-adv-x="1505" 
d="M1421 1544l-190 -1544h-170l95 769h-747l-95 -769h-170l190 1544h170l-76 -618h747l76 618h170z" />
    <glyph glyph-name="I" unicode="I" horiz-adv-x="588" 
d="M504 1544l-190 -1544h-170l190 1544h170z" />
    <glyph glyph-name="J" unicode="J" horiz-adv-x="831" 
d="M748 1544l-132 -1073q-33 -264 -86 -354q-92 -147 -270 -147q-175 0 -292 162l104 121q48 -69 87 -96q41 -26 93 -26q88 0 129 71t65 269l132 1073h170z" />
    <glyph glyph-name="K" unicode="K" horiz-adv-x="1317" 
d="M504 1544l-82 -671l690 671h222l-763 -727l658 -817h-215l-606 761l-94 -761h-170l190 1544h170z" />
    <glyph glyph-name="L" unicode="L" horiz-adv-x="889" 
d="M504 1544l-170 -1386h471l-20 -158h-641l190 1544h170z" />
    <glyph glyph-name="M" unicode="M" horiz-adv-x="2056" 
d="M43 0l643 1641l339 -1304l668 1314l221 -1651h-170l-149 1136l-621 -1204l-311 1199l-441 -1131h-179z" />
    <glyph glyph-name="N" unicode="N" horiz-adv-x="1718" 
d="M1635 1544l-199 -1619l-974 1272l-148 -1197h-170l199 1611l974 -1271l148 1204h170z" />
    <glyph glyph-name="O" unicode="O" horiz-adv-x="1819" 
d="M1733 811q0 -268 -143 -489q-109 -169 -284 -261q-175 -91 -388 -91q-341 0 -555 214q-215 215 -215 553q0 361 232 599q233 239 584 239q341 0 556 -212q213 -212 213 -552zM1560 812q0 273 -161 437t-430 164q-229 0 -397 -129q-59 -46 -104.5 -104.5t-79.5 -130.5
q-67 -143 -67 -305q0 -267 170 -440t431 -173q273 0 455 194q183 195 183 487z" />
    <glyph glyph-name="P" unicode="P" horiz-adv-x="1113" 
d="M335 1544h292q227 0 344.5 -104t117.5 -304q0 -245 -182 -376q-119 -87 -354 -87h-156l-83 -673h-170zM485 1387l-68 -556h148q199 0 283 103q68 86 68 199q0 254 -292 254h-139z" />
    <glyph glyph-name="Q" unicode="Q" horiz-adv-x="1815" 
d="M1658 -62h-199l-133 142q-197 -110 -407 -110q-294 0 -509 173q-125 104 -194 258q-68 159 -68 338q0 326 197 562q229 274 621 274q336 0 549 -213q214 -213 214 -550q0 -385 -282 -647zM955 482h195l193 -205q213 199 213 527q0 275 -163 441q-162 168 -426 168
q-319 0 -499 -231q-147 -188 -147 -441q0 -267 168 -439q169 -171 430 -171q147 0 297 68z" />
    <glyph glyph-name="R" unicode="R" horiz-adv-x="1188" 
d="M631 694l423 -694h-190l-404 684h-62l-84 -684h-170l191 1544h252q245 0 354 -106q118 -114 118 -299q0 -187 -115 -305q-116 -119 -313 -140zM485 1387l-69 -564h96q213 0 299 101q75 88 75 213q0 250 -302 250h-99z" />
    <glyph glyph-name="S" unicode="S" horiz-adv-x="1117" 
d="M1076 1327l-119 -105q-99 191 -275 191q-111 0 -187 -73q-76 -72 -76 -178q0 -85 49 -143q49 -59 195 -147q198 -117 269 -216q72 -96 72 -243q0 -193 -131 -318t-331 -125q-323 0 -470 330l135 79q54 -130 132.5 -189t198.5 -59q130 0 211 82q82 82 82 215q0 94 -54 159
q-53 64 -211 159q-183 111 -250 198q-66 88 -66 220q0 181 121 296q122 116 312 116q253 0 393 -249z" />
    <glyph glyph-name="T" unicode="T" horiz-adv-x="971" 
d="M684 1387l-172 -1387h-170l172 1387h-385l19 157h925l-19 -157h-370z" />
    <glyph glyph-name="U" unicode="U" horiz-adv-x="1527" 
d="M1453 1544l-117 -947q-32 -257 -111 -381q-158 -246 -467 -246q-241 0 -391 132q-150 133 -150 346q0 39 2.5 78.5t7.5 79.5l115 938h170l-117 -955q-4 -32 -6 -62.5t-2 -61.5q0 -154 98 -244q97 -90 264 -90q158 0 265 95q66 58 100 146q36 89 54 241l115 931h170z" />
    <glyph glyph-name="V" unicode="V" horiz-adv-x="1293" 
d="M1394 1544l-837 -1595l-409 1595h173l290 -1171l595 1171h188z" />
    <glyph glyph-name="W" unicode="W" horiz-adv-x="2118" 
d="M148 1544h175l288 -1161l576 1205l297 -1201l549 1157h186l-785 -1613l-294 1201l-586 -1201z" />
    <glyph glyph-name="X" unicode="X" horiz-adv-x="1168" 
d="M716 800l357 -800h-186l-279 642l-441 -642h-200l565 813l-324 731h182l249 -573l390 573h205z" />
    <glyph glyph-name="Y" unicode="Y" horiz-adv-x="1204" 
d="M701 686l-86 -686h-169l87 703l-401 841h186l319 -678l469 678h199z" />
    <glyph glyph-name="Z" unicode="Z" horiz-adv-x="1267" 
d="M1124 158l-21 -158h-1098l1023 1387h-742l19 157h1033l-1022 -1386h808z" />
    <glyph glyph-name="bracketleft" unicode="[" horiz-adv-x="737" 
d="M86 -407l257 2096h459l-17 -140h-292l-223 -1816h292l-17 -140h-459z" />
    <glyph glyph-name="backslash" unicode="\" horiz-adv-x="902" 
d="M729 -378l-153 -38l-406 2084l155 31z" />
    <glyph glyph-name="bracketright" unicode="]" horiz-adv-x="737" 
d="M678 1689l-257 -2096h-458l17 140h291l223 1816h-292l17 140h459z" />
    <glyph glyph-name="asciicircum" unicode="^" horiz-adv-x="1158" 
d="M271 843h-187l408 706h229l408 -706h-189l-335 568z" />
    <glyph glyph-name="underscore" unicode="_" horiz-adv-x="1158" 
d="M28 -148h1158v-160h-1158v160z" />
    <glyph glyph-name="grave" unicode="`" horiz-adv-x="1158" 
d="M405 1389l143 88l173 -324l-100 -57z" />
    <glyph glyph-name="a" unicode="a" horiz-adv-x="1212" 
d="M1105 935l-116 -935h-162l17 131q-87 -87 -158 -120t-167 -33q-193 0 -314 126q-121 127 -121 327q0 230 139 378q140 149 355 149q114 0 190 -40q80 -39 156 -136l18 153h163zM897 503q0 135 -86 221t-220 86q-144 0 -242 -107t-98 -265q0 -136 85 -224q86 -89 213 -89
q141 0 244 112q104 113 104 266z" />
    <glyph glyph-name="b" unicode="b" horiz-adv-x="1225" 
d="M463 1689l-108 -875q89 81 161 112q76 32 168 32q194 0 318 -130q126 -129 126 -328q0 -220 -144 -371q-142 -151 -350 -151q-117 0 -197 40q-81 41 -162 140l-20 -158h-162l208 1689h162zM961 491q0 140 -87 229q-86 90 -223 90q-146 0 -247 -107q-100 -106 -100 -264
q0 -137 88 -225q89 -89 222 -89q140 0 244 108q103 109 103 258z" />
    <glyph glyph-name="c" unicode="c" horiz-adv-x="953" 
d="M911 840l-22 -176q-133 154 -297 154q-149 0 -245 -106q-96 -105 -96 -268q0 -146 90 -237q90 -90 236 -90q131 0 259 107l-23 -183q-125 -71 -260 -71q-204 0 -338 131q-131 134 -131 339q0 228 142 376q142 150 357 150q176 0 328 -126z" />
    <glyph glyph-name="d" unicode="d" horiz-adv-x="1230" 
d="M1215 1689l-208 -1689h-162l16 125q-87 -84 -155 -116q-65 -31 -165 -31q-197 0 -326 129q-129 130 -129 330q0 223 142 371q142 150 353 150q113 0 193 -44q82 -43 165 -149l114 924h162zM906 508q0 133 -87 217q-85 85 -223 85q-147 0 -245 -107t-98 -266
q0 -135 86 -224q87 -88 222 -88q175 0 272 148q73 112 73 235z" />
    <glyph glyph-name="e" unicode="e" horiz-adv-x="1086" 
d="M251 429q0 -144 81 -228q82 -84 222 -84q159 0 260 125l126 -73q-145 -199 -388 -199q-209 0 -340 125q-128 126 -128 334q0 230 138 383q138 154 346 154q127 0 228 -62q102 -63 154 -172q51 -107 51 -303h-750zM835 563q-5 60 -26.5 107t-56.5 80t-83.5 50.5
t-107.5 17.5q-235 0 -296 -255h570z" />
    <glyph glyph-name="f" unicode="f" horiz-adv-x="529" 
d="M353 801l-99 -801h-162l99 801h-127l18 145h127l55 454q20 159 86 233.5t189 74.5q64 0 142 -37l-18 -148q-52 37 -102 37q-66 0 -96 -45t-45 -163l-49 -406h186l-18 -145h-186z" />
    <glyph glyph-name="g" unicode="g" horiz-adv-x="1223" 
d="M1115 935l-116 -949q-21 -174 -55 -259q-33 -89 -102 -153q-128 -120 -339 -120q-207 0 -331 112q-117 103 -117 306h154q7 -139 76.5 -204.5t209.5 -65.5q157 0 235 82q80 81 102 268l20 162q-85 -75 -158 -106q-71 -30 -163 -30q-192 0 -319 130t-127 327
q0 222 144 372q144 151 357 151q110 0 186 -40q76 -39 162 -137l19 154h162zM914 492q0 143 -87 230q-85 88 -227 88q-149 0 -249 -105q-100 -103 -100 -263q0 -136 89 -228q89 -89 225 -89q144 0 246 107q103 106 103 260z" />
    <glyph glyph-name="h" unicode="h" horiz-adv-x="1071" 
d="M463 1689l-106 -859q40 37 74 62t63 39q58 27 142 27q129 0 212 -71q81 -71 81 -186q0 -26 -3 -60t-8 -76l-69 -565h-162l69 566q4 27 5.5 50.5t1.5 43.5q0 150 -167 150q-102 0 -179 -65q-44 -38 -66 -88q-21 -50 -33 -147l-63 -510h-162l208 1689h162z" />
    <glyph glyph-name="i" unicode="i" horiz-adv-x="477" 
d="M438 1347q0 -43 -30 -74t-71 -31q-20 0 -37.5 8t-30 21.5t-20 31.5t-7.5 39q0 42 29 74q30 31 71 31q20 0 37.5 -8t30.5 -21.5t20.5 -31.5t7.5 -39zM370 935l-116 -935h-162l116 935h162z" />
    <glyph glyph-name="j" unicode="j" horiz-adv-x="477" 
d="M438 1348q0 -43 -31 -74q-30 -31 -71 -31q-40 0 -67.5 28.5t-27.5 71.5q0 21 8 40t21.5 33.5t32 22.5t39.5 8q20 0 37.5 -7.5t30.5 -21t20.5 -31.5t7.5 -39zM369 935l-181 -1474h-162l181 1474h162z" />
    <glyph glyph-name="k" unicode="k" horiz-adv-x="999" 
d="M463 1689l-139 -1133l433 379h225l-512 -430l461 -505h-212l-407 458l-57 -458h-162l208 1689h162z" />
    <glyph glyph-name="l" unicode="l" horiz-adv-x="477" 
d="M463 1689l-208 -1689h-162l208 1689h162z" />
    <glyph glyph-name="m" unicode="m" horiz-adv-x="1569" 
d="M374 935l-14 -114q76 77 136 108q60 30 138 30q45 0 80 -9t63 -29t49 -51t38 -76q79 94 143 128q64 36 152 36q127 0 198 -67.5t71 -188.5q0 -47 -12 -141l-69 -561h-162l70 571q4 31 6 56.5t2 45.5q0 137 -146 137q-100 0 -170 -70q-60 -57 -77 -201l-67 -539h-162
l69 557q5 42 7.5 70t2.5 45q0 138 -147 138q-218 0 -253 -281l-65 -529h-162l115 935h166z" />
    <glyph glyph-name="n" unicode="n" horiz-adv-x="1075" 
d="M370 935l-14 -116q43 42 79.5 69t66.5 41q61 30 144 30q128 0 205 -75q78 -75 78 -199q0 -31 -3 -72t-10 -93l-64 -520h-162l67 546q5 38 7.5 66t2.5 48q0 150 -163 150q-100 0 -178 -63q-51 -41 -74 -95q-23 -53 -36 -161l-61 -491h-162l115 935h162z" />
    <glyph glyph-name="o" unicode="o" horiz-adv-x="1189" 
d="M1090 475q0 -214 -146 -360q-145 -145 -361 -145q-213 0 -356 137q-141 138 -141 346q0 215 150 364q152 149 369 149q212 0 349 -138q136 -136 136 -353zM923 479q0 149 -90 244q-89 95 -233 95q-147 0 -248 -104q-99 -104 -99 -256q0 -147 94 -244t239 -97
q146 0 241 102q96 103 96 260z" />
    <glyph glyph-name="p" unicode="p" horiz-adv-x="1221" 
d="M369 935l-15 -126q92 86 161 117q73 32 168 32q189 0 314 -131q126 -131 126 -326q0 -221 -145 -372q-144 -151 -352 -151q-113 0 -189 39q-78 41 -163 146l-86 -702h-162l181 1474h162zM957 484q0 144 -85 235q-84 91 -218 91q-150 0 -250 -108q-101 -107 -101 -266
q0 -136 88 -224q88 -87 225 -87q145 0 242 103q99 103 99 256z" />
    <glyph glyph-name="q" unicode="q" horiz-adv-x="1228" 
d="M1121 935l-181 -1474h-162l81 658q-84 -78 -161 -110q-71 -31 -172 -31q-190 0 -316 131q-126 132 -126 330q0 219 144 369q145 150 356 150q116 0 196 -42q79 -41 159 -144l20 163h162zM911 499q0 136 -88 223q-88 88 -225 88q-147 0 -247 -108q-100 -106 -100 -264
q0 -136 87 -224q87 -89 220 -89q146 0 249 109q104 110 104 265z" />
    <glyph glyph-name="r" unicode="r" horiz-adv-x="729" 
d="M370 935l-13 -106q35 37 66.5 62t58.5 39q55 28 124 28q74 0 151 -54l-99 -134q-61 34 -112 34q-192 0 -231 -322l-60 -482h-162l115 935h162z" />
    <glyph glyph-name="s" unicode="s" horiz-adv-x="804" 
d="M733 848l-102 -101q-92 71 -178 71q-68 0 -111 -36q-44 -35 -44 -89q0 -48 33 -79t131 -78q132 -65 180 -123q49 -58 49 -155q0 -126 -95 -207t-239 -81q-206 0 -321 198l123 77q77 -128 198 -128q75 0 120.5 38t45.5 101q0 54 -32 84t-147 84q-57 27 -97.5 55t-66 59.5
t-37.5 67.5t-12 80q0 121 91 200q92 80 231 80q156 0 280 -118z" />
    <glyph glyph-name="t" unicode="t" horiz-adv-x="532" 
d="M366 800l-99 -800h-162l98 800h-116l18 145h116l48 386h162l-48 -386h185l-17 -145h-185z" />
    <glyph glyph-name="u" unicode="u" horiz-adv-x="1075" 
d="M968 935l-67 -550q-8 -67 -19 -116.5t-24 -81.5q-27 -66 -86 -116q-110 -93 -280 -93q-164 0 -260 84q-95 86 -95 232q0 28 2 58t6 63l64 520h162l-66 -537q-4 -29 -5.5 -54t-1.5 -47q0 -39 14 -71t40.5 -54.5t63.5 -34.5t83 -12q113 0 167 56q55 56 71 192l69 562h162z
" />
    <glyph glyph-name="v" unicode="v" horiz-adv-x="933" 
d="M968 935l-604 -1029l-314 1029h170l190 -661l375 661h183z" />
    <glyph glyph-name="w" unicode="w" horiz-adv-x="1490" 
d="M1525 935l-579 -1013l-204 673l-376 -673l-316 1013h172l191 -646l373 666l201 -666l354 646h184z" />
    <glyph glyph-name="x" unicode="x" horiz-adv-x="962" 
d="M579 488l315 -488h-192l-233 378l-323 -378h-207l443 502l-278 433h189l199 -325l272 325h206z" />
    <glyph glyph-name="y" unicode="y" horiz-adv-x="981" 
d="M1015 935l-828 -1464h-185l354 617l-306 847h173l232 -668l377 668h183z" />
    <glyph glyph-name="z" unicode="z" horiz-adv-x="1018" 
d="M919 145l-18 -145h-912l701 790h-531l18 145h834l-703 -790h611z" />
    <glyph glyph-name="braceleft" unicode="{" horiz-adv-x="675" 
d="M292 639q109 -61 109 -189q0 -17 -1 -34.5t-3 -34.5l-52 -418q-4 -30 -5.5 -57t-1.5 -51q0 -66 36 -91q34 -25 132 -25l-18 -145h-66q-129 -1 -188.5 59.5t-59.5 192.5q0 28 2 58t6 62l44 364q6 43 6 78q0 134 -108 169l17 136q73 19 110 67t48 138l55 454q21 168 98 242
q78 75 233 75l60 -1l-18 -145h-21q-100 0 -136 -39q-36 -38 -51 -162l-53 -433q-14 -112 -51 -170q-39 -57 -123 -100z" />
    <glyph glyph-name="bar" unicode="|" horiz-adv-x="1158" 
d="M520 1544h174v-1929h-174v1929z" />
    <glyph glyph-name="braceright" unicode="}" horiz-adv-x="675" 
d="M410 642q-108 61 -108 189q0 17 1 34.5t3 34.5l51 419q4 31 6 58t2 50q0 66 -37 91q-34 25 -132 25l18 146h66q129 0 189 -60t60 -190q0 -29 -2 -59.5t-6 -62.5l-45 -365q-2 -22 -3.5 -41.5t-1.5 -36.5q0 -134 107 -169l-16 -137q-74 -19 -110.5 -66.5t-47.5 -138.5
l-56 -452q-21 -168 -99 -243q-77 -75 -231 -75l-60 1l18 146l21 -1q99 0 135 39t51 163l53 432q13 112 51 169q37 58 123 100z" />
    <glyph glyph-name="asciitilde" unicode="~" horiz-adv-x="1544" 
d="M343 1348l-100 65q74 151 143 208q71 59 174 59q90 0 260 -79q159 -72 224 -72q68 0 111 34q47 34 99 122l102 -61q-129 -261 -334 -261q-79 0 -192 52l-131 59q-96 41 -151 41q-113 0 -205 -167z" />
    <glyph glyph-name="Euro" unicode="&#x20ac;" 
d="M1139 1570l-20 -162q-257 0 -464 -189q-117 -108 -178 -237h470l-17 -131h-675q61 276 294 483q266 236 590 236zM962 134l-18 -161q-328 0 -536 234q-174 196 -174 469h675l-16 -131h-468q34 -142 145 -250q167 -161 392 -161z" />
    <glyph glyph-name="quotesinglbase" unicode="&#x201a;" horiz-adv-x="581" 
d="M415 186l-289 -470l-96 52l260 487z" />
    <glyph glyph-name="florin" unicode="&#x192;" horiz-adv-x="1313" 
d="M796 1026h248l-19 -120h-252l-139 -697q-57 -282 -124 -373q-96 -128 -285 -128q-60 0 -127 19l28 141q51 -13 98 -13q108 0 161 75q53 74 94 284l137 692h-167l19 120h172l71 354q36 178 114 256t220 78q55 0 130 -23l-28 -142q-54 21 -100 21q-82 0 -120 -47t-66 -187z
" />
    <glyph glyph-name="quotedblbase" unicode="&#x201e;" horiz-adv-x="879" 
d="M384 186l-289 -470l-95 52l259 487zM698 186l-289 -470l-96 52l259 487z" />
    <glyph glyph-name="ellipsis" unicode="&#x2026;" horiz-adv-x="1529" 
d="M312 89q0 -45 -34 -76q-31 -31 -78 -31q-45 0 -75.5 31t-30.5 79q0 23 8 43t22.5 34.5t33.5 23t42 8.5q24 0 44.5 -8.5t35.5 -23.5t23.5 -35.5t8.5 -44.5zM821 89q0 -45 -33 -76q-31 -31 -78 -31q-45 0 -75.5 31t-30.5 79q0 23 8 43t22.5 34.5t33.5 23t41 8.5
q24 0 44.5 -8.5t35.5 -23.5t23.5 -35.5t8.5 -44.5zM1331 89q0 -45 -33 -76q-31 -31 -78 -31q-45 0 -76 31t-31 79q0 23 8 43t22.5 34.5t33.5 23t42 8.5q24 0 44.5 -8.5t35.5 -23.5t23.5 -35.5t8.5 -44.5z" />
    <glyph glyph-name="dagger" unicode="&#x2020;" horiz-adv-x="1313" 
d="M881 1689l-50 -403h373l-19 -154h-373l-189 -1539h-161l189 1539h-375l19 154h375l49 403h162z" />
    <glyph glyph-name="daggerdbl" unicode="&#x2021;" horiz-adv-x="1313" 
d="M881 1689l-49 -403h372l-19 -154h-372l-90 -727h373l-19 -155h-373l-80 -657h-162l81 657h-375l19 155h375l89 727h-375l19 154h375l50 403h161z" />
    <glyph glyph-name="circumflex" unicode="&#x2c6;" horiz-adv-x="1158" 
d="M689 1314l-235 -218l-80 85l337 305l229 -306l-87 -82z" />
    <glyph glyph-name="perthousand" unicode="&#x2030;" horiz-adv-x="2430" 
d="M738 1217q0 -189 -92 -320q-92 -129 -227 -129q-124 0 -197 96q-73 94 -73 256q0 187 93 315q94 129 229 129q119 0 192 -97q75 -98 75 -250zM622 1219q0 106 -42 171q-42 64 -112 64q-84 0 -144 -102q-59 -104 -59 -244q0 -103 42 -167q43 -63 112 -63q83 0 143 101
q60 100 60 240zM271 36l1134 1531l81 -61l-1135 -1528zM1607 428q0 -191 -92 -319t-227 -128q-122 0 -196 95q-74 98 -74 255q0 188 93 316q94 129 230 129q119 0 192 -97q74 -98 74 -251zM1492 431q0 54 -11 97t-31 73.5t-48.5 47t-64.5 16.5q-83 0 -143 -102
q-60 -101 -60 -243q0 -103 42 -167q43 -63 112 -63q83 0 143 101q61 100 61 240zM2339 428q0 -191 -92 -319t-227 -128q-123 0 -197 95q-73 94 -73 255q0 188 93 316q94 129 230 129q119 0 192 -97q74 -98 74 -251zM2224 431q0 54 -11 97t-31 73.5t-48.5 47t-64.5 16.5
q-83 0 -143 -102q-60 -101 -60 -243q0 -103 42 -167q43 -63 112 -63q83 0 143 101q61 100 61 240z" />
    <glyph glyph-name="Scaron" unicode="&#x160;" horiz-adv-x="1117" 
d="M1076 1327l-119 -105q-99 191 -275 191q-111 0 -187 -73q-76 -72 -76 -178q0 -85 49 -143q49 -59 195 -147q198 -117 269 -216q72 -96 72 -243q0 -193 -131 -318t-331 -125q-323 0 -470 330l135 79q54 -130 132.5 -189t198.5 -59q130 0 211 82q82 82 82 215q0 94 -54 159
q-53 64 -211 159q-183 111 -250 198q-66 88 -66 220q0 181 121 296q122 116 312 116q253 0 393 -249zM725 1844l259 198l87 -84l-368 -283l-260 283l95 82z" />
    <glyph glyph-name="guilsinglleft" unicode="&#x2039;" horiz-adv-x="560" 
d="M324 56l-244 429l333 416l92 -74l-282 -351l201 -362z" />
    <glyph glyph-name="OE" unicode="&#x152;" horiz-adv-x="2430" 
d="M2434 1544l-18 -157h-600l-59 -476h604l-19 -157h-604l-73 -596h604l-20 -158h-776l32 252q-149 -158 -280 -220q-133 -62 -315 -62q-327 0 -545 218t-218 545q0 328 207 570q235 274 608 274q229 0 402 -104q135 -82 257 -276l43 347h770zM1565 796q0 309 -193 472
q-172 148 -413 148q-271 0 -456 -200q-183 -200 -183 -494q0 -259 169 -425q170 -167 433 -167q275 0 459 190t184 476z" />
    <glyph glyph-name="Zcaron" unicode="&#x17d;" horiz-adv-x="1267" 
d="M1124 158l-21 -158h-1098l1023 1387h-742l19 157h1033l-1022 -1386h808zM831 1844l258 198l88 -84l-368 -283l-260 283l95 82z" />
    <glyph glyph-name="quoteleft" unicode="&#x2018;" horiz-adv-x="581" 
d="M202 1164l289 472l96 -53l-259 -488z" />
    <glyph glyph-name="quoteright" unicode="&#x2019;" horiz-adv-x="581" 
d="M585 1567l-288 -471l-97 52l260 488z" />
    <glyph glyph-name="quotedblleft" unicode="&#x201c;" horiz-adv-x="895" 
d="M516 1164l289 472l96 -53l-260 -488zM202 1164l289 472l96 -53l-259 -488z" />
    <glyph glyph-name="quotedblright" unicode="&#x201d;" horiz-adv-x="895" 
d="M585 1567l-288 -471l-97 52l260 488zM899 1567l-289 -471l-96 52l260 488z" />
    <glyph glyph-name="bullet" unicode="&#x2022;" horiz-adv-x="1544" 
d="M805 1112q128 0 220 -96q93 -95 93 -228q0 -136 -93 -230q-93 -95 -225 -95q-130 0 -225 95q-93 96 -93 229q0 136 94 230q95 95 229 95z" />
    <glyph glyph-name="endash" unicode="&#x2013;" horiz-adv-x="1313" 
d="M1040 556l-18 -142h-759l18 142h759z" />
    <glyph glyph-name="emdash" unicode="&#x2014;" horiz-adv-x="1254" 
d="M1258 556l-18 -143h-1253l17 143h1254z" />
    <glyph glyph-name="tilde" unicode="&#x2dc;" horiz-adv-x="1158" 
d="M964 1328q-89 -162 -195 -162q-54 0 -151 64q-50 32 -73 32q-43 0 -89 -94l-94 55q92 164 187 164q53 0 144 -61q55 -36 77 -36q45 0 99 92z" />
    <glyph glyph-name="trademark" unicode="&#x2122;" horiz-adv-x="1785" 
d="M472 1427l-94 -763h-132l94 763h-231l14 117h586l-14 -117h-223zM613 664l401 964l213 -723l397 729l152 -970h-134l-91 594l-362 -656l-192 653l-245 -591h-139z" />
    <glyph glyph-name="scaron" unicode="&#x161;" horiz-adv-x="804" 
d="M733 848l-102 -101q-92 71 -178 71q-68 0 -111 -36q-44 -35 -44 -89q0 -48 33 -79t131 -78q132 -65 180 -123q49 -58 49 -155q0 -126 -95 -207t-239 -81q-206 0 -321 198l123 77q77 -128 198 -128q75 0 120.5 38t45.5 101q0 54 -32 84t-147 84q-57 27 -97.5 55t-66 59.5
t-37.5 67.5t-12 80q0 121 91 200q92 80 231 80q156 0 280 -118zM490 1269l234 217l80 -84l-337 -306l-229 306l87 83z" />
    <glyph glyph-name="guilsinglright" unicode="&#x203a;" horiz-adv-x="560" 
d="M226 914l243 -430l-333 -416l-92 75l283 350l-202 363z" />
    <glyph glyph-name="oe" unicode="&#x153;" horiz-adv-x="1945" 
d="M1109 426q0 -145 82 -227t224 -82q164 0 260 140l128 -80q-155 -207 -389 -207q-273 0 -403 226q-148 -226 -420 -226q-219 0 -361 139q-143 140 -143 351q0 218 148 362t372 144q289 0 429 -239q146 239 401 239q194 0 309 -130q115 -127 115 -347l-1 -63h-751zM951 481
q0 149 -97 243t-250 94q-152 0 -251 -102t-99 -259q0 -146 95 -244q94 -96 242 -96q152 0 256 105q104 107 104 259zM1120 560h584q-8 126 -77.5 192t-195.5 66q-124 0 -204 -66t-107 -192z" />
    <glyph glyph-name="zcaron" unicode="&#x17e;" horiz-adv-x="1018" 
d="M919 145l-18 -145h-912l701 790h-531l18 145h834l-703 -790h611zM605 1269l234 217l80 -84l-337 -306l-229 306l87 83z" />
    <glyph glyph-name="Ydieresis" unicode="&#x178;" horiz-adv-x="1204" 
d="M701 686l-86 -686h-169l87 703l-401 841h186l319 -678l469 678h199zM653 1841q0 -45 -33 -79q-32 -33 -76 -33q-21 0 -40 8.5t-33 23t-22 34t-8 42.5q0 22 8.5 42t23.5 35t35 23.5t43 8.5q21 0 39.5 -8t32.5 -22.5t22 -33.5t8 -41zM1043 1842q0 -45 -33 -79
q-32 -33 -76 -33q-21 0 -40 8.5t-33 22.5t-22 33.5t-8 42.5t8.5 43t23.5 35t35 23.5t43 8.5q21 0 39.5 -8t32.5 -22.5t22 -33.5t8 -41z" />
    <glyph glyph-name="nonbreakingspace" unicode="&#xa0;" horiz-adv-x="632" 
 />
    <glyph glyph-name="exclamdown" unicode="&#xa1;" horiz-adv-x="619" 
d="M269 1096q0 23 8.5 43t23.5 35t34.5 23.5t42.5 8.5q48 0 78.5 -32t30.5 -80q0 -23 -8.5 -43t-23.5 -35t-35 -23.5t-43 -8.5t-42.5 8.5t-34 23.5t-23 35.5t-8.5 44.5zM118 -360l148 1203h170l-148 -1203h-170z" />
    <glyph glyph-name="cent" unicode="&#xa2;" 
d="M588 303q-164 43 -256 165q-91 121 -91 293q0 216 132 365q133 148 335 159l27 218h119l-28 -227q122 -21 238 -117l-20 -168q-98 121 -234 156l-89 -726q136 0 267 119l-22 -179q-125 -71 -261 -71l-30 -249h-120zM605 445l86 704q-287 -78 -287 -387q0 -125 46 -195
q45 -72 155 -122z" />
    <glyph glyph-name="sterling" unicode="&#xa3;" 
d="M1111 253l89 -122q-169 -157 -349 -157q-93 0 -225 48l-130 48q-120 45 -193 45q-122 0 -243 -142l-99 111q121 142 270 176q79 133 79 264q0 29 -6 89h-243l15 122h213q-10 66 -15 122.5t-5 107.5q0 284 139 444q139 162 384 162q210 0 332 -128t136 -361l-159 -46
q0 176 -87 281q-87 106 -233 106q-157 0 -254 -118q-96 -117 -96 -307q0 -40 4.5 -91t12.5 -115l7 -53h401l-15 -122h-372l1 -57q0 -141 -77 -303q39 -5 92 -22t122 -45q166 -69 244 -69q128 0 241 113z" />
    <glyph glyph-name="currency" unicode="&#xa4;" 
d="M28 282l219 219q-120 172 -120 334q0 159 117 329l-221 221l89 90l221 -221q54 36 97.5 60t78.5 37q66 25 162 25t162 -25q36 -13 78.5 -36.5t93.5 -58.5l219 218l89 -89l-218 -218q67 -101 92 -172q26 -73 26 -162q0 -92 -25 -160q-13 -35 -35.5 -76.5t-56.5 -92.5
l221 -221l-88 -90l-221 221q-49 -34 -91.5 -57.5t-79.5 -36.5q-75 -26 -164 -26q-156 0 -337 117l-219 -218zM676 1233q-168 0 -285 -117q-117 -116 -117 -282q0 -162 116 -281q119 -116 280 -116q164 0 280 116q117 117 117 281q0 162 -116 281q-115 118 -275 118z" />
    <glyph glyph-name="yen" unicode="&#xa5;" 
d="M1176 555h-454l-68 -555h-170l69 555h-459l16 131h465l-92 201h-348l16 131h270l-251 526h186l319 -678l469 678h199l-370 -526h260l-16 -131h-337l-141 -201h454z" />
    <glyph glyph-name="brokenbar" unicode="&#xa6;" horiz-adv-x="1158" 
d="M520 1544h174v-772h-174v772zM520 355h174v-740h-174v740z" />
    <glyph glyph-name="section" unicode="&#xa7;" 
d="M164 35h167q0 -157 54 -228t174 -71q105 0 170 62q63 61 63 167q0 83 -45 136q-44 53 -166 111l-104 50q-244 117 -244 357q0 268 273 378q-95 74 -132 139q-36 64 -36 163q0 177 116 288q115 112 300 112q234 0 338 -191q50 -95 50 -267h-167q0 297 -224 297
q-108 0 -175 -66t-67 -170q0 -85 44 -135q46 -48 188 -115q72 -34 122.5 -63t79.5 -54q127 -109 127 -290q0 -255 -272 -374q171 -120 171 -305q0 -168 -113 -275t-290 -107q-232 0 -340 169q-62 98 -62 282zM409 636q0 -102 68 -176q69 -71 168 -71q105 0 175 73
q72 73 72 178q0 100 -68 171q-67 70 -168 70q-103 0 -175 -72q-72 -71 -72 -173z" />
    <glyph glyph-name="dieresis" unicode="&#xa8;" horiz-adv-x="1158" 
d="M575 1261q0 -21 -7.5 -39.5t-21 -32.5t-31.5 -22t-39 -8q-40 0 -68 28.5t-28 71.5q0 22 8 41.5t22 33.5t33 22.5t40 8.5q19 0 36 -8t29.5 -22t19.5 -33t7 -41zM935 1261q0 -21 -7.5 -39.5t-21 -32.5t-31.5 -22t-39 -8q-40 0 -68 28.5t-28 71.5q0 22 8 41.5t22 33.5
t33 22.5t40 8.5q19 0 36 -8t29.5 -22t19.5 -33t7 -41z" />
    <glyph glyph-name="copyright" unicode="&#xa9;" horiz-adv-x="1699" 
d="M1241 1132l-19 -159l-24 26q-113 129 -305 129q-159 0 -259 -106q-101 -107 -101 -270q0 -154 96 -245q94 -91 260 -91q90 0 146 22q58 22 138 88l-20 -165l-9 -4q-137 -66 -275 -66q-208 0 -342 128q-133 129 -133 333q0 216 142 358q143 143 357 143q191 0 348 -121z
M892 1571q320 0 553 -237q233 -236 233 -562q0 -330 -234 -564q-236 -233 -565 -233q-333 0 -565 234q-233 236 -233 569q0 330 236 561q235 232 575 232zM890 1441q-281 0 -481 -194q-198 -194 -198 -470q0 -281 195 -477q195 -197 473 -197q277 0 473 196t196 474
q0 272 -195 470q-194 198 -463 198z" />
    <glyph glyph-name="ordfeminine" unicode="&#xaa;" horiz-adv-x="829" 
d="M833 1544l-70 -573h-132l7 56q-86 -69 -181 -69q-128 0 -207 78q-80 78 -80 202q0 139 90 229q91 91 231 91q123 0 203 -81l8 67h131zM674 1275q0 72 -50 119t-128 47q-82 0 -137 -57q-55 -55 -55 -139q0 -74 49 -123q49 -48 124 -48q80 0 139 59q58 58 58 142z" />
    <glyph glyph-name="guillemotleft" unicode="&#xab;" horiz-adv-x="835" 
d="M324 56l-244 429l333 416l92 -74l-282 -351l201 -362zM593 55l-240 418l345 429l89 -75l-291 -359l199 -351z" />
    <glyph glyph-name="logicalnot" unicode="&#xac;" horiz-adv-x="1158" 
d="M935 0v456h-830v162h1004v-618h-174z" />
    <glyph glyph-name="sfthyphen" unicode="&#xad;" horiz-adv-x="418" 
d="M422 556l-18 -142h-417l17 142h418z" />
    <glyph glyph-name="registered" unicode="&#xae;" horiz-adv-x="1699" 
d="M899 714l268 -405h-157l-254 397h-15l-49 -397h-137l115 926h172q152 0 230 -63t78 -187q0 -108 -66.5 -179.5t-184.5 -91.5zM791 1113l-37 -296h45q212 0 212 163q0 133 -175 133h-45zM892 1571q320 0 553 -237q233 -236 233 -562q0 -330 -234 -564q-236 -233 -565 -233
q-333 0 -565 234q-233 236 -233 569q0 330 236 561q235 232 575 232zM890 1441q-281 0 -481 -194q-198 -194 -198 -470q0 -281 195 -477q195 -197 473 -197q277 0 473 196t196 474q0 272 -195 470q-194 198 -463 198z" />
    <glyph glyph-name="macron" unicode="&#xaf;" horiz-adv-x="1158" 
d="M382 1325h583l-15 -127h-584z" />
    <glyph glyph-name="macron" unicode="&#x2c9;" horiz-adv-x="1158" 
d="M382 1325h583l-15 -127h-584z" />
    <glyph glyph-name="degree" unicode="&#xb0;" horiz-adv-x="1313" 
d="M750 1567q125 0 215 -91q90 -90 90 -217q0 -128 -91 -219q-90 -90 -218 -90t-219 90q-90 91 -90 218q0 131 91 219q91 90 222 90zM748 1448q-81 0 -136 -55q-56 -56 -56 -134q0 -79 56 -135q55 -55 134 -55t134 55q56 56 56 135q0 77 -56 133t-132 56z" />
    <glyph glyph-name="plusminus" unicode="&#xb1;" 
d="M117 718v139h475v459h142v-459h475v-139h-475v-463h-142v463h-475zM117 24v138h1092v-138h-1092z" />
    <glyph glyph-name="twosuperior" unicode="&#xb2;" horiz-adv-x="896" 
d="M769 726l-13 -108h-642l403 403q54 53 88.5 91.5t50.5 64.5q32 50 32 108q0 37 -12.5 68t-35 52.5t-55 33.5t-71.5 12q-176 0 -190 -212h-118q10 159 89 240t224 81q132 0 211 -76q81 -75 81 -195q0 -76 -38 -144q-19 -32 -54 -73.5t-89 -94.5l-254 -251h393z" />
    <glyph glyph-name="threesuperior" unicode="&#xb3;" horiz-adv-x="896" 
d="M162 863h115q10 -153 172 -153q84 0 137 50q53 51 53 131q0 150 -194 159l13 104q13 -1 23.5 -1.5t19.5 -0.5q72 0 114 43t42 118q0 63 -41 100.5t-110 37.5q-132 0 -146 -146h-114q34 255 271 255q116 0 190 -68q73 -67 73 -178q0 -36 -11 -69.5t-31 -62t-48.5 -50
t-64.5 -34.5q137 -62 137 -211q0 -124 -89 -205q-89 -80 -227 -80q-126 0 -206 71q-78 72 -78 190z" />
    <glyph glyph-name="acute" unicode="&#xb4;" horiz-adv-x="1158" 
d="M995 1387l-321 -291l-87 58l270 323z" />
    <glyph glyph-name="mu" unicode="&#xb5;" horiz-adv-x="1075" 
d="M188 -539h-162l181 1474h162l-66 -537q-6 -57 -6 -101q0 -79 53.5 -125.5t147.5 -46.5q112 0 166 56q55 56 71 192l69 562h163l-68 -550q-8 -67 -19 -116.5t-24 -81.5q-27 -66 -86 -116q-111 -93 -276 -93q-143 0 -250 77z" />
    <glyph glyph-name="paragraph" unicode="&#xb6;" 
d="M401 -228l121 988h-32q-145 -1 -230 99q-86 101 -86 266q0 205 126.5 312t370.5 107h632l-90 -157h-109l-198 -1615h-142l198 1615h-221l-198 -1615h-142z" />
    <glyph glyph-name="glyph146" unicode="&#xb7;" horiz-adv-x="632" 
d="M201 774q0 46 33 79q34 33 81 33q24 0 45 -9t36.5 -24t24.5 -36t9 -45q0 -47 -34 -80q-33 -33 -80 -33q-24 0 -45 9t-36.5 24.5t-24.5 36.5t-9 45z" />
    <glyph glyph-name="cedilla" unicode="&#xb8;" horiz-adv-x="1158" 
d="M661 -192l-247 -281l-82 57l194 309z" />
    <glyph glyph-name="onesuperior" unicode="&#xb9;" horiz-adv-x="896" 
d="M645 1544l-114 -926h-122l101 818h-174l65 108h244z" />
    <glyph glyph-name="ordmasculine" unicode="&#xba;" horiz-adv-x="830" 
d="M504 953q-140 0 -233 84q-92 86 -92 213q0 132 97 222t241 90q137 0 226 -84t89 -213q0 -133 -94 -223q-95 -89 -234 -89zM698 1262q0 81 -53 132t-135 51q-84 0 -141 -54q-56 -54 -56 -135t55 -133q56 -53 139 -53q85 0 138 53q53 56 53 139z" />
    <glyph glyph-name="guillemotright" unicode="&#xbb;" horiz-adv-x="836" 
d="M502 914l244 -430l-334 -416l-92 75l283 350l-202 363zM233 915l239 -418l-345 -429l-89 75l292 359l-200 351z" />
    <glyph glyph-name="onequarter" unicode="&#xbc;" horiz-adv-x="2040" 
d="M622 1544l-114 -926h-122l101 818h-174l65 108h244zM434 35l1141 1540l91 -68l-1143 -1537zM1778 169l-21 -169h-122l21 169h-471l696 839l-90 -736h109l-13 -103h-109zM1668 272l48 389l-316 -389h268z" />
    <glyph glyph-name="onehalf" unicode="&#xbd;" horiz-adv-x="2040" 
d="M622 1544l-114 -926h-122l101 818h-174l65 108h244zM434 35l1141 1540l91 -68l-1143 -1537zM1860 108l-13 -108h-642l404 403q106 106 138 156t32 108q0 37 -12.5 68t-35 53t-55 34t-71.5 12q-177 0 -190 -213h-118q11 160 89.5 240.5t223.5 80.5q130 0 211 -75t81 -196
q0 -76 -38 -144q-19 -32 -54 -73.5t-89 -94.5l-254 -251h393z" />
    <glyph glyph-name="threequarters" unicode="&#xbe;" horiz-adv-x="2040" 
d="M138 863h115q10 -153 172 -153q84 0 137 50q53 51 53 131q0 150 -194 159l13 104q13 -1 23.5 -1.5t19.5 -0.5q72 0 114 43t42 118q0 63 -41 100.5t-110 37.5q-132 0 -146 -146h-114q34 255 271 255q116 0 190 -68q73 -67 73 -178q0 -36 -11 -69.5t-31 -62t-48.5 -50
t-64.5 -34.5q137 -62 137 -211q0 -124 -89 -205q-89 -80 -227 -80q-126 0 -206 71q-78 72 -78 190zM433 35l1141 1540l91 -68l-1142 -1537zM1778 169l-21 -169h-122l21 169h-471l696 839l-90 -736h109l-13 -103h-109zM1668 272l48 389l-316 -389h268z" />
    <glyph glyph-name="questiondown" unicode="&#xbf;" horiz-adv-x="1048" 
d="M473 1097q0 46 31 77q32 32 75 32q48 0 79.5 -31t31.5 -79q0 -24 -8.5 -44t-23 -35t-35 -23.5t-44.5 -8.5q-45 0 -75.5 32t-30.5 80zM334 543h-165q12 161 98.5 247t236.5 86q146 0 240 -91q96 -90 96 -227q0 -133 -82 -218q-42 -43 -108.5 -81.5t-160.5 -72.5
q-132 -46 -187 -98q-52 -49 -52 -128q0 -85 58 -140q59 -56 150 -56q211 0 211 278h159q0 -194 -74 -289q-105 -132 -298 -132q-166 0 -270 95q-103 94 -103 247q0 128 72 211q72 82 236 141q82 29 138 56.5t85 53.5q59 53 59 140q0 73 -48 118q-46 46 -123 46
q-158 0 -168 -186z" />
    <glyph glyph-name="Agrave" unicode="&#xc0;" horiz-adv-x="1428" 
d="M417 431l-225 -431h-187l859 1638l477 -1638h-176l-120 431h-628zM498 588h499l-175 632zM660 1959l143 82l165 -316l-99 -50z" />
    <glyph glyph-name="Aacute" unicode="&#xc1;" horiz-adv-x="1428" 
d="M417 431l-225 -431h-187l859 1638l477 -1638h-176l-120 431h-628zM498 588h499l-175 632zM1173 1950l-314 -275l-87 58l263 307z" />
    <glyph glyph-name="Acircumflex" unicode="&#xc2;" horiz-adv-x="1428" 
d="M417 431l-225 -431h-187l859 1638l477 -1638h-176l-120 431h-628zM498 588h499l-175 632zM898 1874l-259 -199l-87 85l367 282l261 -283l-95 -82z" />
    <glyph glyph-name="Atilde" unicode="&#xc3;" horiz-adv-x="1428" 
d="M417 431l-225 -431h-187l859 1638l477 -1638h-176l-120 431h-628zM498 588h499l-175 632zM1218 1904q-96 -162 -202 -162q-55 0 -185 67q-53 27 -77 27q-48 0 -95 -92l-100 55q98 164 195 164q50 0 179 -63q62 -31 86 -31q46 0 99 89z" />
    <glyph glyph-name="Adieresis" unicode="&#xc4;" horiz-adv-x="1428" 
d="M417 431l-225 -431h-187l859 1638l477 -1638h-176l-120 431h-628zM498 588h499l-175 632zM800 1841q0 -45 -33 -79q-32 -33 -76 -33q-21 0 -40 8.5t-33 23t-22 34t-8 42.5q0 22 8.5 42t23.5 35t35 23.5t43 8.5q21 0 40 -8t32.5 -22.5t21.5 -33.5t8 -41zM1190 1842
q0 -45 -33 -79q-32 -33 -76 -33q-21 0 -40 8.5t-33 22.5t-22 33.5t-8 42.5t8.5 43t23.5 35t35 23.5t43 8.5q21 0 40 -8t32.5 -22.5t21.5 -33.5t8 -41z" />
    <glyph glyph-name="Aring" unicode="&#xc5;" horiz-adv-x="1428" 
d="M417 431l-225 -431h-187l859 1638l477 -1638h-176l-120 431h-628zM498 588h499l-175 632zM1080 1870q0 -85 -61 -146q-60 -61 -145 -61t-146 60q-61 61 -61 147q0 85 60 145q61 61 147 61q87 0 146 -60q60 -59 60 -146zM968 1871q0 39 -27 66t-67 27q-20 0 -37 -7.5
t-29.5 -20t-20 -29.5t-7.5 -36q0 -20 7.5 -37t20.5 -30t30 -20.5t36 -7.5t36.5 7.5t30 20.5t20 30t7.5 37z" />
    <glyph glyph-name="AE" unicode="&#xc6;" horiz-adv-x="2094" 
d="M1556 1544l43 -157h-631l139 -473h631l46 -157h-630l176 -599h633l43 -158h-809l-124 437h-650l-242 -437h-191l856 1544h710zM512 594h513l-175 619z" />
    <glyph glyph-name="Ccedilla" unicode="&#xc7;" horiz-adv-x="1490" 
d="M1467 1378l-23 -195q-89 110 -222 170q-134 60 -286 60q-269 0 -441 -193q-173 -194 -173 -492q0 -276 160 -436q161 -161 431 -161q250 0 431 157l-25 -208q-218 -110 -432 -110q-327 0 -533 212q-205 211 -205 550q0 365 222 604t560 239q297 0 536 -197zM915 -192
l-248 -281l-89 57l194 309z" />
    <glyph glyph-name="Egrave" unicode="&#xc8;" horiz-adv-x="1082" 
d="M1091 1544l-20 -157h-586l-58 -471h587l-20 -158h-587l-73 -600h587l-20 -158h-757l190 1544h757zM532 1959l143 82l165 -316l-100 -50z" />
    <glyph glyph-name="Eacute" unicode="&#xc9;" horiz-adv-x="1082" 
d="M1091 1544l-20 -157h-586l-58 -471h587l-20 -158h-587l-73 -600h587l-20 -158h-757l190 1544h757zM1030 1950l-314 -275l-87 58l263 307z" />
    <glyph glyph-name="Ecircumflex" unicode="&#xca;" horiz-adv-x="1082" 
d="M1091 1544l-20 -157h-586l-58 -471h587l-20 -158h-587l-73 -600h587l-20 -158h-757l190 1544h757zM755 1874l-258 -199l-88 85l368 282l260 -283l-95 -82z" />
    <glyph glyph-name="Edieresis" unicode="&#xcb;" horiz-adv-x="1082" 
d="M1091 1544l-20 -157h-586l-58 -471h587l-20 -158h-587l-73 -600h587l-20 -158h-757l190 1544h757zM659 1841q0 -45 -33 -79q-32 -33 -76 -33q-21 0 -40 8.5t-33 23t-22 34t-8 42.5q0 22 8.5 42t23.5 35t35 23.5t43 8.5q21 0 39.5 -8t32.5 -22.5t22 -33.5t8 -41z
M1049 1842q0 -45 -33 -79q-32 -33 -76 -33q-21 0 -40 8.5t-33 22.5t-22 33.5t-8 42.5t8.5 43t23.5 35t35 23.5t43 8.5q21 0 39.5 -8t32.5 -22.5t22 -33.5t8 -41z" />
    <glyph glyph-name="Igrave" unicode="&#xcc;" horiz-adv-x="588" 
d="M504 1544l-190 -1544h-170l190 1544h170zM224 1959l144 82l165 -316l-100 -50z" />
    <glyph glyph-name="Iacute" unicode="&#xcd;" horiz-adv-x="588" 
d="M504 1544l-190 -1544h-170l190 1544h170zM729 1950l-298 -275l-87 58l247 307z" />
    <glyph glyph-name="Icircumflex" unicode="&#xce;" horiz-adv-x="588" 
d="M504 1544l-190 -1544h-170l190 1544h170zM469 1874l-219 -199l-84 85l325 282l222 -283l-95 -82z" />
    <glyph glyph-name="Idieresis" unicode="&#xcf;" horiz-adv-x="588" 
d="M504 1544l-190 -1544h-170l190 1544h170zM414 1841q0 -45 -33 -79q-32 -33 -76 -33q-21 0 -40 8.5t-33 23t-22 34t-8 42.5q0 22 8.5 42t23.5 35t35 23.5t43 8.5q21 0 40 -8t32.5 -22.5t21.5 -33.5t8 -41zM705 1842q0 -45 -33 -79q-32 -33 -76 -33q-21 0 -40 8.5t-33 22.5
t-22 33.5t-8 42.5t8.5 43t23.5 35t35 23.5t43 8.5q21 0 40 -8t32.5 -22.5t21.5 -33.5t8 -41z" />
    <glyph glyph-name="Eth" unicode="&#xd0;" horiz-adv-x="1471" 
d="M334 1544h310q285 0 425 -78q147 -85 232 -255q86 -174 86 -381q0 -233 -101 -430q-100 -196 -271 -298q-101 -60 -208 -81t-305 -21h-359l94 764h-154l19 155h155zM484 1387l-57 -468h386l-19 -155h-386l-75 -606h193q272 0 410 87q125 80 201 242q77 165 77 346
q0 165 -65 301q-65 134 -176 194q-110 59 -319 59h-170z" />
    <glyph glyph-name="Ntilde" unicode="&#xd1;" horiz-adv-x="1718" 
d="M1635 1544l-199 -1619l-974 1272l-148 -1197h-170l199 1611l974 -1271l148 1204h170zM1350 1904q-96 -162 -201 -162q-53 0 -186 67q-53 27 -76 27q-49 0 -96 -92l-100 55q99 164 196 164q50 0 179 -63q62 -31 86 -31q46 0 99 89z" />
    <glyph glyph-name="Ograve" unicode="&#xd2;" horiz-adv-x="1819" 
d="M1733 811q0 -268 -143 -489q-109 -169 -284 -261q-175 -91 -388 -91q-341 0 -555 214q-215 215 -215 553q0 361 232 599q233 239 584 239q341 0 556 -212q213 -212 213 -552zM1560 812q0 273 -161 437t-430 164q-229 0 -397 -129q-59 -46 -104.5 -104.5t-79.5 -130.5
q-67 -143 -67 -305q0 -267 170 -440t431 -173q273 0 455 194q183 195 183 487zM848 1959l143 82l165 -316l-99 -50z" />
    <glyph glyph-name="Oacute" unicode="&#xd3;" horiz-adv-x="1819" 
d="M1733 811q0 -268 -143 -489q-109 -169 -284 -261q-175 -91 -388 -91q-341 0 -555 214q-215 215 -215 553q0 361 232 599q233 239 584 239q341 0 556 -212q213 -212 213 -552zM1560 812q0 273 -161 437t-430 164q-229 0 -397 -129q-59 -46 -104.5 -104.5t-79.5 -130.5
q-67 -143 -67 -305q0 -267 170 -440t431 -173q273 0 455 194q183 195 183 487zM1345 1950l-314 -275l-87 58l263 307z" />
    <glyph glyph-name="Ocircumflex" unicode="&#xd4;" horiz-adv-x="1819" 
d="M1733 811q0 -268 -143 -489q-109 -169 -284 -261q-175 -91 -388 -91q-341 0 -555 214q-215 215 -215 553q0 361 232 599q233 239 584 239q341 0 556 -212q213 -212 213 -552zM1560 812q0 273 -161 437t-430 164q-229 0 -397 -129q-59 -46 -104.5 -104.5t-79.5 -130.5
q-67 -143 -67 -305q0 -267 170 -440t431 -173q273 0 455 194q183 195 183 487zM1077 1874l-258 -199l-88 85l368 282l260 -283l-95 -82z" />
    <glyph glyph-name="Otilde" unicode="&#xd5;" horiz-adv-x="1819" 
d="M1733 811q0 -268 -143 -489q-109 -169 -284 -261q-175 -91 -388 -91q-341 0 -555 214q-215 215 -215 553q0 361 232 599q233 239 584 239q341 0 556 -212q213 -212 213 -552zM1560 812q0 273 -161 437t-430 164q-229 0 -397 -129q-59 -46 -104.5 -104.5t-79.5 -130.5
q-67 -143 -67 -305q0 -267 170 -440t431 -173q273 0 455 194q183 195 183 487zM1401 1904q-96 -162 -201 -162q-55 0 -185 67q-53 27 -77 27q-50 0 -95 -92l-101 55q99 164 196 164q50 0 179 -63q62 -31 86 -31q46 0 99 89z" />
    <glyph glyph-name="Odieresis" unicode="&#xd6;" horiz-adv-x="1819" 
d="M1733 811q0 -268 -143 -489q-109 -169 -284 -261q-175 -91 -388 -91q-341 0 -555 214q-215 215 -215 553q0 361 232 599q233 239 584 239q341 0 556 -212q213 -212 213 -552zM1560 812q0 273 -161 437t-430 164q-229 0 -397 -129q-59 -46 -104.5 -104.5t-79.5 -130.5
q-67 -143 -67 -305q0 -267 170 -440t431 -173q273 0 455 194q183 195 183 487zM976 1841q0 -45 -33 -79q-32 -33 -76 -33q-21 0 -40 8.5t-33 23t-22 34t-8 42.5q0 22 8.5 42t23.5 35t35 23.5t43 8.5q21 0 39.5 -8t32.5 -22.5t22 -33.5t8 -41zM1366 1842q0 -45 -33 -79
q-32 -33 -76 -33q-21 0 -40 8.5t-33 22.5t-22 33.5t-8 42.5t8.5 43t23.5 35t35 23.5t43 8.5q21 0 39.5 -8t32.5 -22.5t22 -33.5t8 -41z" />
    <glyph glyph-name="multiply" unicode="&#xd7;" 
d="M201 1162l93 87l367 -366l361 366l103 -102l-363 -364l364 -368l-92 -90l-361 367l-363 -367l-101 102l363 365z" />
    <glyph glyph-name="Oslash" unicode="&#xd8;" horiz-adv-x="1819" 
d="M372 173l-206 -186l-93 103l209 191q-134 212 -134 456q0 328 199 563q233 275 620 275q297 0 533 -191l207 187l91 -96l-207 -190q142 -208 142 -466q0 -370 -232 -611q-229 -238 -584 -238q-300 0 -545 203zM503 297q156 -166 423 -166q271 0 453 195q181 196 181 490
q0 204 -95 353zM417 400l954 872q-140 141 -404 141q-227 0 -395 -129q-116 -89 -184 -234q-67 -143 -67 -305q0 -192 96 -345z" />
    <glyph glyph-name="Ugrave" unicode="&#xd9;" horiz-adv-x="1527" 
d="M1453 1544l-117 -947q-32 -257 -111 -381q-158 -246 -467 -246q-241 0 -391 132q-150 133 -150 346q0 39 2.5 78.5t7.5 79.5l115 938h170l-117 -955q-4 -32 -6 -62.5t-2 -61.5q0 -154 98 -244q97 -90 264 -90q158 0 265 95q66 58 100 146q36 89 54 241l115 931h170z
M707 1959l143 82l165 -316l-99 -50z" />
    <glyph glyph-name="Uacute" unicode="&#xda;" horiz-adv-x="1527" 
d="M1453 1544l-117 -947q-32 -257 -111 -381q-158 -246 -467 -246q-241 0 -391 132q-150 133 -150 346q0 39 2.5 78.5t7.5 79.5l115 938h170l-117 -955q-4 -32 -6 -62.5t-2 -61.5q0 -154 98 -244q97 -90 264 -90q158 0 265 95q66 58 100 146q36 89 54 241l115 931h170z
M1199 1950l-314 -275l-87 58l263 307z" />
    <glyph glyph-name="Ucircumflex" unicode="&#xdb;" horiz-adv-x="1527" 
d="M1453 1544l-117 -947q-32 -257 -111 -381q-158 -246 -467 -246q-241 0 -391 132q-150 133 -150 346q0 39 2.5 78.5t7.5 79.5l115 938h170l-117 -955q-4 -32 -6 -62.5t-2 -61.5q0 -154 98 -244q97 -90 264 -90q158 0 265 95q66 58 100 146q36 89 54 241l115 931h170z
M946 1874l-257 -199l-88 85l368 282l260 -283l-95 -82z" />
    <glyph glyph-name="Udieresis" unicode="&#xdc;" horiz-adv-x="1527" 
d="M1453 1544l-117 -947q-32 -257 -111 -381q-158 -246 -467 -246q-241 0 -391 132q-150 133 -150 346q0 39 2.5 78.5t7.5 79.5l115 938h170l-117 -955q-4 -32 -6 -62.5t-2 -61.5q0 -154 98 -244q97 -90 264 -90q158 0 265 95q66 58 100 146q36 89 54 241l115 931h170z
M834 1842q0 -46 -33 -80q-32 -33 -76 -33q-21 0 -40 8.5t-33 22.5t-22 33.5t-8 42.5t8.5 43t23.5 35t35 23.5t43 8.5q21 0 40 -8t32.5 -22.5t21.5 -33.5t8 -40zM1224 1842q0 -45 -33 -79q-32 -33 -76 -33q-21 0 -40 8.5t-33 23t-22 34t-8 42.5q0 22 8.5 42t23.5 35t35 23.5
t43 8.5q21 0 40 -8t32.5 -22.5t21.5 -33.5t8 -41z" />
    <glyph glyph-name="Yacute" unicode="&#xdd;" horiz-adv-x="1204" 
d="M701 686l-86 -686h-169l87 703l-401 841h186l319 -678l469 678h199zM1021 1950l-314 -275l-87 58l263 307z" />
    <glyph glyph-name="Thorn" unicode="&#xde;" horiz-adv-x="1113" 
d="M335 1544h169l-26 -216h123q227 0 344.5 -104t117.5 -305q0 -244 -182 -376q-119 -86 -354 -86h-156l-57 -457h-170zM459 1170l-69 -555h148q199 0 283 103q69 84 69 199q0 253 -292 253h-139z" />
    <glyph glyph-name="germandbls" unicode="&#xdf;" horiz-adv-x="1119" 
d="M93 0l100 810h-101l15 125h101l41 332q28 229 125.5 339t273.5 110q172 0 279 -107q106 -106 106 -279q0 -155 -80 -271t-222 -165q276 -122 276 -392q0 -168 -89 -311q-130 -205 -385 -205q-64 0 -148 18l18 145q68 -16 122 -16q141 0 228 104q87 103 87 273
q0 159 -90 241.5t-263 82.5l15 125q103 0 156 19q55 20 105 73q103 109 103 288q0 102 -60 165t-156 63q-105 0 -163 -76.5t-78 -240.5l-154 -1250h-162z" />
    <glyph glyph-name="agrave" unicode="&#xe0;" horiz-adv-x="1212" 
d="M1105 935l-116 -935h-162l17 131q-87 -87 -158 -120t-167 -33q-193 0 -314 126q-121 127 -121 327q0 230 139 378q140 149 355 149q114 0 190 -40q80 -39 156 -136l18 153h163zM897 503q0 135 -86 221t-220 86q-144 0 -242 -107t-98 -265q0 -136 85 -224q86 -89 213 -89
q141 0 244 112q104 113 104 266zM483 1389l143 88l173 -324l-100 -57z" />
    <glyph glyph-name="aacute" unicode="&#xe1;" horiz-adv-x="1212" 
d="M1105 935l-116 -935h-162l17 131q-87 -87 -158 -120t-167 -33q-193 0 -314 126q-121 127 -121 327q0 230 139 378q140 149 355 149q114 0 190 -40q80 -39 156 -136l18 153h163zM897 503q0 135 -86 221t-220 86q-144 0 -242 -107t-98 -265q0 -136 85 -224q86 -89 213 -89
q141 0 244 112q104 113 104 266zM992 1387l-321 -291l-87 58l270 323z" />
    <glyph glyph-name="acircumflex" unicode="&#xe2;" horiz-adv-x="1212" 
d="M1105 935l-116 -935h-162l17 131q-87 -87 -158 -120t-167 -33q-193 0 -314 126q-121 127 -121 327q0 230 139 378q140 149 355 149q114 0 190 -40q80 -39 156 -136l18 153h163zM897 503q0 135 -86 221t-220 86q-144 0 -242 -107t-98 -265q0 -136 85 -224q86 -89 213 -89
q141 0 244 112q104 113 104 266zM716 1314l-235 -218l-80 85l337 305l229 -306l-87 -82z" />
    <glyph glyph-name="atilde" unicode="&#xe3;" horiz-adv-x="1212" 
d="M1105 935l-116 -935h-162l17 131q-87 -87 -158 -120t-167 -33q-193 0 -314 126q-121 127 -121 327q0 230 139 378q140 149 355 149q114 0 190 -40q80 -39 156 -136l18 153h163zM897 503q0 135 -86 221t-220 86q-144 0 -242 -107t-98 -265q0 -136 85 -224q86 -89 213 -89
q141 0 244 112q104 113 104 266zM1000 1328q-89 -162 -195 -162q-54 0 -151 64q-50 32 -73 32q-43 0 -89 -94l-94 55q92 164 187 164q53 0 144 -61q55 -36 77 -36q45 0 99 92z" />
    <glyph glyph-name="adieresis" unicode="&#xe4;" horiz-adv-x="1212" 
d="M1105 935l-116 -935h-162l17 131q-87 -87 -158 -120t-167 -33q-193 0 -314 126q-121 127 -121 327q0 230 139 378q140 149 355 149q114 0 190 -40q80 -39 156 -136l18 153h163zM897 503q0 135 -86 221t-220 86q-144 0 -242 -107t-98 -265q0 -136 85 -224q86 -89 213 -89
q141 0 244 112q104 113 104 266zM619 1261q0 -21 -7.5 -39.5t-21 -32.5t-31.5 -22t-39 -8q-40 0 -68 28.5t-28 71.5q0 22 8 41.5t22 33.5t33 22.5t40 8.5q19 0 36 -8t29.5 -22t19.5 -33t7 -41zM979 1261q0 -21 -7.5 -39.5t-21 -32.5t-31.5 -22t-39 -8q-40 0 -68 28.5
t-28 71.5q0 22 8 41.5t22 33.5t33 22.5t40 8.5q19 0 36 -8t29.5 -22t19.5 -33t7 -41z" />
    <glyph glyph-name="aring" unicode="&#xe5;" horiz-adv-x="1212" 
d="M1105 935l-116 -935h-162l17 131q-87 -87 -158 -120t-167 -33q-193 0 -314 126q-121 127 -121 327q0 230 139 378q140 149 355 149q114 0 190 -40q80 -39 156 -136l18 153h163zM897 503q0 135 -86 221t-220 86q-144 0 -242 -107t-98 -265q0 -136 85 -224q86 -89 213 -89
q141 0 244 112q104 113 104 266zM904 1281q0 -83 -60 -143q-59 -60 -142 -60q-81 0 -143 59q-59 59 -59 143q0 83 59 142q60 60 143 60q84 0 143 -59t59 -142zM796 1281q0 39 -27 66t-67 27q-20 0 -37 -7.5t-29.5 -20t-20 -29.5t-7.5 -36q0 -20 7.5 -37t20.5 -30t30 -20.5
t37 -7.5q19 0 36 7.5t29.5 20.5t20 30t7.5 37z" />
    <glyph glyph-name="ae" unicode="&#xe6;" horiz-adv-x="1726" 
d="M890 430l-1 -33q0 -125 85 -203q86 -77 223 -77q157 0 269 127l113 -82q-149 -192 -393 -192q-266 0 -379 209q-128 -209 -357 -209q-168 0 -284 92q-114 91 -114 228q0 134 108 224t271 90q183 0 305 -120q2 20 4 34t3 22l10 71q3 25 3 51q0 156 -251 156
q-117 0 -246 -37l19 150q70 17 131.5 26t115.5 9q140 0 224 -42.5t128 -135.5q132 178 336 178q193 0 311 -136q119 -137 119 -353l-1 -47h-752zM712 289q0 74 -72 121q-70 46 -190 46q-101 0 -166 -47t-65 -119q0 -74 68 -124q67 -49 171 -49q110 0 182 48q72 49 72 124z
M906 564h583q-11 117 -86 185q-75 69 -193 69q-232 0 -304 -254z" />
    <glyph glyph-name="ccedilla" unicode="&#xe7;" horiz-adv-x="953" 
d="M911 840l-22 -176q-133 154 -297 154q-149 0 -245 -106q-96 -105 -96 -268q0 -146 90 -237q90 -90 236 -90q131 0 259 107l-23 -183q-125 -71 -260 -71q-204 0 -338 131q-131 134 -131 339q0 228 142 376q142 150 357 150q176 0 328 -126zM600 -192l-247 -281l-82 57
l194 309z" />
    <glyph glyph-name="egrave" unicode="&#xe8;" horiz-adv-x="1086" 
d="M251 429q0 -144 81 -228q82 -84 222 -84q159 0 260 125l126 -73q-145 -199 -388 -199q-209 0 -340 125q-128 126 -128 334q0 230 138 383q138 154 346 154q127 0 228 -62q102 -63 154 -172q51 -107 51 -303h-750zM835 563q-5 60 -26.5 107t-56.5 80t-83.5 50.5
t-107.5 17.5q-235 0 -296 -255h570zM415 1389l143 88l173 -324l-100 -57z" />
    <glyph glyph-name="eacute" unicode="&#xe9;" horiz-adv-x="1086" 
d="M251 429q0 -144 81 -228q82 -84 222 -84q159 0 260 125l126 -73q-145 -199 -388 -199q-209 0 -340 125q-128 126 -128 334q0 230 138 383q138 154 346 154q127 0 228 -62q102 -63 154 -172q51 -107 51 -303h-750zM835 563q-5 60 -26.5 107t-56.5 80t-83.5 50.5
t-107.5 17.5q-235 0 -296 -255h570zM929 1387l-321 -291l-87 58l270 323z" />
    <glyph glyph-name="ecircumflex" unicode="&#xea;" horiz-adv-x="1086" 
d="M251 429q0 -144 81 -228q82 -84 222 -84q159 0 260 125l126 -73q-145 -199 -388 -199q-209 0 -340 125q-128 126 -128 334q0 230 138 383q138 154 346 154q127 0 228 -62q102 -63 154 -172q51 -107 51 -303h-750zM835 563q-5 60 -26.5 107t-56.5 80t-83.5 50.5
t-107.5 17.5q-235 0 -296 -255h570zM652 1314l-235 -218l-80 85l337 305l229 -306l-87 -82z" />
    <glyph glyph-name="edieresis" unicode="&#xeb;" horiz-adv-x="1086" 
d="M251 429q0 -144 81 -228q82 -84 222 -84q159 0 260 125l126 -73q-145 -199 -388 -199q-209 0 -340 125q-128 126 -128 334q0 230 138 383q138 154 346 154q127 0 228 -62q102 -63 154 -172q51 -107 51 -303h-750zM835 563q-5 60 -26.5 107t-56.5 80t-83.5 50.5
t-107.5 17.5q-235 0 -296 -255h570zM553 1261q0 -21 -7.5 -39.5t-21 -32.5t-31.5 -22t-39 -8q-40 0 -68 28.5t-28 71.5q0 22 8 41.5t22 33.5t33 22.5t40 8.5q19 0 36 -8t29.5 -22t19.5 -33t7 -41zM913 1261q0 -21 -7.5 -39.5t-21 -32.5t-31.5 -22t-39 -8q-40 0 -68 28.5
t-28 71.5q0 22 8 41.5t22 33.5t33 22.5t40 8.5q19 0 36 -8t29.5 -22t19.5 -33t7 -41z" />
    <glyph glyph-name="igrave" unicode="&#xec;" horiz-adv-x="477" 
d="M370 935l-116 -935h-162l116 935h162zM107 1389l136 88l164 -324l-99 -57z" />
    <glyph glyph-name="iacute" unicode="&#xed;" horiz-adv-x="477" 
d="M370 935l-116 -935h-162l116 935h162zM601 1387l-291 -291l-87 58l240 323z" />
    <glyph glyph-name="icircumflex" unicode="&#xee;" horiz-adv-x="477" 
d="M370 935l-116 -935h-162l116 935h162zM349 1306l-204 -210l-80 85l306 305l198 -306l-87 -82z" />
    <glyph glyph-name="idieresis" unicode="&#xef;" horiz-adv-x="477" 
d="M370 935l-116 -935h-162l116 935h162zM283 1261q0 -21 -7.5 -39.5t-21 -32.5t-31.5 -22t-39 -8q-40 0 -68 28.5t-28 71.5q0 22 8 41.5t22 33.5t33 22.5t40 8.5q19 0 36 -8t29.5 -22t19.5 -33t7 -41zM556 1261q0 -41 -30 -72q-29 -30 -70 -30q-40 0 -68 28.5t-28 71.5
q0 22 8 41.5t22 33.5t33 22.5t40 8.5q19 0 36 -8t30 -22t20 -33t7 -41z" />
    <glyph glyph-name="eth" unicode="&#xf0;" horiz-adv-x="1189" 
d="M353 1604l75 99q174 -78 296 -176l234 114l94 -101l-220 -108q136 -142 205.5 -343t69.5 -451q0 -355 -162 -523q-141 -145 -357 -145q-217 0 -360 137q-142 136 -142 346q0 215 150 364q152 149 368 149q120 0 193 -40q74 -38 143 -137q-22 350 -238 578l-233 -116
l-91 98l216 109q-14 10 -22 16t-12 8l-80 47l-89 56q-4 2 -13.5 6.5t-24.5 12.5zM924 478q0 150 -90 245q-90 94 -233 94q-147 0 -248 -104q-100 -103 -100 -255q0 -146 95 -244q94 -97 238 -97q146 0 242 102q96 103 96 259z" />
    <glyph glyph-name="ntilde" unicode="&#xf1;" horiz-adv-x="1075" 
d="M370 935l-14 -116q43 42 79.5 69t66.5 41q61 30 144 30q128 0 205 -75q78 -75 78 -199q0 -31 -3 -72t-10 -93l-64 -520h-162l67 546q5 38 7.5 66t2.5 48q0 150 -163 150q-100 0 -178 -63q-51 -41 -74 -95q-23 -53 -36 -161l-61 -491h-162l115 935h162zM907 1328
q-89 -162 -195 -162q-54 0 -151 64q-50 32 -73 32q-43 0 -89 -94l-94 55q92 164 187 164q53 0 144 -61q55 -36 77 -36q45 0 99 92z" />
    <glyph glyph-name="ograve" unicode="&#xf2;" horiz-adv-x="1189" 
d="M1090 475q0 -214 -146 -360q-145 -145 -361 -145q-213 0 -356 137q-141 138 -141 346q0 215 150 364q152 149 369 149q212 0 349 -138q136 -136 136 -353zM923 479q0 149 -90 244q-89 95 -233 95q-147 0 -248 -104q-99 -104 -99 -256q0 -147 94 -244t239 -97
q146 0 241 102q96 103 96 260zM461 1389l143 88l173 -324l-100 -57z" />
    <glyph glyph-name="oacute" unicode="&#xf3;" horiz-adv-x="1189" 
d="M1090 475q0 -214 -146 -360q-145 -145 -361 -145q-213 0 -356 137q-141 138 -141 346q0 215 150 364q152 149 369 149q212 0 349 -138q136 -136 136 -353zM923 479q0 149 -90 244q-89 95 -233 95q-147 0 -248 -104q-99 -104 -99 -256q0 -147 94 -244t239 -97
q146 0 241 102q96 103 96 260zM971 1387l-321 -291l-87 58l270 323z" />
    <glyph glyph-name="ocircumflex" unicode="&#xf4;" horiz-adv-x="1189" 
d="M1090 475q0 -214 -146 -360q-145 -145 -361 -145q-213 0 -356 137q-141 138 -141 346q0 215 150 364q152 149 369 149q212 0 349 -138q136 -136 136 -353zM923 479q0 149 -90 244q-89 95 -233 95q-147 0 -248 -104q-99 -104 -99 -256q0 -147 94 -244t239 -97
q146 0 241 102q96 103 96 260zM689 1314l-235 -218l-80 85l337 305l229 -306l-87 -82z" />
    <glyph glyph-name="otilde" unicode="&#xf5;" horiz-adv-x="1189" 
d="M1090 475q0 -214 -146 -360q-145 -145 -361 -145q-213 0 -356 137q-141 138 -141 346q0 215 150 364q152 149 369 149q212 0 349 -138q136 -136 136 -353zM923 479q0 149 -90 244q-89 95 -233 95q-147 0 -248 -104q-99 -104 -99 -256q0 -147 94 -244t239 -97
q146 0 241 102q96 103 96 260zM982 1328q-89 -162 -195 -162q-54 0 -151 64q-50 32 -73 32q-43 0 -89 -94l-94 55q92 164 187 164q53 0 144 -61q55 -36 77 -36q45 0 99 92z" />
    <glyph glyph-name="odieresis" unicode="&#xf6;" horiz-adv-x="1189" 
d="M1090 475q0 -214 -146 -360q-145 -145 -361 -145q-213 0 -356 137q-141 138 -141 346q0 215 150 364q152 149 369 149q212 0 349 -138q136 -136 136 -353zM923 479q0 149 -90 244q-89 95 -233 95q-147 0 -248 -104q-99 -104 -99 -256q0 -147 94 -244t239 -97
q146 0 241 102q96 103 96 260zM598 1261q0 -21 -7.5 -39.5t-21 -32.5t-31.5 -22t-39 -8q-40 0 -68 28.5t-28 71.5q0 22 8 41.5t22 33.5t33 22.5t40 8.5q19 0 36 -8t29.5 -22t19.5 -33t7 -41zM958 1261q0 -21 -7.5 -39.5t-21 -32.5t-31.5 -22t-39 -8q-40 0 -68 28.5t-28 71.5
q0 22 8 41.5t22 33.5t33 22.5t40 8.5q19 0 36 -8t29.5 -22t19.5 -33t7 -41z" />
    <glyph glyph-name="divide" unicode="&#xf7;" 
d="M784 450q0 -44 -35 -79q-34 -34 -81 -34q-23 0 -42.5 9t-34.5 24t-23.5 36t-8.5 45q0 45 32 80q31 33 78 33q24 0 45 -9t36.5 -24t24.5 -36t9 -45zM768 1124q0 -44 -35 -79q-34 -34 -80 -34t-77 33q-32 35 -32 80q0 24 8.5 45t23 36t34.5 24t43 9q24 0 45 -9t36.5 -24
t24.5 -36t9 -45zM117 718v139h1092v-139h-1092z" />
    <glyph glyph-name="oslash" unicode="&#xf8;" horiz-adv-x="1189" 
d="M252 84l-162 -137l-77 91l154 139q-80 143 -80 275q0 216 150 365q152 149 371 149q176 0 323 -114l149 133l82 -89l-148 -135q25 -50 40 -87.5t22 -63.5q14 -56 14 -130q0 -219 -145 -364q-144 -146 -360 -146q-185 0 -333 114zM374 193q91 -76 213 -76q147 0 241 103
q95 104 95 263q0 83 -38 167zM293 289l514 457q-84 72 -207 72q-146 0 -247 -104q-100 -103 -100 -256q0 -85 40 -169z" />
    <glyph glyph-name="ugrave" unicode="&#xf9;" horiz-adv-x="1075" 
d="M968 935l-67 -550q-8 -67 -19 -116.5t-24 -81.5q-27 -66 -86 -116q-110 -93 -280 -93q-164 0 -260 84q-95 86 -95 232q0 28 2 58t6 63l64 520h162l-66 -537q-4 -29 -5.5 -54t-1.5 -47q0 -39 14 -71t40.5 -54.5t63.5 -34.5t83 -12q113 0 167 56q55 56 71 192l69 562h162z
M409 1389l143 88l173 -324l-100 -57z" />
    <glyph glyph-name="uacute" unicode="&#xfa;" horiz-adv-x="1075" 
d="M968 935l-67 -550q-8 -67 -19 -116.5t-24 -81.5q-27 -66 -86 -116q-110 -93 -280 -93q-164 0 -260 84q-95 86 -95 232q0 28 2 58t6 63l64 520h162l-66 -537q-4 -29 -5.5 -54t-1.5 -47q0 -39 14 -71t40.5 -54.5t63.5 -34.5t83 -12q113 0 167 56q55 56 71 192l69 562h162z
M915 1387l-321 -291l-87 58l270 323z" />
    <glyph glyph-name="ucircumflex" unicode="&#xfb;" horiz-adv-x="1075" 
d="M968 935l-67 -550q-8 -67 -19 -116.5t-24 -81.5q-27 -66 -86 -116q-110 -93 -280 -93q-164 0 -260 84q-95 86 -95 232q0 28 2 58t6 63l64 520h162l-66 -537q-4 -29 -5.5 -54t-1.5 -47q0 -39 14 -71t40.5 -54.5t63.5 -34.5t83 -12q113 0 167 56q55 56 71 192l69 562h162z
M647 1314l-235 -218l-80 85l337 305l229 -306l-87 -82z" />
    <glyph glyph-name="udieresis" unicode="&#xfc;" horiz-adv-x="1075" 
d="M968 935l-67 -550q-8 -67 -19 -116.5t-24 -81.5q-27 -66 -86 -116q-110 -93 -280 -93q-164 0 -260 84q-95 86 -95 232q0 28 2 58t6 63l64 520h162l-66 -537q-4 -29 -5.5 -54t-1.5 -47q0 -39 14 -71t40.5 -54.5t63.5 -34.5t83 -12q113 0 167 56q55 56 71 192l69 562h162z
M547 1261q0 -21 -7.5 -39.5t-21 -32.5t-31.5 -22t-39 -8q-40 0 -68 28.5t-28 71.5q0 22 8 41.5t22 33.5t33 22.5t40 8.5q19 0 36 -8t29.5 -22t19.5 -33t7 -41zM907 1261q0 -21 -7.5 -39.5t-21 -32.5t-31.5 -22t-39 -8q-40 0 -68 28.5t-28 71.5q0 22 8 41.5t22 33.5t33 22.5
t40 8.5q19 0 36 -8t29.5 -22t19.5 -33t7 -41z" />
    <glyph glyph-name="yacute" unicode="&#xfd;" horiz-adv-x="981" 
d="M1015 935l-828 -1464h-185l354 617l-306 847h173l232 -668l377 668h183zM859 1387l-321 -291l-87 58l270 323z" />
    <glyph glyph-name="thorn" unicode="&#xfe;" horiz-adv-x="1221" 
d="M462 1689l-108 -880q92 86 161 117q73 32 168 32q189 0 314 -131q126 -131 126 -326q0 -221 -145 -372q-144 -151 -352 -151q-113 0 -189 39q-78 41 -163 146l-86 -702h-162l274 2228h162zM957 484q0 144 -85 235q-84 91 -218 91q-150 0 -250 -108q-101 -107 -101 -266
q0 -136 88 -224q88 -87 224 -87q146 0 243 103q99 103 99 256z" />
    <glyph glyph-name="ydieresis" unicode="&#xff;" horiz-adv-x="981" 
d="M1015 935l-828 -1464h-185l354 617l-306 847h173l232 -668l377 668h183zM489 1261q0 -21 -7.5 -39.5t-21 -32.5t-31.5 -22t-39 -8q-40 0 -68 28.5t-28 71.5q0 22 8 41.5t22 33.5t33 22.5t40 8.5q19 0 36 -8t29.5 -22t19.5 -33t7 -41zM849 1261q0 -21 -7.5 -39.5
t-21 -32.5t-31.5 -22t-39 -8q-40 0 -68 28.5t-28 71.5q0 22 8 41.5t22 33.5t33 22.5t40 8.5q19 0 36 -8t29.5 -22t19.5 -33t7 -41z" />
    <glyph glyph-name="uniFFE6" unicode="&#xffe6;" horiz-adv-x="1024" 
 />
    <glyph glyph-name="nonmarkingreturn" horiz-adv-x="1024" 
 />
    <glyph glyph-name="notequal" unicode="&#x2260;" horiz-adv-x="1158" 
d="M657 1041l126 260l120 -49l-102 -211h308v-155h-380l-101 -212h481v-155h-553l-126 -263l-120 49l102 214h-307v155h379l101 212h-480v155h552z" />
    <glyph glyph-name="infinity" unicode="&#x221e;" horiz-adv-x="1544" 
d="M804 672q-171 -240 -382 -240q-157 0 -254 100q-98 101 -98 260q0 154 100 253t255 99q209 0 371 -239q163 240 383 240q155 0 252 -100q98 -101 98 -259q0 -154 -98 -255q-97 -100 -250 -100q-217 0 -377 241zM887 789q134 -209 273 -209q85 0 141 59t56 149t-57 149
q-56 59 -142 59q-138 0 -271 -207zM713 788q-132 208 -274 208q-85 0 -141 -59t-56 -150q0 -88 57 -148q57 -59 143 -59q135 0 271 208z" />
    <glyph glyph-name="lessequal" unicode="&#x2264;" horiz-adv-x="1158" 
d="M1109 1417v-166l-818 -362l818 -363v-166l-1004 451v151zM1109 292v-162h-1004v162h1004z" />
    <glyph glyph-name="greaterequal" unicode="&#x2265;" horiz-adv-x="1158" 
d="M105 360v166l818 363l-818 362v166l1004 -456v-150zM105 130v162h1004v-162h-1004z" />
    <glyph glyph-name="partialdiff" unicode="&#x2202;" horiz-adv-x="1158" 
d="M222 1398l23 154q220 -30 360 -97q144 -68 259 -192q252 -275 252 -693q0 -259 -126 -413q-148 -181 -382 -181q-210 0 -361 153q-150 154 -150 369q0 212 140 361q141 148 343 148q107 0 185 -38q75 -37 153 -130q-5 13 -9.5 22t-6.5 16q-62 148 -124 228
q-64 83 -165 148q-52 33 -99 57t-89 40q-83 32 -203 48zM618 876q-145 0 -245 -112t-100 -275q0 -156 98 -269q97 -112 236 -112q141 0 236 114q96 114 96 282q0 160 -91 266t-230 106z" />
    <glyph glyph-name="summation" unicode="&#x2211;" horiz-adv-x="1544" 
d="M1415 1737v-531h-158l-16 368h-954l584 -949l-584 -1041h976l9 365h165v-527h-1345v182l575 1021l-575 933v179h1323z" />
    <glyph glyph-name="product" unicode="&#x220f;" horiz-adv-x="1622" 
d="M113 1737h1451v-162h-184v-1991h184v-162h-548v162h190v1991h-735v-1991h188v-162h-546v162h184v1991h-184v162z" />
    <glyph glyph-name="pi" unicode="&#x3c0;" horiz-adv-x="1352" 
d="M265 0v953h-172v157h1221v-157h-170v-953h-174v953h-531v-953h-174z" />
    <glyph glyph-name="integral" unicode="&#x222b;" horiz-adv-x="1158" 
d="M245 -553l38 155q63 -23 105 -23q104 0 123 91q9 40 9 189v1410q0 243 26 312q61 157 265 157q62 0 158 -26l-37 -154q-63 23 -105 23q-81 0 -107 -47q-25 -46 -25 -193l-1 -119v-1332q0 -189 -12 -256q-10 -67 -51 -115q-79 -94 -249 -94q-78 0 -137 22z" />
    <glyph glyph-name="Ohm" unicode="&#x2126;" horiz-adv-x="1544" 
d="M93 0v153h414q-414 243 -414 689q0 312 203 527q204 214 503 214t503 -214q204 -215 204 -527q0 -448 -414 -689h414v-153h-605v138q110 63 190.5 135.5t133.5 156.5t78.5 181.5t25.5 210.5q0 254 -154 429q-153 177 -373 177q-227 0 -380 -174q-152 -176 -152 -433
q0 -441 428 -683v-138h-605z" />
    <glyph glyph-name="radical" unicode="&#x221a;" horiz-adv-x="1544" 
d="M1572 1920v-162h-453l-494 -1758h-216l-187 690h-194v162h336l83 -295q5 -18 13 -55.5t19 -95.5l26 -135l7 -35h13q4 19 6 30.5t3 16.5l34 150l56 247l97 345l249 895h602z" />
    <glyph glyph-name="approxequal" unicode="&#x2248;" horiz-adv-x="1158" 
d="M152 805l-102 67q65 141 140.5 204.5t177.5 63.5q89 0 259 -79q162 -74 223 -74q68 0 111 34q46 36 98 124l105 -62q-130 -262 -335 -262q-81 0 -194 52l-130 59q-92 42 -150 42q-112 0 -203 -169zM152 415l-102 67q33 70 67.5 120.5t73.5 83.5t83 48.5t95 15.5
q88 0 258 -79q156 -73 224 -73q67 0 110 34q46 34 98 123l105 -62q-130 -262 -335 -262q-74 0 -194 53l-130 59q-94 41 -150 41q-112 0 -203 -169z" />
    <glyph glyph-name="Delta" unicode="&#x2206;" horiz-adv-x="1544" 
d="M90 0l614 1544h186l619 -1544h-1419zM339 162h918l-459 1170z" />
    <glyph glyph-name="lozenge" unicode="&#x25ca;" horiz-adv-x="1544" 
d="M799 1605l602 -832l-602 -832l-601 832zM799 1283l-371 -510l371 -510l371 510z" />
    <glyph glyph-name="fraction1" unicode="&#x2215;" horiz-adv-x="341" 
d="M-415 35l1140 1540l91 -68l-1141 -1537z" />
    <glyph glyph-name="fi" unicode="&#xf001;" horiz-adv-x="1035" 
d="M812 0h-165l115 935h165zM960 1206h-165l18 149q1 8 1.5 15.5t0.5 14.5q0 75 -48 126t-123 51q-82 0 -147 -62q-63 -60 -74 -145l-51 -420h244l-19 -153h-244l-96 -782h-165l96 782h-91l19 153h91l51 420q18 147 137 254q118 106 268 106q135 0 227 -89q91 -88 91 -224
q0 -22 -3 -47z" />
    <glyph glyph-name="fi" unicode="&#xfb01;" horiz-adv-x="1035" 
d="M812 0h-165l115 935h165zM960 1206h-165l18 149q1 8 1.5 15.5t0.5 14.5q0 75 -48 126t-123 51q-82 0 -147 -62q-63 -60 -74 -145l-51 -420h244l-19 -153h-244l-96 -782h-165l96 782h-91l19 153h91l51 420q18 147 137 254q118 106 268 106q135 0 227 -89q91 -88 91 -224
q0 -22 -3 -47z" />
    <glyph glyph-name="fl" unicode="&#xf002;" horiz-adv-x="1010" 
d="M978 1355l-166 -1355h-165l166 1355q1 8 1.5 15.5t0.5 14.5q0 75 -48 126q-47 51 -123 51q-82 0 -147 -62q-63 -60 -74 -145l-51 -421h244l-19 -153h-244l-96 -781h-165l96 781h-91l19 153h91l51 421q18 147 137 254q118 106 268 106q135 0 227 -89q91 -88 91 -224
q0 -23 -3 -47z" />
    <glyph glyph-name="fl" unicode="&#xfb02;" horiz-adv-x="1010" 
d="M978 1355l-166 -1355h-165l166 1355q1 8 1.5 15.5t0.5 14.5q0 75 -48 126q-47 51 -123 51q-82 0 -147 -62q-63 -60 -74 -145l-51 -421h244l-19 -153h-244l-96 -781h-165l96 781h-91l19 153h91l51 421q18 147 137 254q118 106 268 106q135 0 227 -89q91 -88 91 -224
q0 -23 -3 -47z" />
    <glyph glyph-name="dotlessi" unicode="&#x131;" horiz-adv-x="477" 
d="M370 935l-116 -935h-162l116 935h162z" />
    <glyph glyph-name="breve" unicode="&#x2d8;" horiz-adv-x="1158" 
d="M403 1418h123q0 -170 130 -170q60 0 109 45.5t76 124.5h123q-35 -135 -122 -216q-89 -80 -198 -80t-175 72t-66 190v34z" />
    <glyph glyph-name="dotaccent" unicode="&#x2d9;" horiz-adv-x="1158" 
d="M761 1261q0 -21 -8 -40.5t-22 -33.5t-32.5 -22.5t-39.5 -8.5t-39 8t-31.5 22t-21 32.5t-7.5 39.5q0 23 8 43t22.5 35t33.5 23.5t41 8.5q21 0 38.5 -8.5t30 -22.5t20 -34t7.5 -42z" />
    <glyph glyph-name="ring" unicode="&#x2da;" horiz-adv-x="1158" 
d="M873 1281q0 -83 -60 -143q-59 -60 -142 -60q-81 0 -143 59q-59 59 -59 143q0 83 59 142q60 60 143 60q84 0 143 -59t59 -142zM765 1281q0 39 -27 66t-67 27q-20 0 -37 -7.5t-29.5 -20t-20 -29.5t-7.5 -36q0 -20 7.5 -37t20.5 -30t30 -20.5t37 -7.5q19 0 36 7.5t29.5 20.5
t20 30t7.5 37z" />
    <glyph glyph-name="hungarumlaut" unicode="&#x2dd;" horiz-adv-x="1158" 
d="M840 1399l-284 -303l-69 50l229 330zM1111 1399l-284 -303l-70 50l230 330z" />
    <glyph glyph-name="ogonek" unicode="&#x2db;" horiz-adv-x="1158" 
d="M559 0h131q-184 -99 -184 -200q0 -31 22 -51.5t55 -20.5q47 0 111 29l-30 -127q-76 -29 -138 -29q-68 0 -118 44q-48 43 -48 108q0 135 199 247z" />
    <glyph glyph-name="caron" unicode="&#x2c7;" horiz-adv-x="1158" 
d="M651 1269l234 217l80 -84l-337 -306l-229 306l87 83z" />
    <glyph glyph-name="Lslash" unicode="&#x141;" horiz-adv-x="889" 
d="M503 1544l-77 -632l286 185l-22 -183l-287 -186l-70 -570h471l-20 -158h-640l81 658l-168 -109l23 183l167 109l87 703h169z" />
    <glyph glyph-name="lslash" unicode="&#x142;" horiz-adv-x="477" 
d="M463 1689l-89 -719l164 110l-22 -178l-163 -109l-98 -793h-162l89 725l-163 -110l22 178l163 110l97 786h162z" />
    <glyph glyph-name="minus" unicode="&#x2212;" horiz-adv-x="1313" 
d="M142 718v139h1092v-139h-1092z" />
    <glyph glyph-name="Gbreve" unicode="&#x11e;" horiz-adv-x="1725" 
d="M1004 738h631q-29 -279 -150 -457q-101 -149 -258 -230q-158 -81 -343 -81q-319 0 -529 214q-209 215 -209 541q0 184 74 364q74 176 200 292q215 194 520 194q423 0 659 -359l-119 -105q-186 302 -544 302q-268 0 -443 -195q-174 -194 -174 -493q0 -260 161 -427
t412 -167q212 0 357 118q144 117 194 332h-459zM773 1997l124 -1q0 -166 138 -166q69 0 123.5 44t81.5 122h124q-36 -138 -127 -217t-213 -79q-116 0 -184 71t-68 192z" />
    <glyph glyph-name="gbreve" unicode="&#x11f;" horiz-adv-x="1224" 
d="M1116 935l-117 -949q-21 -174 -55 -259q-33 -89 -102 -153q-128 -120 -339 -120q-207 0 -331 112q-117 103 -117 306h154q7 -139 76.5 -204.5t209.5 -65.5q157 0 235 82q80 81 102 268l20 162q-85 -75 -158 -106q-71 -30 -163 -30q-192 0 -319 130t-127 327
q0 222 144 372q144 151 357 151q110 0 186 -40q76 -39 162 -137l19 154h163zM914 492q0 143 -87 230q-85 88 -227 88q-149 0 -249 -105q-100 -103 -100 -263q0 -136 89 -228q89 -89 225 -89q144 0 246 107q103 106 103 260zM452 1418h122q0 -170 131 -170q60 0 109 45.5
t76 124.5h123q-36 -135 -123 -216q-89 -80 -198 -80q-108 0 -175 72q-66 72 -66 190z" />
    <glyph glyph-name="Idotaccent" unicode="&#x130;" horiz-adv-x="588" 
d="M504 1544l-190 -1544h-170l190 1544h170zM564 1841q0 -48 -34 -82t-80 -34q-23 0 -42.5 8.5t-34 23.5t-23 35.5t-8.5 44.5q0 47 33 80q34 34 82 34q22 0 42 -8.5t34 -23.5t22.5 -35t8.5 -43z" />
    <glyph glyph-name="Scommaaccent" unicode="&#x218;" horiz-adv-x="1117" 
d="M1076 1327l-119 -105q-99 191 -275 191q-111 0 -187 -73q-76 -72 -76 -178q0 -85 49 -143q49 -59 195 -147q198 -117 269 -216q72 -96 72 -243q0 -193 -131 -318t-331 -125q-323 0 -470 330l135 79q54 -130 132.5 -189t198.5 -59q130 0 211 82q82 82 82 215q0 94 -54 159
q-53 64 -211 159q-183 111 -250 198q-66 88 -66 220q0 181 121 296q122 116 312 116q253 0 393 -249zM598 -192l-248 -281l-89 57l193 309z" />
    <glyph glyph-name="Scommaaccent" unicode="&#x1e9c;" horiz-adv-x="1117" 
d="M1076 1327l-119 -105q-99 191 -275 191q-111 0 -187 -73q-76 -72 -76 -178q0 -85 49 -143q49 -59 195 -147q198 -117 269 -216q72 -96 72 -243q0 -193 -131 -318t-331 -125q-323 0 -470 330l135 79q54 -130 132.5 -189t198.5 -59q130 0 211 82q82 82 82 215q0 94 -54 159
q-53 64 -211 159q-183 111 -250 198q-66 88 -66 220q0 181 121 296q122 116 312 116q253 0 393 -249zM598 -192l-248 -281l-89 57l193 309z" />
    <glyph glyph-name="Cacute" unicode="&#x106;" horiz-adv-x="1490" 
d="M1467 1378l-23 -195q-89 110 -222 170q-134 60 -286 60q-269 0 -441 -193q-173 -194 -173 -492q0 -276 160 -436q161 -161 431 -161q250 0 431 157l-25 -208q-218 -110 -432 -110q-327 0 -533 212q-205 211 -205 550q0 365 222 604t560 239q297 0 536 -197zM1303 1950
l-314 -275l-86 58l262 307z" />
    <glyph glyph-name="cacute" unicode="&#x107;" horiz-adv-x="953" 
d="M911 840l-22 -176q-133 154 -297 154q-149 0 -245 -106q-96 -105 -96 -268q0 -146 90 -237q90 -90 236 -90q131 0 259 107l-23 -183q-125 -71 -260 -71q-204 0 -338 131q-131 134 -131 339q0 228 142 376q142 150 357 150q176 0 328 -126zM939 1387l-321 -291l-87 58
l270 323z" />
    <glyph glyph-name="Ccaron" unicode="&#x10c;" horiz-adv-x="1490" 
d="M1467 1378l-23 -195q-89 110 -222 170q-134 60 -286 60q-269 0 -441 -193q-173 -194 -173 -492q0 -276 160 -436q161 -161 431 -161q250 0 431 157l-25 -208q-218 -110 -432 -110q-327 0 -533 212q-205 211 -205 550q0 365 222 604t560 239q297 0 536 -197zM1012 1844
l259 198l87 -84l-368 -283l-260 283l95 82z" />
    <glyph glyph-name="ccaron" unicode="&#x10d;" horiz-adv-x="953" 
d="M911 840l-22 -176q-133 154 -297 154q-149 0 -245 -106q-96 -105 -96 -268q0 -146 90 -237q90 -90 236 -90q131 0 259 107l-23 -183q-125 -71 -260 -71q-204 0 -338 131q-131 134 -131 339q0 228 142 376q142 150 357 150q176 0 328 -126zM633 1269l234 217l80 -84
l-336 -306l-230 306l87 83z" />
    <glyph glyph-name="afii10022" unicode="&#x415;" horiz-adv-x="1230" 
d="M1215 1689l-27 -216h139l-17 -139h-139l-164 -1334h-162l16 125q-87 -84 -155 -116q-65 -31 -165 -31q-197 0 -326 129q-129 130 -129 330q0 223 142 371q142 150 353 150q113 0 193 -44q82 -43 165 -149l70 569h-278l17 139h278l27 216h162zM906 508q0 133 -87 217
q-85 85 -223 85q-147 0 -245 -107t-98 -266q0 -135 86 -224q87 -88 222 -88q175 0 272 148q73 112 73 235z" />
    <glyph glyph-name="uniE009" horiz-adv-x="1428" 
d="M800 1841q0 -45 -33 -79q-32 -33 -76 -33q-21 0 -40 8.5t-33 23t-22 34t-8 42.5q0 22 8.5 42t23.5 35t35 23.5t43 8.5q21 0 40 -8t32.5 -22.5t21.5 -33.5t8 -41zM1190 1842q0 -45 -33 -79q-32 -33 -76 -33q-21 0 -40 8.5t-33 22.5t-22 33.5t-8 42.5t8.5 43t23.5 35
t35 23.5t43 8.5q21 0 40 -8t32.5 -22.5t21.5 -33.5t8 -41z" />
    <glyph glyph-name="uniE00A" horiz-adv-x="1428" 
d="M1173 1950l-314 -275l-87 58l263 307z" />
    <glyph glyph-name="uniE00B" horiz-adv-x="1428" 
d="M660 1959l143 82l165 -316l-99 -50z" />
    <glyph glyph-name="uniE00C" horiz-adv-x="1428" 
d="M898 1874l-259 -199l-87 85l367 282l261 -283l-95 -82z" />
    <glyph glyph-name="uniE00D" horiz-adv-x="1428" 
d="M1218 1904q-96 -162 -202 -162q-55 0 -185 67q-53 27 -77 27q-48 0 -95 -92l-100 55q98 164 195 164q50 0 179 -63q62 -31 86 -31q46 0 99 89z" />
    <glyph glyph-name="uniE00E" horiz-adv-x="1428" 
d="M1080 1870q0 -85 -61 -146q-60 -61 -145 -61t-146 60q-61 61 -61 147q0 85 60 145q61 61 147 61q87 0 146 -60q60 -59 60 -146zM968 1871q0 39 -27 66t-67 27q-20 0 -37 -7.5t-29.5 -20t-20 -29.5t-7.5 -36q0 -20 7.5 -37t20.5 -30t30 -20.5t36 -7.5t36.5 7.5t30 20.5
t20 30t7.5 37z" />
    <glyph glyph-name="uniE00F" horiz-adv-x="1490" 
d="M915 -192l-248 -281l-89 57l194 309z" />
    <glyph glyph-name="uniE010" horiz-adv-x="1082" 
d="M659 1841q0 -45 -33 -79q-32 -33 -76 -33q-21 0 -40 8.5t-33 23t-22 34t-8 42.5q0 22 8.5 42t23.5 35t35 23.5t43 8.5q21 0 39.5 -8t32.5 -22.5t22 -33.5t8 -41zM1049 1842q0 -45 -33 -79q-32 -33 -76 -33q-21 0 -40 8.5t-33 22.5t-22 33.5t-8 42.5t8.5 43t23.5 35
t35 23.5t43 8.5q21 0 39.5 -8t32.5 -22.5t22 -33.5t8 -41z" />
    <glyph glyph-name="uniE011" horiz-adv-x="1082" 
d="M1030 1950l-314 -275l-87 58l263 307z" />
    <glyph glyph-name="uniE012" horiz-adv-x="1082" 
d="M532 1959l143 82l165 -316l-100 -50z" />
    <glyph glyph-name="uniE013" horiz-adv-x="1082" 
d="M755 1874l-258 -199l-88 85l368 282l260 -283l-95 -82z" />
    <glyph glyph-name="uniE014" horiz-adv-x="588" 
d="M414 1841q0 -45 -33 -79q-32 -33 -76 -33q-21 0 -40 8.5t-33 23t-22 34t-8 42.5q0 22 8.5 42t23.5 35t35 23.5t43 8.5q21 0 40 -8t32.5 -22.5t21.5 -33.5t8 -41zM705 1842q0 -45 -33 -79q-32 -33 -76 -33q-21 0 -40 8.5t-33 22.5t-22 33.5t-8 42.5t8.5 43t23.5 35
t35 23.5t43 8.5q21 0 40 -8t32.5 -22.5t21.5 -33.5t8 -41z" />
    <glyph glyph-name="uniE015" horiz-adv-x="588" 
d="M729 1950l-298 -275l-87 58l247 307z" />
    <glyph glyph-name="uniE016" horiz-adv-x="588" 
d="M224 1959l144 82l165 -316l-100 -50z" />
    <glyph glyph-name="uniE017" horiz-adv-x="588" 
d="M469 1874l-219 -199l-84 85l325 282l222 -283l-95 -82z" />
    <glyph glyph-name="uniE018" horiz-adv-x="1718" 
d="M1350 1904q-96 -162 -201 -162q-53 0 -186 67q-53 27 -76 27q-49 0 -96 -92l-100 55q99 164 196 164q50 0 179 -63q62 -31 86 -31q46 0 99 89z" />
    <glyph glyph-name="uniE019" horiz-adv-x="1819" 
d="M976 1841q0 -45 -33 -79q-32 -33 -76 -33q-21 0 -40 8.5t-33 23t-22 34t-8 42.5q0 22 8.5 42t23.5 35t35 23.5t43 8.5q21 0 39.5 -8t32.5 -22.5t22 -33.5t8 -41zM1366 1842q0 -45 -33 -79q-32 -33 -76 -33q-21 0 -40 8.5t-33 22.5t-22 33.5t-8 42.5t8.5 43t23.5 35
t35 23.5t43 8.5q21 0 39.5 -8t32.5 -22.5t22 -33.5t8 -41z" />
    <glyph glyph-name="uniE01A" horiz-adv-x="1819" 
d="M1345 1950l-314 -275l-87 58l263 307z" />
    <glyph glyph-name="uniE01B" horiz-adv-x="1819" 
d="M848 1959l143 82l165 -316l-99 -50z" />
    <glyph glyph-name="uniE01C" horiz-adv-x="1819" 
d="M1077 1874l-258 -199l-88 85l368 282l260 -283l-95 -82z" />
    <glyph glyph-name="uniE01D" horiz-adv-x="1819" 
d="M1401 1904q-96 -162 -201 -162q-55 0 -185 67q-53 27 -77 27q-50 0 -95 -92l-101 55q99 164 196 164q50 0 179 -63q62 -31 86 -31q46 0 99 89z" />
    <glyph glyph-name="uniE01E" horiz-adv-x="1117" 
d="M725 1844l259 198l87 -84l-368 -283l-260 283l95 82z" />
    <glyph glyph-name="uniE01F" horiz-adv-x="1527" 
d="M834 1842q0 -46 -33 -80q-32 -33 -76 -33q-21 0 -40 8.5t-33 22.5t-22 33.5t-8 42.5t8.5 43t23.5 35t35 23.5t43 8.5q21 0 40 -8t32.5 -22.5t21.5 -33.5t8 -40zM1224 1842q0 -45 -33 -79q-32 -33 -76 -33q-21 0 -40 8.5t-33 23t-22 34t-8 42.5q0 22 8.5 42t23.5 35
t35 23.5t43 8.5q21 0 40 -8t32.5 -22.5t21.5 -33.5t8 -41z" />
    <glyph glyph-name="uniE020" horiz-adv-x="1527" 
d="M1199 1950l-314 -275l-87 58l263 307z" />
    <glyph glyph-name="uniE021" horiz-adv-x="1527" 
d="M707 1959l143 82l165 -316l-99 -50z" />
    <glyph glyph-name="uniE022" horiz-adv-x="1527" 
d="M946 1874l-257 -199l-88 85l368 282l260 -283l-95 -82z" />
    <glyph glyph-name="uniE023" horiz-adv-x="1267" 
d="M831 1844l258 198l88 -84l-368 -283l-260 283l95 82z" />
    <glyph glyph-name="uniE024" horiz-adv-x="1204" 
d="M653 1841q0 -45 -33 -79q-32 -33 -76 -33q-21 0 -40 8.5t-33 23t-22 34t-8 42.5q0 22 8.5 42t23.5 35t35 23.5t43 8.5q21 0 39.5 -8t32.5 -22.5t22 -33.5t8 -41zM1043 1842q0 -45 -33 -79q-32 -33 -76 -33q-21 0 -40 8.5t-33 22.5t-22 33.5t-8 42.5t8.5 43t23.5 35
t35 23.5t43 8.5q21 0 39.5 -8t32.5 -22.5t22 -33.5t8 -41z" />
    <glyph glyph-name="uniE025" horiz-adv-x="477" 
d="M283 1261q0 -21 -7.5 -39.5t-21 -32.5t-31.5 -22t-39 -8q-40 0 -68 28.5t-28 71.5q0 22 8 41.5t22 33.5t33 22.5t40 8.5q19 0 36 -8t29.5 -22t19.5 -33t7 -41zM556 1261q0 -41 -30 -72q-29 -30 -70 -30q-40 0 -68 28.5t-28 71.5q0 22 8 41.5t22 33.5t33 22.5t40 8.5
q19 0 36 -8t30 -22t20 -33t7 -41z" />
    <glyph glyph-name="uniE026" horiz-adv-x="477" 
d="M601 1387l-291 -291l-87 58l240 323z" />
    <glyph glyph-name="uniE027" horiz-adv-x="477" 
d="M107 1389l136 88l164 -324l-99 -57z" />
    <glyph glyph-name="uniE028" horiz-adv-x="477" 
d="M349 1306l-204 -210l-80 85l306 305l198 -306l-87 -82z" />
    <glyph glyph-name="periodcentered" unicode="&#x2219;" horiz-adv-x="632" 
d="M201 774q0 46 33 79q34 33 81 33q24 0 45 -9t36.5 -24t24.5 -36t9 -45q0 -47 -34 -80q-33 -33 -80 -33q-24 0 -45 9t-36.5 24.5t-24.5 36.5t-9 45z" />
    <glyph glyph-name="apple" unicode="&#xf8ff;" horiz-adv-x="1184" 
d="M866 479q57 0 104.5 21.5t84.5 58.5q-28 -73 -76 -134.5t-110.5 -106.5t-138 -70t-157.5 -25q-72 0 -137.5 19t-122.5 52.5t-103.5 80.5t-80.5 104h82v316h2l244 -316h133v512h-133v-311h-2l-244 311h-82q34 58 80.5 105t103.5 80.5t122.5 52t137.5 18.5
q82 0 157.5 -24.5t138 -68.5t110 -105.5t74.5 -135.5q-72 78 -187 78h-188v-512h188zM811 879h31q63 0 104 -37.5t41 -106.5q0 -37 -11.5 -63.5t-32 -44t-47 -25.5t-56.5 -8h-29v285z" />
    <glyph glyph-name="Scedilla" unicode="&#x15e;" horiz-adv-x="1117" 
d="M1076 1327l-119 -105q-99 191 -275 191q-111 0 -187 -73q-76 -72 -76 -178q0 -85 49 -143q49 -59 195 -147q199 -118 269 -216q72 -96 72 -243q0 -193 -131 -318t-331 -125q-323 0 -470 330l135 79q54 -130 132.5 -189t198.5 -59q130 0 211 82q82 82 82 215q0 94 -54 159
q-52 63 -211 159q-182 110 -250 198q-66 88 -66 220q0 181 121 296q122 116 312 116q253 0 393 -249zM598 -192l-248 -281l-89 57l193 309z" />
    <glyph glyph-name="Scedilla" unicode="&#xf6c1;" horiz-adv-x="1117" 
d="M1076 1327l-119 -105q-99 191 -275 191q-111 0 -187 -73q-76 -72 -76 -178q0 -85 49 -143q49 -59 195 -147q199 -118 269 -216q72 -96 72 -243q0 -193 -131 -318t-331 -125q-323 0 -470 330l135 79q54 -130 132.5 -189t198.5 -59q130 0 211 82q82 82 82 215q0 94 -54 159
q-52 63 -211 159q-182 110 -250 198q-66 88 -66 220q0 181 121 296q122 116 312 116q253 0 393 -249zM598 -192l-248 -281l-89 57l193 309z" />
    <glyph glyph-name="scedilla" unicode="&#x15f;" horiz-adv-x="804" 
d="M733 848l-102 -101q-92 71 -178 71q-68 0 -111 -36q-44 -35 -44 -89q0 -48 33 -79t131 -78q132 -65 180 -123q49 -58 49 -155q0 -126 -95 -207t-239 -81q-206 0 -321 198l123 77q77 -128 198 -128q75 0 120.5 38t45.5 101q0 54 -32 84t-147 84q-57 27 -97.5 55t-66 59.5
t-37.5 67.5t-12 80q0 121 91 200q92 80 231 80q156 0 280 -118zM470 -192l-247 -281l-82 57l194 309z" />
    <glyph glyph-name="scedilla" unicode="&#xf6c2;" horiz-adv-x="804" 
d="M733 848l-102 -101q-92 71 -178 71q-68 0 -111 -36q-44 -35 -44 -89q0 -48 33 -79t131 -78q132 -65 180 -123q49 -58 49 -155q0 -126 -95 -207t-239 -81q-206 0 -321 198l123 77q77 -128 198 -128q75 0 120.5 38t45.5 101q0 54 -32 84t-147 84q-57 27 -97.5 55t-66 59.5
t-37.5 67.5t-12 80q0 121 91 200q92 80 231 80q156 0 280 -118zM470 -192l-247 -281l-82 57l194 309z" />
    <glyph glyph-name="fraction" unicode="&#x2044;" horiz-adv-x="341" 
d="M-415 35l1140 1540l91 -68l-1141 -1537z" />
    <glyph glyph-name="foundryicon" horiz-adv-x="1184" 
d="M866 479q57 0 104.5 21.5t84.5 58.5q-28 -73 -76 -134.5t-110.5 -106.5t-138 -70t-157.5 -25q-72 0 -137.5 19t-122.5 52.5t-103.5 80.5t-80.5 104h82v316h2l244 -316h133v512h-133v-311h-2l-244 311h-82q34 58 80.5 105t103.5 80.5t122.5 52t137.5 18.5
q82 0 157.5 -24.5t138 -68.5t110 -105.5t74.5 -135.5q-72 78 -187 78h-188v-512h188zM811 879h31q63 0 104 -37.5t41 -106.5q0 -37 -11.5 -63.5t-32 -44t-47 -25.5t-56.5 -8h-29v285z" />
    <glyph glyph-name="Commaaccent" horiz-adv-x="477" 
d="M463 1689l-31 -258l-105 -182l-52 22l78 160l2 38h-84l27 220h165z" />
    <glyph glyph-name=".null" unicode="&#x2400;" horiz-adv-x="1024" 
 />
  </font>
</defs>
</svg>
