<?xml version="1.0" encoding="utf-8"?>
<!-- Generator: Adobe Illustrator 15.0.2, SVG Export Plug-In  -->
<!DOCTYPE svg PUBLIC "-//W3C//DTD SVG 1.1//EN" "http://www.w3.org/Graphics/SVG/1.1/DTD/svg11.dtd" [
	<!ENTITY ns_flows "http://ns.adobe.com/Flows/1.0/">
]>
<svg version="1.1"
	 xmlns="http://www.w3.org/2000/svg" xmlns:xlink="http://www.w3.org/1999/xlink" xmlns:a="http://ns.adobe.com/AdobeSVGViewerExtensions/3.0/"
	 x="0px" y="0px" width="49px" height="40px" viewBox="-0.125 0 49 40" overflow="visible" enable-background="new -0.125 0 49 40"
	 xml:space="preserve">
<defs>
</defs>
<!-- <path fill="#EB6E1E" d="M0,7.5L7.5,0H20v8.75h-7.5L11.25,10v8.75H20V40H0V7.5z M28.75,7.5l7.5-7.5h12.5v8.75h-7.5L40,10v8.75h8.75
	V40h-20V7.5z"/> -->
<path fill="#ffffff" d="M0,7.5L7.5,0H20v8.75h-7.5L11.25,10v8.75H20V40H0V7.5z M28.75,7.5l7.5-7.5h12.5v8.75h-7.5L40,10v8.75h8.75
	V40h-20V7.5z"/>
</svg>
