<?xml version="1.0" encoding="utf-8"?>
<!-- Generator: Adobe Illustrator 15.0.2, SVG Export Plug-In  -->
<!DOCTYPE svg PUBLIC "-//W3C//DTD SVG 1.1//EN" "http://www.w3.org/Graphics/SVG/1.1/DTD/svg11.dtd" [
	<!ENTITY ns_flows "http://ns.adobe.com/Flows/1.0/">
]>
<svg version="1.1"
	 xmlns="http://www.w3.org/2000/svg" xmlns:xlink="http://www.w3.org/1999/xlink" xmlns:a="http://ns.adobe.com/AdobeSVGViewerExtensions/3.0/"
	 x="0px" y="0px" width="49px" height="40px" viewBox="-0.125 0 49 40" overflow="visible" enable-background="new -0.125 0 49 40"
	 xml:space="preserve">
<defs>
</defs>
<!-- <path fill="#EB6E1E" d="M48.75,32.5l-7.5,7.5h-12.5v-8.75h7.5L37.5,30v-8.75h-8.75V0h20V32.5z M20,32.5L12.5,40H0v-8.75h7.5L8.75,30
	v-8.75H0V0h20V32.5z"/> -->
<path fill="#ffffff" d="M48.75,32.5l-7.5,7.5h-12.5v-8.75h7.5L37.5,30v-8.75h-8.75V0h20V32.5z M20,32.5L12.5,40H0v-8.75h7.5L8.75,30
	v-8.75H0V0h20V32.5z"/>
</svg>
