<?xml version="1.0" standalone="no"?>
<!DOCTYPE svg PUBLIC "-//W3C//DTD SVG 1.1//EN" "http://www.w3.org/Graphics/SVG/1.1/DTD/svg11.dtd" >
<svg>
<metadata>
Created by FontForge 20120731 at Sat Jul 19 05:35:03 2014
 By World Wide Web Server
(c) Copyright 1998, Neufville Digital. ALL RIGHTS RESERVED. This font is licensed, not sold, and may not be reproduced without the written consent of Neufville Digital. Parts (c) Visualogik Technology &#38; Design, 1998. The digitally encoded machine readable outline data for producing the typefaces licensed to you is copyrighted (c), 1998 by and the property of Visualogik, a subsidiary of VISINOVA bv.
</metadata>
<defs>
<font id="FuturaNDBook" horiz-adv-x="1264" >
  <font-face 
    font-family="FuturaNDBook"
    font-weight="400"
    font-stretch="normal"
    units-per-em="2048"
    panose-1="2 11 5 2 2 2 4 2 3 3"
    ascent="1557"
    descent="-491"
    x-height="962"
    cap-height="1544"
    bbox="-331 -578 2419 2076"
    underline-thickness="160"
    underline-position="-149"
    unicode-range="U+0020-FFE6"
  />
<missing-glyph horiz-adv-x="1024" 
d="M200 0v1544h624v-1544h-624zM781 43v1458h-538v-1458h538z" />
    <glyph glyph-name=".notdef" horiz-adv-x="1024" 
d="M200 0v1544h624v-1544h-624zM781 43v1458h-538v-1458h538z" />
    <glyph glyph-name="space" unicode=" " horiz-adv-x="632" 
 />
    <glyph glyph-name="exclam" unicode="!" horiz-adv-x="645" 
d="M208 92q0 47 33 80q34 33 81 33q48 0 81 -33q34 -33 34 -80q0 -24 -9 -45t-24.5 -36t-36.5 -24t-45 -9q-47 0 -81 33q-33 33 -33 81zM237 313v1231h169v-1231h-169z" />
    <glyph glyph-name="quotedbl" unicode="&#x22;" horiz-adv-x="763" 
d="M279 923h-126l-30 621h187zM609 923h-125l-30 621h186z" />
    <glyph glyph-name="numbersign" unicode="#" horiz-adv-x="1364" 
d="M1273 1092v-139h-254l-40 -324h237v-139h-255l-61 -495l-145 19l59 476h-328l-62 -495l-144 19l59 476h-247v139h265l40 324h-247v139h264l57 464l145 -20l-55 -444h325l58 464l145 -20l-56 -444h240zM869 953h-325l-40 -324h326z" />
    <glyph glyph-name="dollar" unicode="$" 
d="M731 1558q207 -32 324 -234l-135 -89q-84 133 -189 159v-507q212 -93 296 -189t84 -248q0 -171 -104 -296t-276 -163v-225h-136v216q-173 9 -286.5 109.5t-155.5 283.5l166 46q58 -260 276 -279v625q-197 81 -280 173t-83 228q0 152 98 259q98 105 265 131v210h136v-210z
M731 704v-548q100 37 153.5 111.5t53.5 174.5q0 161 -207 262zM595 947v449q-91 -22 -140.5 -83.5t-49.5 -146.5q0 -131 190 -219z" />
    <glyph glyph-name="percent" unicode="%" horiz-adv-x="1657" 
d="M77 1228q0 136 101 234q104 98 243 98q143 0 244 -99q101 -98 101 -238q0 -141 -101 -239t-247 -98q-142 0 -242 99q-99 100 -99 243zM213 1226q0 -88 60 -149q61 -61 148 -61q86 0 146 61q61 61 61 147t-61 146q-60 61 -147 61q-85 0 -146 -61q-61 -60 -61 -144z
M1232 1574l90 -50l-899 -1553l-89 52zM892 326q0 136 101 234q104 98 243 98q141 0 242 -99q101 -98 101 -238t-101 -238q-100 -97 -245 -97q-142 0 -242 99q-99 99 -99 241zM1028 325q0 -89 60 -150q61 -61 148 -61q86 0 147 61t61 147q0 87 -61 147q-61 61 -147 61
t-147 -61q-61 -60 -61 -144z" />
    <glyph glyph-name="ampersand" unicode="&#x26;" horiz-adv-x="1473" 
d="M762 880l323 -415q85 88 176 203l123 -103q-42 -58 -90.5 -115t-105.5 -114l262 -336h-215l-168 214q-272 -242 -496 -242q-187 0 -317 124t-130 304q0 145 78 249q78 105 289 244l30 19q-86 115 -121 189q-32 73 -32 143q0 140 96 233t241 93q139 0 234 -89t95 -221
q0 -101 -56 -181q-28 -38 -81.5 -88t-134.5 -111zM622 786l-114 -77q-216 -149 -216 -300q0 -115 82 -197q82 -84 195 -84q160 0 396 215zM662 1005l25 19q58 42 95 74t54 54q34 43 34 110q0 69 -48 114q-46 46 -120 46q-72 0 -121 -49t-49 -120t61 -153l58 -78q0 -1 11 -17
z" />
    <glyph glyph-name="quotesingle" unicode="'" horiz-adv-x="432" 
d="M279 923h-125l-31 621h187z" />
    <glyph glyph-name="parenleft" unicode="(" horiz-adv-x="680" 
d="M386 1699l147 -68q-173 -448 -173 -990q0 -541 173 -989l-147 -68q-89 191 -141 475q-52 278 -52 582t52 582q52 285 141 476z" />
    <glyph glyph-name="parenright" unicode=")" horiz-adv-x="680" 
d="M294 -416l-147 68q174 445 174 989t-174 990l147 68q89 -191 141 -476q52 -278 52 -582q0 -299 -52 -583q-53 -284 -141 -474z" />
    <glyph glyph-name="asterisk" unicode="*" 
d="M576 1401l-12 288h154l-12 -288l271 101l47 -147l-277 -78l179 -226l-125 -90l-160 240l-159 -240l-125 90l179 226l-278 78l48 147z" />
    <glyph glyph-name="plus" unicode="+" 
d="M87 716v143h474v466h142v-466h474v-143h-474v-466h-142v466h-474z" />
    <glyph glyph-name="comma" unicode="," horiz-adv-x="632" 
d="M290 226l151 -55l-233 -521l-110 44z" />
    <glyph glyph-name="hyphen" unicode="-" horiz-adv-x="420" 
d="M0 568h420v-148h-420v148z" />
    <glyph glyph-name="period" unicode="." horiz-adv-x="632" 
d="M201 93q0 46 33 79q34 33 81 33q24 0 45 -9t36.5 -24t24.5 -36t9 -45q0 -47 -34 -80q-33 -33 -80 -33q-24 0 -45 9t-36.5 24.5t-24.5 36.5t-9 45z" />
    <glyph glyph-name="slash" unicode="/" horiz-adv-x="1124" 
d="M978 1699l134 -62l-1010 -2053l-133 62z" />
    <glyph glyph-name="zero" unicode="0" 
d="M80 779q0 334 160 560q160 228 394 228q216 0 375 -203q175 -223 175 -589q0 -378 -183 -604q-158 -195 -368 -195q-219 0 -378 205q-175 226 -175 598zM248 776q0 -279 109 -460q110 -182 276 -182q160 0 270 185q111 184 111 452q0 270 -110 455q-109 184 -274 184
q-161 0 -272 -184q-110 -185 -110 -450z" />
    <glyph glyph-name="one" unicode="1" 
d="M588 1384h-256l90 160h339v-1544h-173v1384z" />
    <glyph glyph-name="two" unicode="2" 
d="M442 161h647v-161h-997l561 650q151 175 210 276q58 100 58 187q0 125 -90 211q-92 86 -220 86q-150 0 -238 -108q-57 -69 -70 -209h-173q17 172 78 266q64 97 170 153q106 55 232 55q201 0 341 -132t140 -325q0 -126 -65 -242q-32 -58 -98.5 -143.5t-169.5 -203.5z" />
    <glyph glyph-name="three" unicode="3" 
d="M602 734v150q146 0 226 68.5t80 195.5q0 114 -75 188q-77 74 -190 74q-58 0 -101.5 -14t-75 -43.5t-52 -76.5t-32.5 -113h-169q31 207 136 305.5t294 98.5t312 -117t123 -298q0 -230 -197 -341q106 -51 163 -147.5t57 -226.5q0 -201 -136 -331t-343 -130q-122 0 -225 51
q-106 53 -164 142q-59 85 -69 231h167q17 -116 72 -173q90 -93 225 -93q128 0 215 89q88 88 88 221q0 140 -85 215t-244 75z" />
    <glyph glyph-name="four" unicode="4" 
d="M983 409h190v-156h-190v-253h-172v253h-791l963 1377v-1221zM811 409v698l-489 -698h489z" />
    <glyph glyph-name="five" unicode="5" 
d="M1080 1384h-494l-100 -330q46 9 87 9q223 0 370 -153q148 -151 148 -383q0 -237 -162 -394q-160 -157 -405 -157q-303 0 -472 274l137 97q133 -213 348 -213q162 0 273 113q111 112 111 278q0 161 -110 274q-110 111 -271 111q-132 0 -298 -106l224 740h614v-160z" />
    <glyph glyph-name="six" unicode="6" 
d="M753 1583l129 -97l-355 -495q73 22 143 22q205 0 349 -149q145 -148 145 -360q0 -220 -156 -374q-154 -154 -374 -154t-377 153t-157 368q0 181 127 356zM994 493q0 154 -106 260q-105 107 -256 107q-150 0 -256 -106t-106 -256q0 -152 106 -258t257 -106q148 0 254 106
q107 107 107 253z" />
    <glyph glyph-name="seven" unicode="7" 
d="M967 1384h-843v160h1137l-1035 -1580l-134 90z" />
    <glyph glyph-name="eight" unicode="8" 
d="M393 803q-189 115 -189 340q0 181 124 302q125 122 309 122q187 0 308 -121q124 -121 124 -303q0 -102 -53 -197q-53 -92 -141 -143q106 -52 165.5 -149t59.5 -224q0 -195 -132 -325q-132 -129 -332 -129t-337 128q-135 129 -135 322q0 260 229 377zM368 1145
q0 -115 78 -194t190 -79q111 0 189 79q79 79 79 191q0 111 -79 189q-78 79 -190 79q-109 0 -188 -79q-79 -78 -79 -186zM334 434q0 -125 87 -213q87 -87 212 -87q123 0 210 87t87 209q0 124 -88 209q-87 87 -211 87q-121 0 -209 -87q-88 -85 -88 -205z" />
    <glyph glyph-name="nine" unicode="9" 
d="M509 -37l-129 96l356 495q-75 -21 -141 -21q-207 0 -352 148q-144 148 -144 360q0 217 155 372q154 154 376 154q219 0 377 -153q158 -152 158 -366q0 -178 -129 -356zM269 1052q0 -154 105 -260q106 -106 258 -106q150 0 256 106q107 107 107 256t-107 256
q-106 106 -257 106q-149 0 -255 -106q-107 -105 -107 -252z" />
    <glyph glyph-name="colon" unicode=":" horiz-adv-x="632" 
d="M201 93q0 46 33 79q34 33 81 33q24 0 45 -9t36.5 -24t24.5 -36t9 -45q0 -47 -34 -80q-33 -33 -80 -33q-24 0 -45 9t-36.5 24.5t-24.5 36.5t-9 45zM201 872q0 45 34 78q34 34 80 34q48 0 81 -33q34 -33 34 -80q0 -48 -34 -81q-33 -33 -80 -33q-24 0 -45 9t-36.5 24.5
t-24.5 36.5t-9 45z" />
    <glyph glyph-name="semicolon" unicode=";" horiz-adv-x="632" 
d="M290 226l151 -55l-232 -521l-111 44zM229 871q0 46 33 79q34 34 81 34q48 0 81 -33t33 -80q0 -48 -34 -81q-33 -33 -80 -33q-48 0 -81 33q-33 34 -33 81z" />
    <glyph glyph-name="less" unicode="&#x3c;" 
d="M1134 1327v-173l-818 -374l818 -374v-173l-1004 472v151z" />
    <glyph glyph-name="equal" unicode="=" 
d="M87 865v134h1090v-134h-1090zM87 576v134h1090v-134h-1090z" />
    <glyph glyph-name="greater" unicode="&#x3e;" 
d="M130 233v173l817 374l-817 374v172l1003 -471v-151z" />
    <glyph glyph-name="question" unicode="?" horiz-adv-x="1010" 
d="M669 662h166q0 -159 -93 -256q-91 -97 -242 -97q-140 0 -235 95q-95 98 -95 237q0 59 16 106.5t50.5 85.5t87 68t126.5 54q166 53 206 92q54 52 54 144q0 93 -60 153q-59 60 -151 60q-87 0 -145 -58q-58 -57 -58 -144q0 -18 3 -42.5t10 -55.5h-169q-9 67 -9 107
q0 150 107 251t265 101q162 0 268 -106q107 -105 107 -265q0 -174 -117 -277q-64 -55 -268 -114q-157 -46 -157 -171q0 -69 48 -117q49 -48 118 -48q153 0 167 197zM390 92q0 47 34 80t81 33t80 -33q34 -33 34 -80q0 -48 -34 -81q-33 -33 -80 -33q-24 0 -45 9t-36.5 24
t-24.5 36t-9 45z" />
    <glyph glyph-name="at" unicode="@" horiz-adv-x="1667" 
d="M1255 1176l-63 -525q-4 -29 -5.5 -55.5t-1.5 -49.5q0 -75 62 -75q81 0 146 122q66 123 66 275q0 247 -167 405q-167 159 -429 159q-276 0 -465 -190q-189 -191 -189 -469q0 -163 69 -304q71 -141 195 -232q167 -122 421 -122q243 0 492 120l15 7l50 -136l-12 -6
q-263 -126 -542 -126q-309 0 -517 151q-152 110 -237 281q-85 170 -85 367q0 339 232 568q233 230 573 230q315 0 525 -198q210 -197 210 -492q0 -224 -111 -390t-261 -166q-124 0 -168 137q-70 -79 -134 -110q-61 -31 -149 -31q-168 0 -279 119q-110 122 -110 301
q0 195 123 324q124 130 309 130q169 0 272 -130l13 111h152zM1058 801q0 108 -64 175q-63 69 -163 69q-115 0 -193 -89q-77 -89 -77 -220q0 -113 62 -190q63 -75 160 -75q109 0 192 99q83 101 83 231z" />
    <glyph glyph-name="A" unicode="A" horiz-adv-x="1436" 
d="M1049 437h-660l-187 -437h-187l711 1618l694 -1618h-189zM981 598l-258 619l-264 -619h522z" />
    <glyph glyph-name="B" unicode="B" horiz-adv-x="1228" 
d="M201 0v1544h280q258 0 376 -121q116 -119 116 -298q0 -189 -152 -300q137 -39 214 -143t77 -248q0 -181 -128 -304q-73 -70 -165 -100t-233 -30h-385zM374 863h129q97 0 145 16q51 17 91 60q66 70 66 184q0 261 -297 261h-134v-521zM374 161h197q115 0 177 18
q61 18 111 66q82 79 82 195q0 135 -104 212q-85 64 -289 64h-174v-555z" />
    <glyph glyph-name="C" unicode="C" horiz-adv-x="1496" 
d="M1381 1417v-213q-218 204 -467 204q-256 0 -440 -190q-184 -187 -184 -453q0 -287 213 -470q185 -161 412 -161q249 0 466 202v-214q-221 -149 -465 -149q-329 0 -564 234q-236 234 -236 560q0 331 237 567q239 236 572 236q238 0 456 -153z" />
    <glyph glyph-name="D" unicode="D" horiz-adv-x="1467" 
d="M201 0v1544h317q207 0 354 -54q148 -54 265 -172q214 -217 214 -546q0 -330 -219 -547q-122 -120 -265 -173q-141 -52 -352 -52h-314zM374 161h150q307 0 482 178q171 172 171 433t-170 434q-172 178 -483 178h-150v-1223z" />
    <glyph glyph-name="E" unicode="E" horiz-adv-x="1116" 
d="M1001 1384h-627v-459h610v-161h-610v-603h627v-161h-800v1544h800v-160z" />
    <glyph glyph-name="F" unicode="F" horiz-adv-x="1004" 
d="M904 1384h-530v-459h513v-161h-513v-764h-173v1544h703v-160z" />
    <glyph glyph-name="G" unicode="G" horiz-adv-x="1755" 
d="M996 775h644v-40q0 -243 -81 -391q-94 -170 -270 -271q-175 -100 -381 -100q-327 0 -559 234q-233 236 -233 562q0 332 236 566q235 235 570 235q198 0 349 -79q78 -40 152.5 -103t149.5 -154l-127 -115q-115 151 -240 220t-283 69q-263 0 -448 -188t-185 -453
q0 -275 199 -459q187 -174 422 -174q126 0 250 59q121 58 199 157q83 107 94 265h-458v160z" />
    <glyph glyph-name="H" unicode="H" horiz-adv-x="1536" 
d="M374 916h789v628h173v-1544h-173v755h-789v-755h-173v1544h173v-628z" />
    <glyph glyph-name="I" unicode="I" horiz-adv-x="574" 
d="M374 1544v-1544h-173v1544h173z" />
    <glyph glyph-name="J" unicode="J" horiz-adv-x="711" 
d="M511 1544v-1115q0 -142 -24 -223q-24 -80 -84 -139q-94 -94 -233 -94q-134 0 -277 116l96 132q96 -87 178 -87q89 0 130 70.5t41 224.5v1115h173z" />
    <glyph glyph-name="K" unicode="K" horiz-adv-x="1317" 
d="M374 881l658 663h231l-724 -720l748 -824h-237l-632 708l-44 -42v-666h-173v1544h173v-663z" />
    <glyph glyph-name="L" unicode="L" horiz-adv-x="829" 
d="M374 1544v-1383h425v-161h-598v1544h173z" />
    <glyph glyph-name="M" unicode="M" horiz-adv-x="1998" 
d="M147 0l256 1632l593 -1305l606 1305l239 -1632h-176l-144 1074l-527 -1137l-519 1138l-152 -1075h-176z" />
    <glyph glyph-name="N" unicode="N" horiz-adv-x="1777" 
d="M201 0v1609l1203 -1261v1196h173v-1613l-1203 1259v-1190h-173z" />
    <glyph glyph-name="O" unicode="O" horiz-adv-x="1839" 
d="M116 781q0 321 239 555q238 234 566 234q330 0 566 -236t236 -563q0 -331 -238 -565q-239 -233 -572 -233q-295 0 -534 209q-263 233 -263 599zM290 780q0 -284 197 -470q188 -176 428 -176q264 0 449 186q185 188 185 451q0 267 -184 451q-183 186 -444 186
q-257 0 -445 -185q-186 -185 -186 -443z" />
    <glyph glyph-name="P" unicode="P" horiz-adv-x="1059" 
d="M374 676v-676h-173v1544h280q153 0 254 -32q97 -31 166 -105q112 -121 112 -297q0 -201 -131 -318q-131 -116 -358 -116h-150zM374 834h140q159 0 244 71.5t85 206.5q0 272 -342 272h-127v-550z" />
    <glyph glyph-name="Q" unicode="Q" horiz-adv-x="1839" 
d="M1732 -14h-219l-130 138q-208 -151 -468 -151q-307 0 -539 208q-260 233 -260 586q0 331 236 567t568 236q309 0 541 -211q263 -237 263 -597q0 -158 -52 -283q-52 -126 -171 -260zM1115 621l266 -279q168 189 168 424q0 270 -183 456q-182 186 -447 186
q-264 0 -447 -186q-182 -185 -182 -455q0 -277 193 -457q188 -176 431 -176q193 0 348 111l-372 376h225z" />
    <glyph glyph-name="R" unicode="R" horiz-adv-x="1163" 
d="M604 691l490 -691h-210l-466 677h-44v-677h-173v1544h249q275 0 403 -108q139 -118 139 -325q0 -174 -107 -290q-106 -115 -281 -130zM374 829h108q166 0 253 72t87 210q0 273 -345 273h-103v-555z" />
    <glyph glyph-name="S" unicode="S" horiz-adv-x="1198" 
d="M1026 1329l-137 -89q-57 94 -117 131q-58 37 -147 37q-109 0 -183 -68q-73 -67 -73 -170q0 -137 218 -232l147 -65q186 -82 267 -181q82 -97 82 -244q0 -202 -142 -338q-143 -137 -349 -137q-183 0 -308 104q-125 103 -168 294l167 47q63 -284 315 -284q128 0 220 89
q90 88 90 215q0 97 -58 161q-57 64 -203 129l-140 64q-85 37 -143.5 77.5t-95.5 85.5q-73 88 -73 217q0 171 123 285q124 114 310 114q258 0 398 -242z" />
    <glyph glyph-name="T" unicode="T" horiz-adv-x="984" 
d="M578 1384v-1384h-173v1384h-374v160h922v-160h-375z" />
    <glyph glyph-name="U" unicode="U" horiz-adv-x="1502" 
d="M374 1544v-946q0 -136 15 -205q15 -68 57 -121q50 -62 133 -100q87 -38 172 -38q87 0 172 38t134 100q42 53 57 121q15 69 15 205v946h173v-993q0 -145 -31 -235q-31 -94 -104 -170q-164 -173 -415 -173q-252 0 -416 173q-73 76 -104 170q-31 90 -31 235v993h173z" />
    <glyph glyph-name="V" unicode="V" horiz-adv-x="1283" 
d="M204 1544l438 -1177l439 1177h187l-628 -1635l-625 1635h189z" />
    <glyph glyph-name="W" unicode="W" horiz-adv-x="2213" 
d="M204 1544l410 -1158l484 1237l458 -1237l452 1158h189l-647 -1623l-455 1234l-487 -1235l-593 1624h189z" />
    <glyph glyph-name="X" unicode="X" horiz-adv-x="1163" 
d="M488 798l-417 746h195l321 -581l326 581h198l-426 -746l447 -798h-193l-354 634l-360 -634h-194z" />
    <glyph glyph-name="Y" unicode="Y" horiz-adv-x="1222" 
d="M520 664l-505 880h199l394 -689l399 689h200l-514 -880v-664h-173v664z" />
    <glyph glyph-name="Z" unicode="Z" horiz-adv-x="1237" 
d="M340 161h821v-161h-1107l842 1384h-734v160h1021z" />
    <glyph glyph-name="bracketleft" unicode="[" horiz-adv-x="675" 
d="M355 1533v-1784h219v-156h-389v2096h389v-156h-219z" />
    <glyph glyph-name="backslash" unicode="\" horiz-adv-x="1124" 
d="M146 1699l1010 -2053l-134 -62l-1010 2053z" />
    <glyph glyph-name="bracketright" unicode="]" horiz-adv-x="675" 
d="M319 -251v1784h-219v156h389v-2096h-389v156h219z" />
    <glyph glyph-name="asciicircum" unicode="^" horiz-adv-x="1158" 
d="M244 843h-187l408 706h229l408 -706h-189l-335 568z" />
    <glyph glyph-name="underscore" unicode="_" horiz-adv-x="1158" 
d="M0 -148h1158v-160h-1158v160z" />
    <glyph glyph-name="grave" unicode="`" horiz-adv-x="1158" 
d="M263 1442l171 78l244 -336l-103 -57z" />
    <glyph glyph-name="a" unicode="a" horiz-adv-x="1214" 
d="M891 962h165v-962h-165v133q-135 -160 -332 -160q-200 0 -332 144q-131 146 -131 366q0 218 130 360t330 142q199 0 335 -160v137zM264 488q0 -159 89 -263q88 -103 227 -103q142 0 232 100t90 260q0 157 -90 255q-89 98 -231 98q-135 0 -226 -100q-91 -97 -91 -247z" />
    <glyph glyph-name="b" unicode="b" horiz-adv-x="1214" 
d="M323 1689v-864q136 159 336 159q199 0 329 -142q131 -143 131 -360q0 -220 -132 -365q-131 -144 -331 -144t-333 160v-133h-165v1689h165zM950 475q0 156 -89 257q-89 102 -225 102q-144 0 -234 -98t-90 -255q0 -158 90 -258q90 -101 230 -101q135 0 227 101
q91 100 91 252z" />
    <glyph glyph-name="c" unicode="c" horiz-adv-x="1008" 
d="M907 892v-217q-80 88 -147 123q-68 36 -156 36q-146 0 -243 -103q-97 -100 -97 -254q0 -152 96 -254q98 -101 241 -101q90 0 161 38q35 19 72 51.5t79 78.5v-218q-155 -99 -307 -99q-215 0 -363 145q-147 145 -147 357q0 215 147 362q148 147 365 147q156 0 299 -92z" />
    <glyph glyph-name="d" unicode="d" horiz-adv-x="1214" 
d="M891 1689h165v-1689h-165v133q-132 -160 -333 -160q-199 0 -331 144q-131 146 -131 365q0 218 130 360t329 142t336 -159v864zM264 487q0 -158 89 -262q88 -103 227 -103q142 0 232 100t90 260q0 155 -90 253q-89 99 -231 99q-135 0 -226 -100q-91 -97 -91 -247z" />
    <glyph glyph-name="e" unicode="e" horiz-adv-x="1115" 
d="M1020 446h-750q7 -147 90 -236q84 -88 216 -88q93 0 161 44q68 45 135 157l139 -78q-158 -272 -441 -272q-210 0 -342 140t-132 362q0 224 129 367q130 142 337 142t332 -140q126 -140 126 -369v-29zM846 585q-23 114 -99 181q-77 68 -183 68t-185 -70q-80 -71 -98 -179
h565z" />
    <glyph glyph-name="f" unicode="f" horiz-adv-x="554" 
d="M322 809v-809h-165v809h-91v153h91v408q0 178 69 262t217 84q52 0 120 -21v-166q-66 23 -109 23q-78 0 -105 -45t-27 -175v-370h241v-153h-241z" />
    <glyph glyph-name="g" unicode="g" horiz-adv-x="1215" 
d="M1058 962v-941q0 -157 -27 -247q-26 -92 -95 -164q-133 -145 -354 -145q-203 0 -337 125q-132 124 -132 317h164q12 -145 89 -218.5t218 -73.5q154 0 231.5 95.5t77.5 284.5v138q-140 -158 -340 -158q-195 0 -326 143q-131 146 -131 359q0 219 132 363q133 145 334 145
q197 0 331 -159v136h165zM264 480q0 -157 87 -257q88 -100 227 -100q141 0 232 100t91 255q0 157 -90 258q-90 100 -232 100q-136 0 -226 -101q-89 -101 -89 -255z" />
    <glyph glyph-name="h" unicode="h" horiz-adv-x="1087" 
d="M158 1689h165v-840q114 135 276 135t255 -107q76 -85 76 -281v-596h-165v585q0 132 -47 190.5t-152 58.5q-64 0 -110 -20.5t-75.5 -63.5t-43.5 -110t-14 -160v-480h-165v1689z" />
    <glyph glyph-name="i" unicode="i" horiz-adv-x="481" 
d="M323 962v-962h-165v962h165zM122 1326q0 46 35 81t83 35t83 -35t35 -83q0 -49 -35 -84q-34 -34 -83 -34t-84 35q-34 34 -34 85z" />
    <glyph glyph-name="j" unicode="j" horiz-adv-x="481" 
d="M323 962v-1503h-165v1503h165zM122 1326q0 47 35 82q34 34 83 34t83 -34q35 -35 35 -84t-35 -84q-34 -34 -83 -34t-84 35q-34 34 -34 85z" />
    <glyph glyph-name="k" unicode="k" horiz-adv-x="975" 
d="M323 1689v-1082l348 355h220l-411 -410l489 -552h-216l-389 438l-41 -42v-396h-165v1689h165z" />
    <glyph glyph-name="l" unicode="l" horiz-adv-x="480" 
d="M323 1689v-1689h-165v1689h165z" />
    <glyph glyph-name="m" unicode="m" horiz-adv-x="1575" 
d="M158 962h165v-103q94 126 238 126q179 0 263 -156q91 156 282 156q154 0 241 -104q71 -89 71 -271v-610h-165v583q0 133 -40.5 192.5t-131.5 59.5q-207 0 -207 -301v-534h-165v571q0 264 -177 264q-209 0 -209 -312v-523h-165v962z" />
    <glyph glyph-name="n" unicode="n" horiz-adv-x="1086" 
d="M158 962h165v-117q114 140 276 140q165 0 256 -106q74 -86 74 -282v-597h-166v568q0 148 -45 208t-157 60q-125 0 -181.5 -84.5t-56.5 -270.5v-481h-165v962z" />
    <glyph glyph-name="o" unicode="o" horiz-adv-x="1208" 
d="M96 486q0 206 149 352t359 146q214 0 361 -147q147 -146 147 -359q0 -215 -148 -360q-145 -145 -364 -145q-213 0 -358 148q-146 149 -146 365zM264 483q0 -160 94 -260q95 -101 242 -101q151 0 247 99q97 100 97 257q0 155 -96 256q-96 100 -246 100q-144 0 -242 -101
q-96 -101 -96 -250z" />
    <glyph glyph-name="p" unicode="p" horiz-adv-x="1214" 
d="M323 -541h-165v1503h165v-136q138 159 332 159q202 0 332 -145q132 -144 132 -365q0 -217 -131 -360q-130 -142 -328 -142q-199 0 -337 161v-675zM950 470q0 158 -89 262q-88 103 -226 103q-140 0 -232 -101q-91 -100 -91 -259q0 -154 91 -254q91 -99 232 -99
q134 0 224 100q91 100 91 248z" />
    <glyph glyph-name="q" unicode="q" horiz-adv-x="1214" 
d="M891 -541v675q-137 -161 -336 -161t-329 142t-130 360q0 219 131 365q130 145 332 145q201 0 332 -159v136h165v-1503h-165zM264 482q0 -154 89 -258q88 -102 226 -102q143 0 233 98q90 99 90 256t-90 258q-89 101 -229 101q-136 0 -228 -101q-91 -100 -91 -252z" />
    <glyph glyph-name="r" unicode="r" horiz-adv-x="683" 
d="M158 962h165v-104q32 38 59 63.5t47 38.5q43 25 111 25q71 0 148 -41l-79 -149q-50 33 -95 33q-51 0 -87 -18.5t-59 -57.5t-34 -100t-11 -145v-507h-165v962z" />
    <glyph glyph-name="s" unicode="s" horiz-adv-x="811" 
d="M687 810l-137 -72q-50 96 -133 96q-47 0 -82 -32q-34 -31 -34 -75q0 -42 31 -70q29 -26 124 -67q172 -72 231 -134t59 -170q0 -134 -95 -224q-95 -89 -234 -89q-243 0 -337 244l145 61q41 -88 84 -122q40 -34 109 -34q71 0 114 43q45 43 45 109q0 53 -32 88
q-32 32 -124 72q-166 71 -222 127q-56 59 -56 153q0 115 80 192q81 78 201 78q174 0 263 -174z" />
    <glyph glyph-name="t" unicode="t" horiz-adv-x="496" 
d="M324 809v-809h-166v809h-100v153h100v346h166v-346h169v-153h-169z" />
    <glyph glyph-name="u" unicode="u" horiz-adv-x="1078" 
d="M323 962v-561q0 -140 41 -199q59 -80 175 -80t175 80q42 57 42 199v561h165v-579q0 -120 -25 -188q-25 -70 -85 -125q-106 -97 -272 -97q-165 0 -271 97q-61 55 -86 125q-24 70 -24 188v579h165z" />
    <glyph glyph-name="v" unicode="v" horiz-adv-x="980" 
d="M205 962l287 -647l285 647h185l-471 -1024l-472 1024h186z" />
    <glyph glyph-name="w" unicode="w" horiz-adv-x="1580" 
d="M205 962l285 -651l299 725l300 -725l288 651h185l-476 -1028l-297 716l-298 -716l-472 1028h186z" />
    <glyph glyph-name="x" unicode="x" horiz-adv-x="1052" 
d="M430 513l-351 449h201l251 -328l251 328h205l-352 -449l399 -513h-199l-304 392l-306 -392h-206z" />
    <glyph glyph-name="y" unicode="y" horiz-adv-x="1065" 
d="M461 91l-442 871h191l339 -689l312 689h186l-710 -1503h-187z" />
    <glyph glyph-name="z" unicode="z" horiz-adv-x="1065" 
d="M352 153h663v-153h-996l696 809h-567v153h896z" />
    <glyph glyph-name="braceleft" unicode="{" horiz-adv-x="675" 
d="M279 639q77 -43 109 -104q31 -58 31 -169v-418q0 -133 30 -170q31 -39 136 -39h18v-145h-64q-156 -2 -222 78q-66 78 -66 263v425q0 100 -30 148q-30 50 -103 69v136q71 19 102 66.5t31 138.5v454q0 84 16.5 144t52 98.5t90.5 56.5t132 18l61 -1v-145h-21
q-101 0 -132 -39q-31 -37 -31 -162v-433q0 -112 -30 -170q-29 -57 -110 -100z" />
    <glyph glyph-name="bar" unicode="|" horiz-adv-x="1158" 
d="M492 1544h174v-1929h-174v1929z" />
    <glyph glyph-name="braceright" unicode="}" horiz-adv-x="675" 
d="M396 642q-78 43 -109 103q-31 61 -31 171v419q0 133 -31 170q-32 38 -135 38h-18v146h64q156 0 222 -78t66 -263v-427q0 -49 7 -85.5t23 -62.5t41.5 -42.5t61.5 -25.5v-137q-72 -18 -102.5 -66t-30.5 -139v-452q0 -84 -16.5 -144t-52 -99t-90.5 -57t-132 -18l-61 1v146
l21 -1q99 0 131 39q32 41 32 163v432q0 112 30 169q28 56 110 100z" />
    <glyph glyph-name="asciitilde" unicode="~" horiz-adv-x="1544" 
d="M315 1348l-100 65q74 151 143 208q71 59 174 59q90 0 260 -79q159 -72 224 -72q68 0 111 34q47 34 99 122l102 -61q-129 -261 -334 -261q-79 0 -192 52l-131 59q-96 41 -151 41q-113 0 -205 -167z" />
    <glyph glyph-name="Euro" unicode="&#x20ac;" 
d="M1029 1408q-257 0 -441 -189q-104 -107 -149 -237h470v-131h-675q27 277 234 483q239 236 561 236v-162zM1030 -27q-327 0 -564 234q-204 204 -232 469h675v-131h-468q52 -144 176 -250q188 -161 412 -161z" />
    <glyph glyph-name="quotesinglbase" unicode="&#x201a;" horiz-adv-x="584" 
d="M298 232l151 -56l-232 -521l-111 44z" />
    <glyph glyph-name="florin" unicode="&#x192;" 
d="M741 933h246l-22 -139h-249l-122 -667q-33 -184 -67 -265q-34 -85 -94 -139q-119 -104 -307 -104q-41 0 -108 9l33 153q24 -1 41 -1.5t27 -0.5q141 0 205 76q64 75 102 279l120 660h-167l22 139h171l63 348q31 176 112.5 257.5t224.5 81.5q63 0 138 -25l-30 -155
q-59 24 -107 24q-78 0 -114 -47t-61 -182z" />
    <glyph glyph-name="quotedblbase" unicode="&#x201e;" horiz-adv-x="945" 
d="M323 226l151 -55l-233 -521l-110 44zM662 226l151 -55l-232 -521l-111 44z" />
    <glyph glyph-name="ellipsis" unicode="&#x2026;" horiz-adv-x="1727" 
d="M174 93q0 46 33 79q34 33 80 33q24 0 45 -9t36 -24t24 -36t9 -45q0 -47 -33 -80t-80 -33q-24 0 -45 9t-36 24.5t-24 36.5t-9 45zM750 93q0 46 33 79q34 33 80 33q24 0 45 -9t36 -24t24 -36t9 -45q0 -47 -33 -80t-80 -33q-24 0 -45 9t-36 24.5t-24 36.5t-9 45zM1326 93
q0 46 33 79q34 33 80 33q24 0 45 -9t36 -24t24 -36t9 -45q0 -47 -33 -80t-80 -33q-24 0 -45 9t-36 24.5t-24 36.5t-9 45z" />
    <glyph glyph-name="dagger" unicode="&#x2020;" horiz-adv-x="1313" 
d="M572 1689h169v-380h341v-160h-341v-1556h-169v1556h-341v160h341v380z" />
    <glyph glyph-name="daggerdbl" unicode="&#x2021;" horiz-adv-x="1313" 
d="M572 1689h169v-380h341v-160h-341v-698h341v-161h-341v-697h-169v697h-341v161h341v698h-341v160h341v380z" />
    <glyph glyph-name="circumflex" unicode="&#x2c6;" horiz-adv-x="1158" 
d="M259 1219l319 301l322 -301l-119 -92l-203 192l-203 -192z" />
    <glyph glyph-name="perthousand" unicode="&#x2030;" horiz-adv-x="2497" 
d="M77 1228q0 136 101 234q104 98 243 98q143 0 244 -99q101 -98 101 -238q0 -141 -101 -239t-247 -98q-142 0 -242 99q-99 100 -99 243zM213 1226q0 -88 60 -149q61 -61 148 -61q86 0 146 61q61 61 61 147t-61 146q-60 61 -146 61t-147 -61q-61 -60 -61 -144zM1232 1574
l90 -50l-899 -1553l-89 52zM892 326q0 136 101 234q104 98 243 98q141 0 242 -99q101 -98 101 -238t-101 -238q-100 -97 -245 -97q-142 0 -242 99q-99 99 -99 241zM1028 325q0 -89 60 -150q61 -61 148 -61q86 0 147 61t61 147q0 87 -61 147q-61 61 -147 61t-147 -61
q-61 -60 -61 -144zM1731 326q0 136 101 234q104 98 243 98q142 0 243 -99q101 -98 101 -238t-101 -238q-100 -97 -246 -97q-143 0 -242 99t-99 241zM1867 325q0 -89 60 -150q61 -61 148 -61q86 0 146 61q61 61 61 147q0 87 -61 147q-60 61 -147 61q-85 0 -146 -61
q-61 -60 -61 -144z" />
    <glyph glyph-name="Scaron" unicode="&#x160;" horiz-adv-x="1198" 
d="M954 1947l-322 -276l-326 276l123 94l203 -175l203 175zM1026 1329l-137 -89q-57 94 -117 131q-58 37 -147 37q-109 0 -183 -68q-73 -67 -73 -170q0 -137 218 -232l147 -65q186 -82 267 -181q82 -97 82 -244q0 -202 -142 -338q-143 -137 -349 -137q-183 0 -308 104
q-125 103 -168 294l167 47q63 -284 315 -284q128 0 220 89q90 88 90 215q0 97 -58 161q-57 64 -203 129l-140 64q-85 37 -143.5 77.5t-95.5 85.5q-73 88 -73 217q0 171 123 285q124 114 310 114q258 0 398 -242z" />
    <glyph glyph-name="guilsinglleft" unicode="&#x2039;" horiz-adv-x="654" 
d="M263 494l275 -340l-107 -85l-346 425l345 434l108 -84z" />
    <glyph glyph-name="OE" unicode="&#x152;" horiz-adv-x="2446" 
d="M2330 1384h-616v-461h599v-160h-599v-602h616v-161h-789v297q-234 -324 -616 -324q-333 0 -571 234q-238 235 -238 560q0 287 189 517q235 286 613 286t623 -329v303h789v-160zM290 780q0 -286 203 -475q181 -171 416 -171q262 0 447 185q185 188 185 449q0 265 -184 452
q-183 188 -440 188q-253 0 -440 -187t-187 -441z" />
    <glyph glyph-name="Zcaron" unicode="&#x17d;" horiz-adv-x="1237" 
d="M340 161h821v-161h-1107l842 1384h-734v160h1021zM981 1947l-322 -276l-326 276l123 94l203 -175l203 175z" />
    <glyph glyph-name="quoteleft" unicode="&#x2018;" horiz-adv-x="606" 
d="M282 1044l-151 55l233 522l110 -44z" />
    <glyph glyph-name="quoteright" unicode="&#x2019;" horiz-adv-x="584" 
d="M298 1621l151 -55l-232 -522l-111 44z" />
    <glyph glyph-name="quotedblleft" unicode="&#x201c;" horiz-adv-x="945" 
d="M622 1044l-152 55l233 522l111 -44zM282 1044l-151 55l233 522l110 -44z" />
    <glyph glyph-name="quotedblright" unicode="&#x201d;" horiz-adv-x="945" 
d="M323 1621l151 -55l-233 -522l-110 44zM662 1621l151 -55l-232 -522l-111 44z" />
    <glyph glyph-name="bullet" unicode="&#x2022;" horiz-adv-x="1544" 
d="M777 1112q128 0 220 -96q93 -95 93 -228q0 -136 -93 -230q-93 -95 -225 -95q-130 0 -225 95q-93 96 -93 229q0 136 94 230q95 95 229 95z" />
    <glyph glyph-name="endash" unicode="&#x2013;" horiz-adv-x="1313" 
d="M271 568h771v-148h-771v148z" />
    <glyph glyph-name="emdash" unicode="&#x2014;" horiz-adv-x="1260" 
d="M0 568h1260v-148h-1260v148z" />
    <glyph glyph-name="tilde" unicode="&#x2dc;" horiz-adv-x="1158" 
d="M348 1173l-96 77q58 166 198 166q66 0 145 -49q73 -46 107 -46q59 0 109 99l96 -75q-30 -78 -85 -122.5t-119 -44.5q-49 0 -132 47q-86 50 -125 50q-67 0 -98 -102z" />
    <glyph glyph-name="trademark" unicode="&#x2122;" horiz-adv-x="1670" 
d="M331 1439v-775h-112v775h-209v105h532v-105h-211zM626 664l151 937l332 -731l339 731l142 -937h-108l-80 597l-294 -641l-290 641l-84 -597h-108z" />
    <glyph glyph-name="scaron" unicode="&#x161;" horiz-adv-x="811" 
d="M687 810l-137 -72q-50 96 -133 96q-47 0 -82 -32q-34 -31 -34 -75q0 -42 31 -70q29 -26 124 -67q172 -72 231 -134t59 -170q0 -134 -95 -224q-95 -89 -234 -89q-243 0 -337 244l145 61q41 -88 84 -122q40 -34 109 -34q71 0 114 43q45 43 45 109q0 53 -32 88
q-32 32 -124 72q-166 71 -222 127q-56 59 -56 153q0 115 80 192q81 78 201 78q174 0 263 -174zM747 1428l-319 -301l-322 301l119 92l203 -192l203 192z" />
    <glyph glyph-name="guilsinglright" unicode="&#x203a;" horiz-adv-x="654" 
d="M391 494l-275 350l108 84l345 -434l-345 -425l-108 85z" />
    <glyph glyph-name="oe" unicode="&#x153;" horiz-adv-x="1970" 
d="M1875 449h-758q7 -145 94 -236q88 -91 220 -91q185 0 291 205l139 -82q-158 -272 -441 -272q-127 0 -237 62q-108 63 -161 167q-33 -54 -78.5 -97t-100 -72t-116.5 -44.5t-128 -15.5q-209 0 -356 147t-147 355q0 213 148 361t363 148q134 0 243 -61q111 -62 172 -168
q27 54 67 96.5t90 72t108.5 45t123.5 15.5q211 0 337 -137q127 -136 127 -365v-33zM1700 588q-23 121 -96 183.5t-188 62.5q-225 0 -286 -246h570zM264 482q0 -159 94 -259q95 -101 239 -101q151 0 247 98q97 97 97 253q0 159 -95 260t-245 101q-145 0 -241 -101t-96 -251z
" />
    <glyph glyph-name="zcaron" unicode="&#x17e;" horiz-adv-x="1065" 
d="M352 153h663v-153h-996l696 809h-567v153h896zM892 1428l-319 -301l-322 301l119 92l203 -192l203 192z" />
    <glyph glyph-name="Ydieresis" unicode="&#x178;" horiz-adv-x="1222" 
d="M273 1849q0 47 35 82t83 35t83 -35t35 -83q0 -49 -35 -84t-83 -35q-49 0 -84 35q-34 34 -34 85zM713 1849q0 47 35 82t83 35t83 -35t35 -83q0 -49 -35 -84t-83 -35q-49 0 -84 35q-34 34 -34 85zM520 664l-505 880h199l394 -689l399 689h200l-514 -880v-664h-173v664z" />
    <glyph glyph-name="nonbreakingspace" unicode="&#xa0;" horiz-adv-x="632" 
 />
    <glyph glyph-name="exclamdown" unicode="&#xa1;" horiz-adv-x="642" 
d="M433 1090q0 -46 -33 -80q-33 -33 -79 -33t-80 34q-33 34 -33 81t33 80q33 34 80 34q48 0 79 -34q33 -33 33 -82zM404 869v-1229h-167v1229h167z" />
    <glyph glyph-name="cent" unicode="&#xa2;" 
d="M767 1291q129 -14 246 -90v-217q-120 135 -246 156v-704q131 21 252 163v-217q-137 -89 -252 -98v-228h-134v232q-186 24 -309 165q-122 143 -122 332q0 192 122 335q123 142 309 168v218h134v-215zM633 438v698q-116 -24 -190 -122q-73 -97 -73 -227q0 -131 73 -228
t190 -121z" />
    <glyph glyph-name="sterling" unicode="&#xa3;" 
d="M579 679h292v-131h-247q15 -53 15 -90q0 -101 -68 -223l30 -10q64 -21 105 -36q123 -46 174 -46q97 0 185 154l140 -84q-122 -237 -319 -237q-86 0 -255 60q-158 57 -215 57q-102 0 -185 -122l-134 88q127 190 299 199q66 100 66 194q0 40 -15 96h-259v131h203l-11 22
q-20 39 -33.5 66l-21.5 43q-31 60 -51.5 105.5t-30.5 77.5q-20 68 -20 142q0 181 132 306q134 125 325 125q194 0 321 -130t127 -329l-170 -46q-9 130 -35 191q-66 147 -241 147q-124 0 -203 -79q-81 -80 -81 -197q0 -58 26 -130q13 -35 37.5 -85t60.5 -117q22 -40 36 -68
t21 -44z" />
    <glyph glyph-name="currency" unicode="&#xa4;" 
d="M-13 285l219 219q-119 170 -119 331q0 156 116 326l-221 220l96 96l220 -220q110 73 174 95q66 25 161 25t160 -25q69 -24 171 -93l219 218l96 -96l-218 -218q67 -100 91 -170q25 -68 25 -160q0 -90 -24 -157q-23 -65 -92 -169l221 -221l-94 -96l-221 221
q-170 -119 -332 -119q-153 0 -334 115l-219 -218zM638 1225q-165 0 -279 -114t-114 -277q0 -161 114 -275t274 -114t274 114t114 274t-113 276t-270 116z" />
    <glyph glyph-name="yen" unicode="&#xa5;" 
d="M845 887l-118 -201h446v-131h-459v-555h-173v555h-450v131h438l-116 201h-322v131h247l-302 526h199l394 -689l399 689h200l-307 -526h252v-131h-328z" />
    <glyph glyph-name="brokenbar" unicode="&#xa6;" horiz-adv-x="1158" 
d="M492 1544h174v-772h-174v772zM492 355h174v-740h-174v740z" />
    <glyph glyph-name="section" unicode="&#xa7;" 
d="M213 6h168q8 -142 63 -205.5t171 -63.5q109 0 170 61.5t61 170.5q0 43 -11 78.5t-35.5 64.5t-63.5 53.5t-94 45.5l-102 39q-183 70 -257 159t-74 235q0 260 232 365q-103 59 -149 132.5t-46 180.5q0 163 116 273q117 111 290 111q93 0 183 -41q87 -41 134 -110
q69 -100 78 -286h-163q0 279 -231 279q-107 0 -174 -67q-66 -66 -66 -172q0 -91 63 -148q47 -44 220 -104q197 -69 277 -161q81 -92 81 -249q0 -121 -55 -206q-52 -85 -177 -157q106 -63 150 -135q44 -74 44 -185q0 -175 -112 -281q-113 -107 -293 -107q-188 0 -293 114
q-105 112 -105 316zM380 652q0 -109 73 -182q74 -74 178 -74q103 0 177 74q73 73 73 179q0 105 -73 178q-74 74 -178 74q-102 0 -176 -74t-74 -175z" />
    <glyph glyph-name="dieresis" unicode="&#xa8;" horiz-adv-x="1158" 
d="M263 1299q0 46 34 80t81 34q48 0 82 -34q35 -35 35 -81q0 -48 -35 -83q-34 -34 -82 -34t-82 34q-33 34 -33 84zM664 1299q0 46 34 80t83 34q24 0 45 -9t36.5 -24.5t24.5 -36.5t9 -45q0 -49 -34 -83q-33 -34 -81 -34q-24 0 -45.5 9.5t-37.5 25.5t-25 37.5t-9 45.5z" />
    <glyph glyph-name="copyright" unicode="&#xa9;" horiz-adv-x="1714" 
d="M1212 1108v-197l-40 48q-127 151 -284 151q-139 0 -242 -105q-102 -104 -102 -246q0 -138 103 -241t242 -103q156 0 283 145l40 47v-195l-8 -7q-148 -118 -312 -118q-198 0 -340 141q-143 141 -143 335q0 195 142 336t337 141q167 0 316 -125zM870 1571q320 0 553 -237
q233 -236 233 -562q0 -330 -234 -564q-236 -233 -565 -233q-333 0 -565 234q-233 236 -233 569q0 330 236 561q235 232 575 232zM868 1441q-281 0 -481 -194q-198 -194 -198 -470q0 -281 195 -477q195 -197 473 -197q277 0 473 196t196 474q0 272 -195 470
q-194 198 -463 198z" />
    <glyph glyph-name="ordfeminine" unicode="&#xaa;" horiz-adv-x="829" 
d="M586 1538h110v-579h-110v73q-81 -90 -201 -90q-127 0 -209 87q-82 88 -82 221q0 130 81 216q83 86 208 86q122 0 203 -89v75zM205 1253q0 -93 54 -154q54 -60 138 -60q85 0 141 59q55 58 55 152q0 93 -55 148q-54 58 -140 58q-83 0 -138 -58t-55 -145z" />
    <glyph glyph-name="guillemotleft" unicode="&#xab;" horiz-adv-x="998" 
d="M607 494l276 -340l-108 -85l-346 425l346 434l107 -84zM263 494l275 -340l-107 -85l-346 425l345 434l108 -84z" />
    <glyph glyph-name="logicalnot" unicode="&#xac;" horiz-adv-x="1158" 
d="M907 0v456h-830v162h1004v-618h-174z" />
    <glyph glyph-name="sfthyphen" unicode="&#xad;" horiz-adv-x="420" 
d="M0 568h420v-148h-420v148z" />
    <glyph glyph-name="registered" unicode="&#xae;" horiz-adv-x="1714" 
d="M905 710l283 -409h-161l-239 350v-350h-133v927h159q150 0 227 -67t77 -197q0 -106 -55 -172t-158 -82zM788 830h42q154 0 154 135t-166 135h-30v-270zM870 1571q320 0 553 -237q233 -236 233 -562q0 -330 -234 -564q-236 -233 -565 -233q-333 0 -565 234
q-233 236 -233 569q0 330 236 561q235 232 575 232zM868 1441q-281 0 -481 -194q-198 -194 -198 -470q0 -281 195 -477q195 -197 473 -197q277 0 473 196t196 474q0 272 -195 470q-194 198 -463 198z" />
    <glyph glyph-name="macron" unicode="&#xaf;" horiz-adv-x="1158" 
d="M268 1359h622v-139h-622v139z" />
    <glyph glyph-name="macron" unicode="&#x2c9;" horiz-adv-x="1158" 
d="M268 1359h622v-139h-622v139z" />
    <glyph glyph-name="degree" unicode="&#xb0;" horiz-adv-x="1313" 
d="M661 1567q125 0 215 -91q90 -90 90 -217q0 -128 -91 -219q-90 -90 -218 -90t-219 90q-90 91 -90 218q0 131 91 219q91 90 222 90zM659 1444q-78 0 -133 -54q-54 -54 -54 -131t54 -132q54 -54 131 -54t131 54q54 55 54 132q0 76 -54 130q-54 55 -129 55z" />
    <glyph glyph-name="plusminus" unicode="&#xb1;" 
d="M87 716v143h474v466h142v-466h474v-143h-474v-450h-142v450h-474zM87 0v142h1090v-142h-1090z" />
    <glyph glyph-name="twosuperior" unicode="&#xb2;" horiz-adv-x="896" 
d="M348 727h391v-109h-643l360 396q48 52 80 92t49 69q35 59 35 107q0 71 -53 119q-52 49 -131 49q-169 0 -185 -187h-122q11 112 50 169q87 126 256 126q128 0 217 -81q89 -80 89 -197q0 -74 -41 -145q-20 -34 -62 -86t-106 -122z" />
    <glyph glyph-name="threesuperior" unicode="&#xb3;" horiz-adv-x="896" 
d="M398 1051v104q190 0 190 147q0 31 -11.5 58t-32.5 46.5t-50 30.5t-63 11q-68 0 -104.5 -32.5t-50.5 -112.5h-121q40 255 276 255q121 0 199 -72q79 -70 79 -180q0 -119 -112 -201q126 -83 126 -221q0 -122 -87 -201q-85 -79 -218 -79q-132 0 -207 68.5t-85 196.5h118
q24 -157 178 -157q75 0 128 50q52 51 52 125q0 164 -204 164z" />
    <glyph glyph-name="acute" unicode="&#xb4;" horiz-adv-x="1158" 
d="M895 1442l-312 -315l-103 57l244 336z" />
    <glyph glyph-name="mu" unicode="&#xb5;" horiz-adv-x="1078" 
d="M323 -541h-165v1503h165v-586q0 -254 216 -254q116 0 175 80q41 59 41 199v561h165v-579q0 -120 -25 -188q-24 -70 -84 -125q-106 -97 -266 -97q-128 0 -229 71z" />
    <glyph glyph-name="paragraph" unicode="&#xb6;" 
d="M466 -228v988h-35q-161 -1 -261 107q-101 110 -101 278q0 195 114.5 297t334.5 102h663l-77 -134h-102v-1638h-147v1638h-242v-1638h-147z" />
    <glyph glyph-name="glyph146" unicode="&#xb7;" horiz-adv-x="632" 
d="M201 774q0 46 33 79q34 33 81 33q24 0 45 -9t36.5 -24t24.5 -36t9 -45q0 -47 -34 -80q-33 -33 -80 -33q-24 0 -45 9t-36.5 24.5t-24.5 36.5t-9 45z" />
    <glyph glyph-name="cedilla" unicode="&#xb8;" horiz-adv-x="1158" 
d="M769 -169l-233 -298l-115 57l195 303z" />
    <glyph glyph-name="onesuperior" unicode="&#xb9;" horiz-adv-x="896" 
d="M414 1435h-164l65 109h221v-926h-122v817z" />
    <glyph glyph-name="ordmasculine" unicode="&#xba;" horiz-adv-x="830" 
d="M96 1252q0 123 93 212q94 88 226 88q134 0 226 -89q93 -89 93 -216q0 -129 -93 -217q-91 -88 -229 -88q-133 0 -225 89q-91 90 -91 221zM207 1251q0 -95 58 -153q59 -59 147 -59q94 0 152 58q59 59 59 151q0 90 -59 149t-150 59q-89 0 -148 -59t-59 -146z" />
    <glyph glyph-name="guillemotright" unicode="&#xbb;" horiz-adv-x="998" 
d="M392 494l-276 350l108 84l345 -434l-345 -425l-108 85zM736 494l-275 350l107 84l346 -434l-346 -425l-108 85z" />
    <glyph glyph-name="onequarter" unicode="&#xbc;" horiz-adv-x="1991" 
d="M382 1435h-164l65 109h221v-926h-122v817zM1400 1574l89 -49l-898 -1554l-90 52zM1802 258h115v-108h-115v-150h-124v150h-498l622 843v-735zM1678 258v380l-280 -380h280z" />
    <glyph glyph-name="onehalf" unicode="&#xbd;" horiz-adv-x="1992" 
d="M382 1435h-164l65 109h221v-926h-122v817zM1400 1574l89 -49l-898 -1554l-90 52zM1474 110h391v-110h-643l360 396q48 52 80 92t49 69q35 59 35 108q0 70 -53 118q-52 49 -131 49q-169 0 -185 -187h-122q11 112 50 169q87 126 256 126q128 0 217 -80t89 -197
q0 -75 -41 -146q-41 -69 -168 -207z" />
    <glyph glyph-name="threequarters" unicode="&#xbe;" horiz-adv-x="1992" 
d="M367 1051v104q190 0 190 147q0 31 -11.5 58t-32.5 46.5t-50 30.5t-63 11q-68 0 -104.5 -32.5t-50.5 -112.5h-121q40 255 276 255q121 0 199 -72q79 -70 79 -180q0 -119 -112 -201q126 -83 126 -221q0 -122 -87 -201q-85 -79 -218 -79q-132 0 -207 68.5t-85 196.5h118
q24 -157 178 -157q75 0 128 50q52 51 52 125q0 164 -204 164zM1400 1574l90 -49l-899 -1554l-89 52zM1802 258h116v-108h-116v-150h-123v150h-498l621 843v-735zM1679 258v380l-281 -380h281z" />
    <glyph glyph-name="questiondown" unicode="&#xbf;" horiz-adv-x="1010" 
d="M339 516h-165q0 157 92 255q93 98 243 98q140 0 235 -96q96 -95 96 -236q0 -59 -16 -106.5t-50.5 -85.5t-87.5 -67.5t-127 -53.5q-166 -53 -205 -92q-55 -52 -55 -143t59 -153q60 -61 151 -61q87 0 145 58t58 145q0 39 -13 98h170q9 -68 9 -108q0 -149 -107 -250
q-107 -102 -265 -102q-162 0 -268 106q-107 107 -107 266q0 174 117 276q63 55 267 114q157 45 157 170q0 69 -49 117q-48 48 -117 48q-152 0 -167 -197zM619 1086q0 -47 -34 -80q-33 -33 -80 -33q-24 0 -45 9t-36.5 24t-24.5 36t-9 45q0 47 33 80q34 34 82 34q47 0 80 -34
q34 -33 34 -81z" />
    <glyph glyph-name="Agrave" unicode="&#xc0;" horiz-adv-x="1436" 
d="M1049 437h-660l-187 -437h-187l711 1618l694 -1618h-189zM981 598l-258 619l-264 -619h522zM421 1939l156 104l276 -300l-99 -74z" />
    <glyph glyph-name="Aacute" unicode="&#xc1;" horiz-adv-x="1436" 
d="M1049 437h-660l-187 -437h-187l711 1618l694 -1618h-189zM981 598l-258 619l-264 -619h522zM1031 1939l-332 -270l-100 74l277 300z" />
    <glyph glyph-name="Acircumflex" unicode="&#xc2;" horiz-adv-x="1436" 
d="M1049 437h-660l-187 -437h-187l711 1618l694 -1618h-189zM981 598l-258 619l-264 -619h522zM409 1765l322 276l326 -276l-122 -94l-204 174l-203 -174z" />
    <glyph glyph-name="Atilde" unicode="&#xc3;" horiz-adv-x="1436" 
d="M1049 437h-660l-187 -437h-187l711 1618l694 -1618h-189zM981 598l-258 619l-264 -619h522zM489 1729l-99 77q82 165 205 165q53 0 149 -48q88 -46 126 -46q56 0 106 98l100 -75q-81 -167 -212 -167q-55 0 -151 48q-91 46 -129 46q-47 0 -95 -98z" />
    <glyph glyph-name="Adieresis" unicode="&#xc4;" horiz-adv-x="1436" 
d="M386 1849q0 47 35 82t83 35t83 -35t35 -83q0 -49 -35 -84t-83 -35q-49 0 -84 35q-34 34 -34 85zM826 1849q0 47 35 82t83 35t83 -35t35 -83q0 -49 -35 -84t-83 -35q-49 0 -84 35q-34 34 -34 85zM1049 437h-660l-187 -437h-187l711 1618l694 -1618h-189zM981 598l-258 619
l-264 -619h522z" />
    <glyph glyph-name="Aring" unicode="&#xc5;" horiz-adv-x="1436" 
d="M1049 437h-660l-187 -437h-187l711 1618l694 -1618h-189zM981 598l-258 619l-264 -619h522zM516 1868q0 84 62 146t148 62t148 -62t62 -148q0 -87 -62 -149q-61 -61 -148 -61t-149 62q-61 61 -61 150zM629 1867q0 -21 7.5 -39t21 -31.5t31 -21t37.5 -7.5t37.5 7.5t31 21
t21 31t7.5 38.5q0 20 -7.5 37.5t-20.5 31t-30.5 21t-38.5 7.5q-20 0 -37.5 -7.5t-31 -21t-21 -31t-7.5 -36.5z" />
    <glyph glyph-name="AE" unicode="&#xc6;" horiz-adv-x="2080" 
d="M1061 432h-658l-183 -432h-189l687 1544h679l68 -160h-624l193 -462h608l71 -161h-609l250 -600h628l68 -161h-807zM994 593l-256 608l-261 -608h517z" />
    <glyph glyph-name="Ccedilla" unicode="&#xc7;" horiz-adv-x="1496" 
d="M1381 1417v-213q-218 204 -467 204q-256 0 -440 -190q-184 -187 -184 -453q0 -287 213 -470q185 -161 412 -161q249 0 466 202v-214q-221 -149 -465 -149q-329 0 -564 234q-236 234 -236 560q0 331 237 567q239 236 572 236q238 0 456 -153zM1004 -182l-256 -300l-117 60
l207 315z" />
    <glyph glyph-name="Egrave" unicode="&#xc8;" horiz-adv-x="1116" 
d="M1001 1384h-627v-459h610v-161h-610v-603h627v-161h-800v1544h800v-160zM300 1939l156 104l276 -300l-99 -74z" />
    <glyph glyph-name="Eacute" unicode="&#xc9;" horiz-adv-x="1116" 
d="M1001 1384h-627v-459h610v-161h-610v-603h627v-161h-800v1544h800v-160zM895 1939l-332 -270l-100 74l277 300z" />
    <glyph glyph-name="Ecircumflex" unicode="&#xca;" horiz-adv-x="1116" 
d="M1001 1384h-627v-459h610v-161h-610v-603h627v-161h-800v1544h800v-160zM279 1765l322 276l326 -276l-122 -94l-204 174l-203 -174z" />
    <glyph glyph-name="Edieresis" unicode="&#xcb;" horiz-adv-x="1116" 
d="M273 1849q0 47 35 82t83 35t83 -35t35 -83q0 -49 -35 -84t-83 -35q-49 0 -84 35q-34 34 -34 85zM713 1849q0 47 35 82t83 35t83 -35t35 -83q0 -49 -35 -84t-83 -35q-49 0 -84 35q-34 34 -34 85zM1001 1384h-627v-459h610v-161h-610v-603h627v-161h-800v1544h800v-160z
" />
    <glyph glyph-name="Igrave" unicode="&#xcc;" horiz-adv-x="574" 
d="M374 1544v-1544h-173v1544h173zM21 1939l155 104l223 -308l-100 -66z" />
    <glyph glyph-name="Iacute" unicode="&#xcd;" horiz-adv-x="574" 
d="M374 1544v-1544h-173v1544h173zM554 1939l-278 -270l-100 66l223 308z" />
    <glyph glyph-name="Icircumflex" unicode="&#xce;" horiz-adv-x="574" 
d="M374 1544v-1544h-173v1544h173zM2 1765l284 276l287 -276l-115 -94l-172 174l-172 -174z" />
    <glyph glyph-name="Idieresis" unicode="&#xcf;" horiz-adv-x="574" 
d="M374 1544v-1544h-173v1544h173zM12 1849q0 47 35 82t83 35t83 -35t35 -83q0 -49 -35 -84t-83 -35q-49 0 -84 35q-34 34 -34 85zM325 1849q0 47 35 82t83 35q49 0 84 -35t35 -83q0 -49 -35 -84t-83 -35q-49 0 -84 35t-35 85z" />
    <glyph glyph-name="Eth" unicode="&#xd0;" horiz-adv-x="1467" 
d="M202 0v755h-154v155h154v634h316q207 0 354 -54q148 -54 265 -172q214 -217 214 -546q0 -330 -219 -547q-122 -119 -265 -172q-147 -53 -351 -53h-314zM375 161h150q306 0 481 178q171 172 171 433t-170 434q-172 178 -482 178h-150v-474h371v-155h-371v-594z" />
    <glyph glyph-name="Ntilde" unicode="&#xd1;" horiz-adv-x="1777" 
d="M201 0v1609l1203 -1261v1196h173v-1613l-1203 1259v-1190h-173zM661 1729l-99 77q82 165 205 165q53 0 149 -48q88 -46 126 -46q56 0 106 98l100 -75q-81 -167 -212 -167q-55 0 -151 48q-91 46 -129 46q-47 0 -95 -98z" />
    <glyph glyph-name="Ograve" unicode="&#xd2;" horiz-adv-x="1839" 
d="M116 781q0 321 239 555q238 234 566 234q330 0 566 -236t236 -563q0 -331 -238 -565q-239 -233 -572 -233q-295 0 -534 209q-263 233 -263 599zM290 780q0 -284 197 -470q188 -176 428 -176q264 0 449 186q185 188 185 451q0 267 -184 451q-183 186 -444 186
q-257 0 -445 -185q-186 -185 -186 -443zM614 1939l156 104l276 -300l-99 -74z" />
    <glyph glyph-name="Oacute" unicode="&#xd3;" horiz-adv-x="1839" 
d="M116 781q0 321 239 555q238 234 566 234q330 0 566 -236t236 -563q0 -331 -238 -565q-239 -233 -572 -233q-295 0 -534 209q-263 233 -263 599zM290 780q0 -284 197 -470q188 -176 428 -176q264 0 449 186q185 188 185 451q0 267 -184 451q-183 186 -444 186
q-257 0 -445 -185q-186 -185 -186 -443zM1231 1939l-332 -270l-100 74l277 300z" />
    <glyph glyph-name="Ocircumflex" unicode="&#xd4;" horiz-adv-x="1839" 
d="M116 781q0 321 239 555q238 234 566 234q330 0 566 -236t236 -563q0 -331 -238 -565q-239 -233 -572 -233q-295 0 -534 209q-263 233 -263 599zM290 780q0 -284 197 -470q188 -176 428 -176q264 0 449 186q185 188 185 451q0 267 -184 451q-183 186 -444 186
q-257 0 -445 -185q-186 -185 -186 -443zM597 1765l322 276l326 -276l-122 -94l-204 174l-203 -174z" />
    <glyph glyph-name="Otilde" unicode="&#xd5;" horiz-adv-x="1839" 
d="M116 781q0 321 239 555q238 234 566 234q330 0 566 -236t236 -563q0 -331 -238 -565q-239 -233 -572 -233q-295 0 -534 209q-263 233 -263 599zM290 780q0 -284 197 -470q188 -176 428 -176q264 0 449 186q185 188 185 451q0 267 -184 451q-183 186 -444 186
q-257 0 -445 -185q-186 -185 -186 -443zM686 1729l-99 77q82 165 205 165q53 0 149 -48q88 -46 126 -46q56 0 106 98l100 -75q-81 -167 -212 -167q-55 0 -151 48q-91 46 -129 46q-47 0 -95 -98z" />
    <glyph glyph-name="Odieresis" unicode="&#xd6;" horiz-adv-x="1839" 
d="M591 1849q0 47 35 82t83 35t83 -35t35 -83q0 -49 -35 -84t-83 -35q-49 0 -84 35q-34 34 -34 85zM1031 1849q0 47 35 82t83 35t83 -35t35 -83q0 -49 -35 -84t-83 -35q-49 0 -84 35q-34 34 -34 85zM116 781q0 321 239 555q238 234 566 234q330 0 566 -236t236 -563
q0 -331 -238 -565q-239 -233 -572 -233q-295 0 -534 209q-263 233 -263 599zM290 780q0 -284 197 -470q188 -176 428 -176q264 0 449 186q185 188 185 451q0 267 -184 451q-183 186 -444 186q-257 0 -445 -185q-186 -185 -186 -443z" />
    <glyph glyph-name="multiply" unicode="&#xd7;" 
d="M176 1146l97 97l359 -358l358 358l98 -97l-359 -358l359 -359l-98 -97l-358 358l-359 -358l-97 97l358 359z" />
    <glyph glyph-name="Oslash" unicode="&#xd8;" horiz-adv-x="1839" 
d="M294 264q-178 244 -178 504q0 330 237 566q239 236 569 236q140 0 249 -38q109 -37 256 -141l179 178l98 -101l-174 -177q106 -141 150 -257q44 -118 44 -264q0 -328 -237 -563q-237 -234 -567 -234q-144 0 -262 41q-116 42 -261 147l-180 -175l-104 99zM416 384l887 891
q-166 133 -383 133q-262 0 -446 -187q-183 -186 -183 -452q0 -194 125 -385zM1409 1173l-891 -889q37 -34 82 -61.5t102 -47.5q114 -41 223 -41q256 0 440 187t184 449q0 215 -140 403z" />
    <glyph glyph-name="Ugrave" unicode="&#xd9;" horiz-adv-x="1502" 
d="M374 1544v-946q0 -136 15 -205q15 -68 57 -121q50 -62 133 -100q87 -38 172 -38q87 0 172 38t134 100q42 53 57 121q15 69 15 205v946h173v-993q0 -145 -31 -235q-31 -94 -104 -170q-164 -173 -415 -173q-252 0 -416 173q-73 76 -104 170q-31 90 -31 235v993h173z
M457 1939l156 104l276 -300l-99 -74z" />
    <glyph glyph-name="Uacute" unicode="&#xda;" horiz-adv-x="1502" 
d="M374 1544v-946q0 -136 15 -205q15 -68 57 -121q50 -62 133 -100q87 -38 172 -38q87 0 172 38t134 100q42 53 57 121q15 69 15 205v946h173v-993q0 -145 -31 -235q-31 -94 -104 -170q-164 -173 -415 -173q-252 0 -416 173q-73 76 -104 170q-31 90 -31 235v993h173z
M1031 1939l-332 -270l-100 74l277 300z" />
    <glyph glyph-name="Ucircumflex" unicode="&#xdb;" horiz-adv-x="1502" 
d="M374 1544v-946q0 -136 15 -205q15 -68 57 -121q50 -62 133 -100q87 -38 172 -38q87 0 172 38t134 100q42 53 57 121q15 69 15 205v946h173v-993q0 -145 -31 -235q-31 -94 -104 -170q-164 -173 -415 -173q-252 0 -416 173q-73 76 -104 170q-31 90 -31 235v993h173z
M409 1765l322 276l326 -276l-122 -94l-204 174l-203 -174z" />
    <glyph glyph-name="Udieresis" unicode="&#xdc;" horiz-adv-x="1502" 
d="M413 1849q0 47 35 82t83 35t83 -35t35 -83q0 -49 -35 -84t-83 -35q-49 0 -84 35q-34 34 -34 85zM853 1849q0 47 35 82t83 35t83 -35t35 -83q0 -49 -35 -84t-83 -35q-49 0 -84 35q-34 34 -34 85zM374 1544v-946q0 -136 15 -205q15 -68 57 -121q50 -62 133 -100
q87 -38 172 -38q87 0 172 38t134 100q42 53 57 121q15 69 15 205v946h173v-993q0 -145 -31 -235q-31 -94 -104 -170q-164 -173 -415 -173q-252 0 -416 173q-73 76 -104 170q-31 90 -31 235v993h173z" />
    <glyph glyph-name="Yacute" unicode="&#xdd;" horiz-adv-x="1222" 
d="M520 664l-505 880h199l394 -689l399 689h200l-514 -880v-664h-173v664zM912 1939l-332 -270l-100 74l277 300z" />
    <glyph glyph-name="Thorn" unicode="&#xde;" horiz-adv-x="1059" 
d="M374 460v-460h-173v1544h173v-216h107q78 0 141 -8t114 -24.5t91.5 -42t73.5 -61.5q112 -121 112 -299q0 -201 -131 -317t-358 -116h-150zM374 618h140q159 0 244 71.5t85 205.5q0 274 -342 274h-127v-551z" />
    <glyph glyph-name="germandbls" unicode="&#xdf;" horiz-adv-x="1214" 
d="M158 0v809h-90v153h90v320q0 207 106 319q106 115 298 115q173 0 286 -110t113 -277q0 -205 -173 -297q152 -58 241 -192t89 -303q0 -232 -166 -391q-165 -159 -421 -172v160q190 14 304 125q115 112 115 284q0 194 -145 305q-91 70 -274 92v150q127 6 186 63
q75 70 75 183q0 100 -66 165q-65 65 -168 65q-133 0 -194 -93q-41 -65 -41 -267v-1206h-165z" />
    <glyph glyph-name="agrave" unicode="&#xe0;" horiz-adv-x="1214" 
d="M891 962h165v-962h-165v133q-135 -160 -332 -160q-200 0 -332 144q-131 146 -131 366q0 218 130 360t330 142q199 0 335 -160v137zM264 488q0 -159 89 -263q88 -103 227 -103q142 0 232 100t90 260q0 157 -90 255q-89 98 -231 98q-135 0 -226 -100q-91 -97 -91 -247z
M329 1442l171 78l244 -336l-103 -57z" />
    <glyph glyph-name="aacute" unicode="&#xe1;" horiz-adv-x="1214" 
d="M891 962h165v-962h-165v133q-135 -160 -332 -160q-200 0 -332 144q-131 146 -131 366q0 218 130 360t330 142q199 0 335 -160v137zM264 488q0 -159 89 -263q88 -103 227 -103q142 0 232 100t90 260q0 157 -90 255q-89 98 -231 98q-135 0 -226 -100q-91 -97 -91 -247z
M907 1442l-312 -315l-103 57l244 336z" />
    <glyph glyph-name="acircumflex" unicode="&#xe2;" horiz-adv-x="1214" 
d="M891 962h165v-962h-165v133q-135 -160 -332 -160q-200 0 -332 144q-131 146 -131 366q0 218 130 360t330 142q199 0 335 -160v137zM264 488q0 -159 89 -263q88 -103 227 -103q142 0 232 100t90 260q0 157 -90 255q-89 98 -231 98q-135 0 -226 -100q-91 -97 -91 -247z
M295 1219l319 301l322 -301l-119 -92l-203 192l-203 -192z" />
    <glyph glyph-name="atilde" unicode="&#xe3;" horiz-adv-x="1214" 
d="M891 962h165v-962h-165v133q-135 -160 -332 -160q-200 0 -332 144q-131 146 -131 366q0 218 130 360t330 142q199 0 335 -160v137zM264 488q0 -159 89 -263q88 -103 227 -103q142 0 232 100t90 260q0 157 -90 255q-89 98 -231 98q-135 0 -226 -100q-91 -97 -91 -247z
M384 1173l-96 77q58 166 198 166q66 0 145 -49q73 -46 107 -46q59 0 109 99l96 -75q-30 -78 -85 -122.5t-119 -44.5q-49 0 -132 47q-86 50 -125 50q-67 0 -98 -102z" />
    <glyph glyph-name="adieresis" unicode="&#xe4;" horiz-adv-x="1214" 
d="M891 962h165v-962h-165v133q-135 -160 -332 -160q-200 0 -332 144q-131 146 -131 366q0 218 130 360t330 142q199 0 335 -160v137zM264 488q0 -159 89 -263q88 -103 227 -103q142 0 232 100t90 260q0 157 -90 255q-89 98 -231 98q-135 0 -226 -100q-91 -97 -91 -247z
M299 1299q0 46 34 80t81 34q48 0 82 -34q35 -35 35 -81q0 -48 -35 -83q-34 -34 -82 -34t-82 34q-33 34 -33 84zM700 1299q0 46 34 80t83 34q24 0 45 -9t36.5 -24.5t24.5 -36.5t9 -45q0 -49 -34 -83q-33 -34 -81 -34q-24 0 -45.5 9.5t-37.5 25.5t-25 37.5t-9 45.5z" />
    <glyph glyph-name="aring" unicode="&#xe5;" horiz-adv-x="1214" 
d="M891 962h165v-962h-165v133q-135 -160 -332 -160q-200 0 -332 144q-131 146 -131 366q0 218 130 360t330 142q199 0 335 -160v137zM264 488q0 -159 89 -263q88 -103 227 -103q142 0 232 100t90 260q0 157 -90 255q-89 98 -231 98q-135 0 -226 -100q-91 -97 -91 -247z
M405 1332q0 84 62 146t148 62t148 -62t62 -148q0 -87 -62 -149q-61 -61 -148 -61t-149 62q-61 61 -61 150zM518 1331q0 -21 7.5 -39t21 -31.5t31 -21t37.5 -7.5t37.5 7.5t31 21t21 31t7.5 38.5q0 20 -7.5 37.5t-20.5 31t-30.5 21t-38.5 7.5q-20 0 -37.5 -7.5t-31 -21
t-21 -31t-7.5 -36.5z" />
    <glyph glyph-name="ae" unicode="&#xe6;" horiz-adv-x="1788" 
d="M1692 446h-753q9 -146 93 -235t213 -89q178 0 295 203l141 -83q-165 -269 -437 -269q-246 0 -375 192q-116 -192 -362 -192q-186 0 -298 85q-113 86 -113 224q0 142 110 231t286 89q150 0 277 -82q0 315 -273 315q-124 0 -297 -58v156q186 52 307 52q129 0 221 -50.5
t134 -144.5q56 91 154 143q100 52 218 52q123 0 230 -59q105 -59 162 -162q67 -121 67 -318zM1516 587q-22 118 -96 183t-186 65q-226 0 -283 -248h565zM258 288q0 -75 67 -121q67 -45 178 -45q113 0 185 48t72 124q0 69 -71 113q-71 45 -180 45q-111 0 -181 -46t-70 -118z
" />
    <glyph glyph-name="ccedilla" unicode="&#xe7;" horiz-adv-x="1008" 
d="M907 892v-217q-80 88 -147 123q-68 36 -156 36q-146 0 -243 -103q-97 -100 -97 -254q0 -152 96 -254q98 -101 241 -101q90 0 161 38q35 19 72 51.5t79 78.5v-218q-155 -99 -307 -99q-215 0 -363 145q-147 145 -147 357q0 215 147 362q148 147 365 147q156 0 299 -92z
M695 -169l-233 -298l-115 57l195 303z" />
    <glyph glyph-name="egrave" unicode="&#xe8;" horiz-adv-x="1115" 
d="M1020 446h-750q7 -147 90 -236q84 -88 216 -88q93 0 161 44q68 45 135 157l139 -78q-158 -272 -441 -272q-210 0 -342 140t-132 362q0 224 129 367q130 142 337 142t332 -140q126 -140 126 -369v-29zM846 585q-23 114 -99 181q-77 68 -183 68t-185 -70q-80 -71 -98 -179
h565zM288 1442l171 78l244 -336l-103 -57z" />
    <glyph glyph-name="eacute" unicode="&#xe9;" horiz-adv-x="1115" 
d="M1020 446h-750q7 -147 90 -236q84 -88 216 -88q93 0 161 44q68 45 135 157l139 -78q-158 -272 -441 -272q-210 0 -342 140t-132 362q0 224 129 367q130 142 337 142t332 -140q126 -140 126 -369v-29zM846 585q-23 114 -99 181q-77 68 -183 68t-185 -70q-80 -71 -98 -179
h565zM875 1442l-312 -315l-103 57l244 336z" />
    <glyph glyph-name="ecircumflex" unicode="&#xea;" horiz-adv-x="1115" 
d="M1020 446h-750q7 -147 90 -236q84 -88 216 -88q93 0 161 44q68 45 135 157l139 -78q-158 -272 -441 -272q-210 0 -342 140t-132 362q0 224 129 367q130 142 337 142t332 -140q126 -140 126 -369v-29zM846 585q-23 114 -99 181q-77 68 -183 68t-185 -70q-80 -71 -98 -179
h565zM261 1219l319 301l322 -301l-119 -92l-203 192l-203 -192z" />
    <glyph glyph-name="edieresis" unicode="&#xeb;" horiz-adv-x="1115" 
d="M1020 446h-750q7 -147 90 -236q84 -88 216 -88q93 0 161 44q68 45 135 157l139 -78q-158 -272 -441 -272q-210 0 -342 140t-132 362q0 224 129 367q130 142 337 142t332 -140q126 -140 126 -369v-29zM846 585q-23 114 -99 181q-77 68 -183 68t-185 -70q-80 -71 -98 -179
h565zM265 1299q0 46 34 80t81 34q48 0 82 -34q35 -35 35 -81q0 -48 -35 -83q-34 -34 -82 -34t-82 34q-33 34 -33 84zM666 1299q0 46 34 80t83 34q24 0 45 -9t36.5 -24.5t24.5 -36.5t9 -45q0 -49 -34 -83q-33 -34 -81 -34q-24 0 -45.5 9.5t-37.5 25.5t-25 37.5t-9 45.5z" />
    <glyph glyph-name="igrave" unicode="&#xec;" horiz-adv-x="481" 
d="M323 962v-962h-165v962h165zM-28 1442l170 78l198 -336l-96 -57z" />
    <glyph glyph-name="iacute" unicode="&#xed;" horiz-adv-x="481" 
d="M323 962v-962h-165v962h165zM510 1442l-274 -315l-95 57l198 336z" />
    <glyph glyph-name="icircumflex" unicode="&#xee;" horiz-adv-x="481" 
d="M323 962v-962h-165v962h165zM-33 1219l272 301l275 -301l-111 -92l-164 192l-165 -192z" />
    <glyph glyph-name="idieresis" unicode="&#xef;" horiz-adv-x="481" 
d="M323 962v-962h-165v962h165zM-19 1299q0 44 32 76q31 33 77 33q47 0 79 -33q33 -32 33 -77q0 -47 -33 -80q-32 -32 -78 -32q-47 0 -78 33q-32 35 -32 80zM280 1299q0 44 33 76q33 33 78 33q22 0 42.5 -8.5t35.5 -23.5t24 -35t9 -43q0 -47 -33 -80q-32 -32 -78 -32t-79 33
q-32 35 -32 80z" />
    <glyph glyph-name="eth" unicode="&#xf0;" horiz-adv-x="1208" 
d="M176 1594l66 101q97 -26 186.5 -64.5t177.5 -89.5l255 128l96 -93l-237 -124q185 -170 289 -417q104 -250 104 -523q0 -242 -141 -390q-140 -149 -365 -149q-218 0 -365 144q-146 146 -146 360t149 361q148 147 366 147q98 0 167 -32q67 -31 139 -114q-48 173 -131 311.5
t-198 232.5l-249 -130l-104 95l229 119q-110 73 -288 127zM264 484q0 -156 95 -260q94 -102 241 -102q152 0 248 100q97 100 97 257q0 155 -96 256q-96 100 -246 100q-144 0 -242 -101q-97 -100 -97 -250z" />
    <glyph glyph-name="ntilde" unicode="&#xf1;" horiz-adv-x="1086" 
d="M158 962h165v-117q114 140 276 140q165 0 256 -106q74 -86 74 -282v-597h-166v568q0 148 -45 208t-157 60q-125 0 -181.5 -84.5t-56.5 -270.5v-481h-165v962zM297 1173l-96 77q58 166 198 166q66 0 145 -49q73 -46 107 -46q59 0 109 99l96 -75q-30 -78 -85 -122.5
t-119 -44.5q-49 0 -132 47q-86 50 -125 50q-67 0 -98 -102z" />
    <glyph glyph-name="ograve" unicode="&#xf2;" horiz-adv-x="1208" 
d="M96 486q0 206 149 352t359 146q214 0 361 -147q147 -146 147 -359q0 -215 -148 -360q-145 -145 -364 -145q-213 0 -358 148q-146 149 -146 365zM264 483q0 -160 94 -260q95 -101 242 -101q151 0 247 99q97 100 97 257q0 155 -96 256q-96 100 -246 100q-144 0 -242 -101
q-96 -101 -96 -250zM311 1442l171 78l244 -336l-103 -57z" />
    <glyph glyph-name="oacute" unicode="&#xf3;" horiz-adv-x="1208" 
d="M96 486q0 206 149 352t359 146q214 0 361 -147q147 -146 147 -359q0 -215 -148 -360q-145 -145 -364 -145q-213 0 -358 148q-146 149 -146 365zM264 483q0 -160 94 -260q95 -101 242 -101q151 0 247 99q97 100 97 257q0 155 -96 256q-96 100 -246 100q-144 0 -242 -101
q-96 -101 -96 -250zM904 1442l-312 -315l-103 57l244 336z" />
    <glyph glyph-name="ocircumflex" unicode="&#xf4;" horiz-adv-x="1208" 
d="M96 486q0 206 149 352t359 146q214 0 361 -147q147 -146 147 -359q0 -215 -148 -360q-145 -145 -364 -145q-213 0 -358 148q-146 149 -146 365zM264 483q0 -160 94 -260q95 -101 242 -101q151 0 247 99q97 100 97 257q0 155 -96 256q-96 100 -246 100q-144 0 -242 -101
q-96 -101 -96 -250zM291 1219l319 301l322 -301l-119 -92l-203 192l-203 -192z" />
    <glyph glyph-name="otilde" unicode="&#xf5;" horiz-adv-x="1208" 
d="M96 486q0 206 149 352t359 146q214 0 361 -147q147 -146 147 -359q0 -215 -148 -360q-145 -145 -364 -145q-213 0 -358 148q-146 149 -146 365zM264 483q0 -160 94 -260q95 -101 242 -101q151 0 247 99q97 100 97 257q0 155 -96 256q-96 100 -246 100q-144 0 -242 -101
q-96 -101 -96 -250zM392 1173l-96 77q58 166 198 166q66 0 145 -49q73 -46 107 -46q59 0 109 99l96 -75q-30 -78 -85 -122.5t-119 -44.5q-49 0 -132 47q-86 50 -125 50q-67 0 -98 -102z" />
    <glyph glyph-name="odieresis" unicode="&#xf6;" horiz-adv-x="1208" 
d="M96 486q0 206 149 352t359 146q214 0 361 -147q147 -146 147 -359q0 -215 -148 -360q-145 -145 -364 -145q-213 0 -358 148q-146 149 -146 365zM264 483q0 -160 94 -260q95 -101 242 -101q151 0 247 99q97 100 97 257q0 155 -96 256q-96 100 -246 100q-144 0 -242 -101
q-96 -101 -96 -250zM288 1299q0 46 34 80t81 34q48 0 82 -34q35 -35 35 -81q0 -48 -35 -83q-34 -34 -82 -34t-82 34q-33 34 -33 84zM689 1299q0 46 34 80t83 34q24 0 45 -9t36.5 -24.5t24.5 -36.5t9 -45q0 -49 -34 -83q-33 -34 -81 -34q-24 0 -45.5 9.5t-37.5 25.5t-25 37.5
t-9 45.5z" />
    <glyph glyph-name="divide" unicode="&#xf7;" 
d="M87 716v143h1090v-143h-1090zM524 486q0 43 32 75t76 32q22 0 42 -8.5t34.5 -23.5t23 -35t8.5 -42q0 -23 -8.5 -42.5t-23 -34.5t-34.5 -23.5t-42 -8.5q-23 0 -42.5 9t-34 24t-23 35t-8.5 43zM524 1092q0 44 32 76t76 32q22 0 42 -8.5t34.5 -23.5t23 -35t8.5 -42
q0 -23 -8.5 -42.5t-23 -34.5t-34.5 -23.5t-42 -8.5q-23 0 -42.5 8.5t-34 23.5t-23 35t-8.5 43z" />
    <glyph glyph-name="oslash" unicode="&#xf8;" horiz-adv-x="1208" 
d="M197 172q-101 137 -101 309q0 211 148 356q148 147 360 147q171 0 305 -102l137 137l93 -92l-137 -137q48 -46 79 -134q31 -86 31 -180q0 -212 -148 -357q-149 -146 -358 -146q-165 0 -314 104l-140 -136l-92 94zM314 284l481 489q-76 61 -192 61q-148 0 -244 -102
q-95 -101 -95 -258q0 -104 50 -190zM887 681l-483 -495q73 -64 199 -64q148 0 244 100q97 100 97 256q0 120 -57 203z" />
    <glyph glyph-name="ugrave" unicode="&#xf9;" horiz-adv-x="1078" 
d="M323 962v-561q0 -140 41 -199q59 -80 175 -80t175 80q42 57 42 199v561h165v-579q0 -120 -25 -188q-25 -70 -85 -125q-106 -97 -272 -97q-165 0 -271 97q-61 55 -86 125q-24 70 -24 188v579h165zM247 1442l171 78l244 -336l-103 -57z" />
    <glyph glyph-name="uacute" unicode="&#xfa;" horiz-adv-x="1078" 
d="M323 962v-561q0 -140 41 -199q59 -80 175 -80t175 80q42 57 42 199v561h165v-579q0 -120 -25 -188q-25 -70 -85 -125q-106 -97 -272 -97q-165 0 -271 97q-61 55 -86 125q-24 70 -24 188v579h165zM833 1442l-312 -315l-103 57l244 336z" />
    <glyph glyph-name="ucircumflex" unicode="&#xfb;" horiz-adv-x="1078" 
d="M323 962v-561q0 -140 41 -199q59 -80 175 -80t175 80q42 57 42 199v561h165v-579q0 -120 -25 -188q-25 -70 -85 -125q-106 -97 -272 -97q-165 0 -271 97q-61 55 -86 125q-24 70 -24 188v579h165zM220 1219l319 301l322 -301l-119 -92l-203 192l-203 -192z" />
    <glyph glyph-name="udieresis" unicode="&#xfc;" horiz-adv-x="1078" 
d="M323 962v-561q0 -140 41 -199q59 -80 175 -80t175 80q42 57 42 199v561h165v-579q0 -120 -25 -188q-25 -70 -85 -125q-106 -97 -272 -97q-165 0 -271 97q-61 55 -86 125q-24 70 -24 188v579h165zM224 1299q0 46 34 80t81 34q48 0 82 -34q35 -35 35 -81q0 -48 -35 -83
q-34 -34 -82 -34t-82 34q-33 34 -33 84zM625 1299q0 46 34 80t83 34q24 0 45 -9t36.5 -24.5t24.5 -36.5t9 -45q0 -49 -34 -83q-33 -34 -81 -34q-24 0 -45.5 9.5t-37.5 25.5t-25 37.5t-9 45.5z" />
    <glyph glyph-name="yacute" unicode="&#xfd;" horiz-adv-x="1065" 
d="M461 91l-442 871h191l339 -689l312 689h186l-710 -1503h-187zM826 1442l-313 -315l-103 57l244 336z" />
    <glyph glyph-name="thorn" unicode="&#xfe;" horiz-adv-x="1214" 
d="M323 -541h-165v2230h165v-863q134 158 332 158q202 0 332 -145q132 -144 132 -365q0 -216 -131 -359q-130 -142 -328 -142q-200 0 -337 161v-675zM950 469q0 158 -89 262q-88 103 -226 103q-142 0 -232 -100q-89 -101 -89 -259q0 -154 89 -255q90 -98 232 -98
q134 0 224 99q91 100 91 248z" />
    <glyph glyph-name="ydieresis" unicode="&#xff;" horiz-adv-x="1065" 
d="M461 91l-442 871h191l339 -689l312 689h186l-710 -1503h-187zM218 1299q0 46 34 80t81 34q48 0 82 -34q35 -35 35 -81q0 -48 -35 -83q-34 -34 -82 -34t-82 34q-33 34 -33 84zM619 1299q0 46 34 80t83 34q24 0 45 -9t36.5 -24.5t24.5 -36.5t9 -45q0 -49 -34 -83
q-33 -34 -81 -34q-24 0 -45.5 9.5t-37.5 25.5t-25 37.5t-9 45.5z" />
    <glyph glyph-name="uniFFE6" unicode="&#xffe6;" horiz-adv-x="1024" 
 />
    <glyph glyph-name="nonmarkingreturn" horiz-adv-x="1024" 
 />
    <glyph glyph-name="notequal" unicode="&#x2260;" horiz-adv-x="1313" 
d="M689 999l143 302l120 -49l-121 -253h370v-134h-433l-74 -155h507v-134h-570l-152 -320l-120 49l129 271h-377v134h441l73 155h-514v134h578z" />
    <glyph glyph-name="infinity" unicode="&#x221e;" horiz-adv-x="1544" 
d="M776 672q-171 -240 -382 -240q-157 0 -254 100q-98 101 -98 260q0 154 100 253t255 99q209 0 371 -239q163 240 383 240q155 0 252 -100q98 -101 98 -259q0 -154 -98 -255q-97 -100 -250 -100q-217 0 -377 241zM859 789q134 -209 273 -209q85 0 141 59t56 149t-57 149
q-56 59 -142 59q-138 0 -271 -207zM685 788q-132 208 -274 208q-85 0 -141 -59t-56 -150q0 -88 57 -148q57 -59 143 -59q135 0 271 208z" />
    <glyph glyph-name="lessequal" unicode="&#x2264;" horiz-adv-x="1158" 
d="M1081 1417v-166l-818 -362l818 -363v-166l-1004 451v151zM1081 292v-162h-1004v162h1004z" />
    <glyph glyph-name="greaterequal" unicode="&#x2265;" horiz-adv-x="1158" 
d="M77 360v166l818 363l-818 362v166l1004 -456v-150zM77 130v162h1004v-162h-1004z" />
    <glyph glyph-name="partialdiff" unicode="&#x2202;" horiz-adv-x="1158" 
d="M195 1398l23 154q220 -30 360 -97q144 -68 259 -192q252 -275 252 -693q0 -259 -126 -413q-148 -181 -382 -181q-210 0 -361 153q-150 154 -150 369q0 212 140 361q141 148 343 148q107 0 185 -38q75 -37 153 -130q-5 13 -9.5 22t-6.5 16q-62 148 -124 228
q-64 83 -165 148q-52 33 -99 57t-89 40q-83 32 -203 48zM591 876q-145 0 -245 -112t-100 -275q0 -156 98 -269q97 -112 236 -112q141 0 236 114q96 114 96 282q0 160 -91 266t-230 106z" />
    <glyph glyph-name="summation" unicode="&#x2211;" horiz-adv-x="1544" 
d="M1387 1737v-531h-158l-16 368h-954l584 -949l-584 -1041h976l9 365h165v-527h-1345v182l575 1021l-575 933v179h1323z" />
    <glyph glyph-name="product" unicode="&#x220f;" horiz-adv-x="1622" 
d="M85 1737h1451v-162h-184v-1991h184v-162h-548v162h190v1991h-735v-1991h188v-162h-546v162h184v1991h-184v162z" />
    <glyph glyph-name="pi" unicode="&#x3c0;" horiz-adv-x="1352" 
d="M238 0v953h-172v157h1221v-157h-170v-953h-174v953h-531v-953h-174z" />
    <glyph glyph-name="integral" unicode="&#x222b;" horiz-adv-x="1158" 
d="M217 -553l38 155q63 -23 105 -23q104 0 123 91q9 40 9 189v1410q0 243 26 312q61 157 265 157q62 0 158 -26l-37 -154q-63 23 -105 23q-81 0 -107 -47q-25 -46 -25 -193l-1 -119v-1332q0 -189 -12 -256q-10 -67 -51 -115q-79 -94 -249 -94q-78 0 -137 22z" />
    <glyph glyph-name="Ohm" unicode="&#x2126;" horiz-adv-x="1544" 
d="M66 0v153h414q-414 243 -414 689q0 312 203 527q204 214 503 214t503 -214q204 -215 204 -527q0 -448 -414 -689h414v-153h-605v138q110 63 190.5 135.5t133.5 156.5t78.5 181.5t25.5 210.5q0 254 -154 429q-153 177 -373 177q-227 0 -380 -174q-152 -176 -152 -433
q0 -441 428 -683v-138h-605z" />
    <glyph glyph-name="radical" unicode="&#x221a;" horiz-adv-x="1544" 
d="M1544 1920v-162h-453l-494 -1758h-216l-187 690h-194v162h336l83 -295q5 -18 13 -55.5t19 -95.5l26 -135l7 -35h13q4 19 6 30.5t3 16.5l34 150l56 247l97 345l249 895h602z" />
    <glyph glyph-name="approxequal" unicode="&#x2248;" horiz-adv-x="1158" 
d="M124 805l-102 67q65 141 140.5 204.5t177.5 63.5q89 0 259 -79q162 -74 223 -74q68 0 111 34q46 36 98 124l105 -62q-130 -262 -335 -262q-81 0 -194 52l-130 59q-92 42 -150 42q-112 0 -203 -169zM124 415l-102 67q33 70 67.5 120.5t73.5 83.5t83 48.5t95 15.5
q88 0 258 -79q156 -73 224 -73q67 0 110 34q46 34 98 123l105 -62q-130 -262 -335 -262q-74 0 -194 53l-130 59q-94 41 -150 41q-112 0 -203 -169z" />
    <glyph glyph-name="Delta" unicode="&#x2206;" horiz-adv-x="1544" 
d="M63 0l614 1544h186l619 -1544h-1419zM312 162h918l-459 1170z" />
    <glyph glyph-name="uniE003" horiz-adv-x="711" 
d="M511 1544v-1248q0 -142 -24 -223t-84 -139q-94 -94 -233 -94q-134 0 -277 116l96 132q96 -87 178 -87q89 0 130 70.5t41 224.5v1248h173z" />
    <glyph glyph-name="lozenge" unicode="&#x25ca;" horiz-adv-x="1544" 
d="M772 1605l602 -832l-602 -832l-601 832zM772 1283l-371 -510l371 -510l371 510z" />
    <glyph glyph-name="fraction1" unicode="&#x2215;" horiz-adv-x="324" 
d="M567 1574l89 -49l-898 -1554l-89 52z" />
    <glyph glyph-name="fi" unicode="&#xf001;" horiz-adv-x="1035" 
d="M877 1206h-165v149q0 85 -55 146t-140 61q-82 0 -139 -62q-56 -62 -56 -145v-393h244v-153h-244v-809h-165v809h-91v153h91v393q0 149 105 254q106 106 255 106q150 0 255 -105t105 -255v-149zM877 0h-165v962h165v-962z" />
    <glyph glyph-name="fi" unicode="&#xfb01;" horiz-adv-x="1035" 
d="M877 1206h-165v149q0 85 -55 146t-140 61q-82 0 -139 -62q-56 -62 -56 -145v-393h244v-153h-244v-809h-165v809h-91v153h91v393q0 149 105 254q106 106 255 106q150 0 255 -105t105 -255v-149zM877 0h-165v962h165v-962z" />
    <glyph glyph-name="fl" unicode="&#xf002;" horiz-adv-x="1035" 
d="M877 0h-165v1355q0 85 -54 145q-57 62 -141 62q-82 0 -139 -62q-56 -62 -56 -145v-393h244v-153h-244v-809h-165v809h-91v153h91v393q0 149 105 254q106 106 255 106t254 -105q106 -105 106 -255v-1355z" />
    <glyph glyph-name="fl" unicode="&#xfb02;" horiz-adv-x="1035" 
d="M877 0h-165v1355q0 85 -54 145q-57 62 -141 62q-82 0 -139 -62q-56 -62 -56 -145v-393h244v-153h-244v-809h-165v809h-91v153h91v393q0 149 105 254q106 106 255 106t254 -105q106 -105 106 -255v-1355z" />
    <glyph glyph-name="dotlessi" unicode="&#x131;" horiz-adv-x="481" 
d="M323 962v-962h-165v962h165z" />
    <glyph glyph-name="breve" unicode="&#x2d8;" horiz-adv-x="1158" 
d="M275 1467h143q7 -76 49 -119t108 -43q137 0 164 162h144q-16 -139 -99 -220t-207 -81q-132 0 -217 85t-85 216z" />
    <glyph glyph-name="dotaccent" unicode="&#x2d9;" horiz-adv-x="1158" 
d="M462 1326q0 46 35 81t83 35t83 -35t35 -83q0 -49 -35 -84q-34 -34 -83 -34t-84 35q-34 34 -34 85z" />
    <glyph glyph-name="ring" unicode="&#x2da;" horiz-adv-x="1158" 
d="M369 1332q0 84 62 146t148 62t148 -62t62 -148q0 -87 -62 -149q-61 -61 -148 -61t-149 62q-61 61 -61 150zM482 1331q0 -21 7.5 -39t21 -31.5t31 -21t37.5 -7.5t37.5 7.5t31 21t21 31t7.5 38.5q0 20 -7.5 37.5t-20.5 31t-30.5 21t-38.5 7.5q-20 0 -37.5 -7.5t-31 -21
t-21 -31t-7.5 -36.5z" />
    <glyph glyph-name="hungarumlaut" unicode="&#x2dd;" horiz-adv-x="1158" 
d="M728 1448l-308 -321l-84 54l244 339zM1037 1448l-308 -321l-84 54l244 339z" />
    <glyph glyph-name="ogonek" unicode="&#x2db;" horiz-adv-x="1158" 
d="M886 0h131q-167 -111 -167 -201q0 -36 26 -61t64 -25q53 0 118 30l-21 -126q-59 -32 -122 -32q-85 0 -144 53q-58 52 -58 129q0 122 173 233z" />
    <glyph glyph-name="caron" unicode="&#x2c7;" horiz-adv-x="1158" 
d="M900 1428l-319 -301l-322 301l119 92l203 -192l203 192z" />
    <glyph glyph-name="Lslash" unicode="&#x141;" horiz-adv-x="829" 
d="M373 912l264 185v-175l-264 -186v-575h425v-161h-598v661l-154 -108v175l154 108v708h173v-632z" />
    <glyph glyph-name="lslash" unicode="&#x142;" horiz-adv-x="480" 
d="M323 977l147 109v-176l-147 -110v-800h-165v722l-147 -108v176l147 108v791h165v-712z" />
    <glyph glyph-name="minus" unicode="&#x2212;" horiz-adv-x="1313" 
d="M111 716v143h1090v-143h-1090z" />
    <glyph glyph-name="Gbreve" unicode="&#x11e;" horiz-adv-x="1755" 
d="M996 775h644v-40q0 -243 -81 -391q-94 -170 -270 -271q-175 -100 -381 -100q-327 0 -559 234q-233 236 -233 562q0 332 236 566q235 235 570 235q198 0 349 -79q78 -40 152.5 -103t149.5 -154l-127 -115q-115 151 -240 220t-283 69q-263 0 -448 -188t-185 -453
q0 -275 199 -459q187 -174 422 -174q126 0 250 59q121 58 199 157q83 107 94 265h-458v160zM611 1995h148q37 -154 171 -154q138 0 175 154h148q-18 -144 -101 -222.5t-221 -78.5q-143 0 -225 77t-95 224z" />
    <glyph glyph-name="gbreve" unicode="&#x11f;" horiz-adv-x="1215" 
d="M1058 962v-941q0 -157 -27 -247q-26 -92 -95 -164q-133 -145 -354 -145q-203 0 -337 125q-132 124 -132 317h164q12 -145 89 -218.5t218 -73.5q154 0 231.5 95.5t77.5 284.5v138q-140 -158 -340 -158q-195 0 -326 143q-131 146 -131 359q0 219 132 363q133 145 334 145
q197 0 331 -159v136h165zM264 480q0 -157 87 -257q88 -100 227 -100q141 0 232 100t91 255q0 157 -90 258q-90 100 -232 100q-136 0 -226 -101q-89 -101 -89 -255zM311 1467h143q7 -76 49 -119t108 -43q137 0 164 162h144q-16 -139 -99 -220t-207 -81q-132 0 -217 85
t-85 216z" />
    <glyph glyph-name="Idotaccent" unicode="&#x130;" horiz-adv-x="574" 
d="M374 1544v-1544h-173v1544h173zM163 1848q0 50 36 86q37 36 88 36t87 -36q37 -36 37 -88q0 -51 -37 -88q-36 -36 -86 -36q-52 0 -89 36q-36 37 -36 90z" />
    <glyph glyph-name="Scommaaccent" unicode="&#x218;" horiz-adv-x="1198" 
d="M1026 1329l-137 -89q-57 94 -117 131q-58 37 -147 37q-109 0 -183 -68q-73 -67 -73 -170q0 -137 218 -232l147 -65q186 -82 267 -181q82 -97 82 -244q0 -202 -142 -338q-143 -137 -349 -137q-183 0 -308 104q-125 103 -168 294l167 47q63 -284 315 -284q128 0 220 89
q90 88 90 215q0 97 -58 161q-57 64 -203 129l-140 64q-85 37 -143.5 77.5t-95.5 85.5q-73 88 -73 217q0 171 123 285q124 114 310 114q258 0 398 -242zM727 -182l-256 -300l-117 60l207 315z" />
    <glyph glyph-name="Scommaaccent" unicode="&#x1e9c;" horiz-adv-x="1198" 
d="M1026 1329l-137 -89q-57 94 -117 131q-58 37 -147 37q-109 0 -183 -68q-73 -67 -73 -170q0 -137 218 -232l147 -65q186 -82 267 -181q82 -97 82 -244q0 -202 -142 -338q-143 -137 -349 -137q-183 0 -308 104q-125 103 -168 294l167 47q63 -284 315 -284q128 0 220 89
q90 88 90 215q0 97 -58 161q-57 64 -203 129l-140 64q-85 37 -143.5 77.5t-95.5 85.5q-73 88 -73 217q0 171 123 285q124 114 310 114q258 0 398 -242zM727 -182l-256 -300l-117 60l207 315z" />
    <glyph glyph-name="Cacute" unicode="&#x106;" horiz-adv-x="1496" 
d="M1381 1417v-213q-218 204 -467 204q-256 0 -440 -190q-184 -187 -184 -453q0 -287 213 -470q185 -161 412 -161q249 0 466 202v-214q-221 -149 -465 -149q-329 0 -564 234q-236 234 -236 560q0 331 237 567q239 236 572 236q238 0 456 -153zM1215 1939l-332 -270l-100 74
l277 300z" />
    <glyph glyph-name="cacute" unicode="&#x107;" horiz-adv-x="1008" 
d="M907 892v-217q-80 88 -147 123q-68 36 -156 36q-146 0 -243 -103q-97 -100 -97 -254q0 -152 96 -254q98 -101 241 -101q90 0 161 38q35 19 72 51.5t79 78.5v-218q-155 -99 -307 -99q-215 0 -363 145q-147 145 -147 357q0 215 147 362q148 147 365 147q156 0 299 -92z
M895 1442l-312 -315l-103 57l244 336z" />
    <glyph glyph-name="Ccaron" unicode="&#x10c;" horiz-adv-x="1496" 
d="M1381 1417v-213q-218 204 -467 204q-256 0 -440 -190q-184 -187 -184 -453q0 -287 213 -470q185 -161 412 -161q249 0 466 202v-214q-221 -149 -465 -149q-329 0 -564 234q-236 234 -236 560q0 331 237 567q239 236 572 236q238 0 456 -153zM1241 1947l-322 -276
l-326 276l123 94l203 -175l203 175z" />
    <glyph glyph-name="ccaron" unicode="&#x10d;" horiz-adv-x="1008" 
d="M907 892v-217q-80 88 -147 123q-68 36 -156 36q-146 0 -243 -103q-97 -100 -97 -254q0 -152 96 -254q98 -101 241 -101q90 0 161 38q35 19 72 51.5t79 78.5v-218q-155 -99 -307 -99q-215 0 -363 145q-147 145 -147 357q0 215 147 362q148 147 365 147q156 0 299 -92z
M920 1428l-319 -301l-322 301l119 92l203 -192l203 192z" />
    <glyph glyph-name="dcroat" unicode="&#x111;" horiz-adv-x="1214" 
d="M891 1689h165v-216h139v-147h-139v-1326h-165v133q-132 -160 -333 -160q-199 0 -331 144q-131 146 -131 365q0 218 130 360t329 142t336 -159v501h-278v147h278v216zM264 487q0 -158 89 -262q88 -103 227 -103q142 0 232 100t90 260q0 155 -90 253q-89 99 -231 99
q-135 0 -226 -100q-91 -97 -91 -247z" />
    <glyph glyph-name="Acute" unicode="&#xf6c9;" horiz-adv-x="1436" 
d="M1031 1939l-332 -270l-100 74l277 300z" />
    <glyph glyph-name="Grave" unicode="&#xf6ce;" horiz-adv-x="1436" 
d="M421 1939l156 104l276 -300l-99 -74z" />
    <glyph glyph-name="Circumflex" horiz-adv-x="1436" 
d="M409 1765l322 276l326 -276l-122 -94l-204 174l-203 -174z" />
    <glyph glyph-name="Tilde" horiz-adv-x="1436" 
d="M489 1729l-99 77q82 165 205 165q53 0 149 -48q88 -46 126 -46q56 0 106 98l100 -75q-81 -167 -212 -167q-55 0 -151 48q-91 46 -129 46q-47 0 -95 -98z" />
    <glyph glyph-name="Cedilla" horiz-adv-x="1496" 
d="M1004 -182l-256 -300l-117 60l207 315z" />
    <glyph glyph-name="Dieresiscondensed" horiz-adv-x="574" 
d="M12 1849q0 47 35 82t83 35t83 -35t35 -83q0 -49 -35 -84t-83 -35q-49 0 -84 35q-34 34 -34 85zM325 1849q0 47 35 82t83 35q49 0 84 -35t35 -83q0 -49 -35 -84t-83 -35q-49 0 -84 35t-35 85z" />
    <glyph glyph-name="Acutecondensed" horiz-adv-x="574" 
d="M554 1939l-278 -270l-100 66l223 308z" />
    <glyph glyph-name="Gravecondensed" horiz-adv-x="574" 
d="M21 1939l155 104l223 -308l-100 -66z" />
    <glyph glyph-name="Circumflexcondensed" horiz-adv-x="574" 
d="M2 1765l284 276l287 -276l-115 -94l-172 174l-172 -174z" />
    <glyph glyph-name="Caron" unicode="&#xf6ca;" horiz-adv-x="1237" 
d="M981 1947l-322 -276l-326 276l123 94l203 -175l203 175z" />
    <glyph glyph-name="dieresiscondensed" horiz-adv-x="481" 
d="M-19 1299q0 44 32 76q31 33 77 33q47 0 79 -33q33 -32 33 -77q0 -47 -33 -80q-32 -32 -78 -32q-47 0 -78 33q-32 35 -32 80zM280 1299q0 44 33 76q33 33 78 33q22 0 42.5 -8.5t35.5 -23.5t24 -35t9 -43q0 -47 -33 -80q-32 -32 -78 -32t-79 33q-32 35 -32 80z" />
    <glyph glyph-name="acutecondensed" horiz-adv-x="481" 
d="M510 1442l-274 -315l-95 57l198 336z" />
    <glyph glyph-name="gravecondensed" horiz-adv-x="481" 
d="M-28 1442l170 78l198 -336l-96 -57z" />
    <glyph glyph-name="circumflexcondensed" horiz-adv-x="481" 
d="M-33 1219l272 301l275 -301l-111 -92l-164 192l-165 -192z" />
    <glyph glyph-name="periodcentered" unicode="&#x2219;" horiz-adv-x="632" 
d="M201 774q0 46 33 79q34 33 81 33q24 0 45 -9t36.5 -24t24.5 -36t9 -45q0 -47 -34 -80q-33 -33 -80 -33q-24 0 -45 9t-36.5 24.5t-24.5 36.5t-9 45z" />
    <glyph glyph-name="apple" unicode="&#xf8ff;" horiz-adv-x="1184" 
d="M866 479q57 0 104.5 21.5t84.5 58.5q-28 -73 -76 -134.5t-110.5 -106.5t-138 -70t-157.5 -25q-72 0 -137.5 19t-122.5 52.5t-103.5 80.5t-80.5 104h82v316h2l244 -316h133v512h-133v-311h-2l-244 311h-82q34 58 80.5 105t103.5 80.5t122.5 52t137.5 18.5
q82 0 157.5 -24.5t138 -68.5t110 -105.5t74.5 -135.5q-72 78 -187 78h-188v-512h188zM811 879h31q63 0 104 -37.5t41 -106.5q0 -37 -11.5 -63.5t-32 -44t-47 -25.5t-56.5 -8h-29v285z" />
    <glyph glyph-name="foundryicon" horiz-adv-x="1184" 
d="M866 479q57 0 104.5 21.5t84.5 58.5q-28 -73 -76 -134.5t-110.5 -106.5t-138 -70t-157.5 -25q-72 0 -137.5 19t-122.5 52.5t-103.5 80.5t-80.5 104h82v316h2l244 -316h133v512h-133v-311h-2l-244 311h-82q34 58 80.5 105t103.5 80.5t122.5 52t137.5 18.5
q82 0 157.5 -24.5t138 -68.5t110 -105.5t74.5 -135.5q-72 78 -187 78h-188v-512h188zM811 879h31q63 0 104 -37.5t41 -106.5q0 -37 -11.5 -63.5t-32 -44t-47 -25.5t-56.5 -8h-29v285z" />
    <glyph glyph-name="fraction" unicode="&#x2044;" horiz-adv-x="324" 
d="M567 1574l89 -49l-898 -1554l-89 52z" />
    <glyph glyph-name="Scedilla" unicode="&#x15e;" horiz-adv-x="1198" 
d="M1026 1329l-137 -89q-57 94 -117 131q-58 37 -147 37q-109 0 -183 -68q-73 -67 -73 -170q0 -137 218 -232l147 -65q186 -82 267 -181q82 -97 82 -244q0 -202 -142 -338q-143 -137 -349 -137q-183 0 -308 104q-125 103 -168 294l167 47q63 -284 315 -284q128 0 220 89
q90 88 90 215q0 97 -58 161q-57 64 -203 129l-140 64q-85 37 -143.5 77.5t-95.5 85.5q-73 88 -73 217q0 171 123 285q124 114 310 114q258 0 398 -242zM726 -182l-256 -300l-117 60l207 315z" />
    <glyph glyph-name="Scedilla" unicode="&#xf6c1;" horiz-adv-x="1198" 
d="M1026 1329l-137 -89q-57 94 -117 131q-58 37 -147 37q-109 0 -183 -68q-73 -67 -73 -170q0 -137 218 -232l147 -65q186 -82 267 -181q82 -97 82 -244q0 -202 -142 -338q-143 -137 -349 -137q-183 0 -308 104q-125 103 -168 294l167 47q63 -284 315 -284q128 0 220 89
q90 88 90 215q0 97 -58 161q-57 64 -203 129l-140 64q-85 37 -143.5 77.5t-95.5 85.5q-73 88 -73 217q0 171 123 285q124 114 310 114q258 0 398 -242zM726 -182l-256 -300l-117 60l207 315z" />
    <glyph glyph-name="scedilla" unicode="&#x15f;" horiz-adv-x="811" 
d="M687 810l-137 -72q-50 96 -133 96q-47 0 -82 -32q-34 -31 -34 -75q0 -42 31 -70q29 -26 124 -67q172 -72 231 -134t59 -170q0 -134 -95 -224q-95 -89 -234 -89q-243 0 -337 244l145 61q41 -88 84 -122q40 -34 109 -34q71 0 114 43q45 43 45 109q0 53 -32 88
q-32 32 -124 72q-166 71 -222 127q-56 59 -56 153q0 115 80 192q81 78 201 78q174 0 263 -174zM558 -169l-233 -298l-115 57l195 303z" />
    <glyph glyph-name="scedilla" unicode="&#xf6c2;" horiz-adv-x="811" 
d="M687 810l-137 -72q-50 96 -133 96q-47 0 -82 -32q-34 -31 -34 -75q0 -42 31 -70q29 -26 124 -67q172 -72 231 -134t59 -170q0 -134 -95 -224q-95 -89 -234 -89q-243 0 -337 244l145 61q41 -88 84 -122q40 -34 109 -34q71 0 114 43q45 43 45 109q0 53 -32 88
q-32 32 -124 72q-166 71 -222 127q-56 59 -56 153q0 115 80 192q81 78 201 78q174 0 263 -174zM558 -169l-233 -298l-115 57l195 303z" />
    <glyph glyph-name="Commaaccent" horiz-adv-x="480" 
d="M323 1286l-82 -182l-55 22l58 160l-2 38h-84v220h165v-258z" />
    <glyph glyph-name="Ring" horiz-adv-x="1436" 
d="M516 1868q0 84 62 146t148 62t148 -62t62 -148q0 -87 -62 -149q-61 -61 -148 -61t-149 62q-61 61 -61 150zM629 1867q0 -21 7.5 -39t21 -31.5t31 -21t37.5 -7.5t37.5 7.5t31 21t21 31t7.5 38.5q0 20 -7.5 37.5t-20.5 31t-30.5 21t-38.5 7.5q-20 0 -37.5 -7.5t-31 -21
t-21 -31t-7.5 -36.5z" />
    <glyph glyph-name="Breve" horiz-adv-x="1755" 
d="M611 1995h148q37 -154 171 -154q138 0 175 154h148q-18 -144 -101 -222.5t-221 -78.5q-143 0 -225 77t-95 224z" />
    <glyph glyph-name="Dotaccent" horiz-adv-x="574" 
d="M163 1848q0 50 36 86q37 36 88 36t87 -36q37 -36 37 -88q0 -51 -37 -88q-36 -36 -86 -36q-52 0 -89 36q-36 37 -36 90z" />
    <glyph glyph-name="Hungarumlaut" unicode="&#xf6cf;" horiz-adv-x="1158" 
d="M727 1939l-332 -270l-100 74l277 300zM1090 1939l-332 -270l-100 74l277 300z" />
    <glyph glyph-name=".null" unicode="&#x2400;" horiz-adv-x="1024" 
 />
  </font>
</defs>
</svg>
